<svg width="96" height="24" viewBox="0 0 96 24" fill="none" xmlns="http://www.w3.org/2000/svg">
<path d="M0.519406 18H6.42341C10.3354 18 13.1914 16.32 13.1914 12.816C13.1914 10.416 11.7274 9.048 9.71141 8.616V8.496C11.2954 7.968 12.2314 6.36 12.2314 4.68C12.2314 1.488 9.61541 0.311999 5.99141 0.311999H0.519406V18ZM3.30341 7.704V2.496H5.75141C8.24741 2.496 9.49541 3.192 9.49541 5.04C9.49541 6.696 8.36741 7.704 5.67941 7.704H3.30341ZM3.30341 15.816V9.792H6.11141C8.91941 9.792 10.4554 10.68 10.4554 12.672C10.4554 14.832 8.87141 15.816 6.11141 15.816H3.30341ZM19.4072 18.312C20.9912 18.312 22.4072 17.52 23.6072 16.488H23.7032L23.9192 18H26.1752V10.056C26.1752 6.552 24.6632 4.464 21.3752 4.464C19.2632 4.464 17.4152 5.328 16.0472 6.192L17.0792 8.064C18.2072 7.344 19.5032 6.72 20.8952 6.72C22.8392 6.72 23.3912 8.064 23.4152 9.6C17.9192 10.2 15.5192 11.664 15.5192 14.496C15.5192 16.824 17.1272 18.312 19.4072 18.312ZM20.2472 16.128C19.0712 16.128 18.1832 15.6 18.1832 14.304C18.1832 12.816 19.5032 11.808 23.4152 11.352V14.592C22.3352 15.576 21.3992 16.128 20.2472 16.128ZM30.0919 18H32.8519V8.64C34.0039 7.464 34.8439 6.84 36.0679 6.84C37.6279 6.84 38.2999 7.752 38.2999 10.032V18H41.0599V9.696C41.0599 6.336 39.8119 4.464 37.0039 4.464C35.2039 4.464 33.8599 5.448 32.6359 6.624H32.5639L32.3479 4.8H30.0919V18ZM53.2765 23.352H56.0365V4.8H53.8525L53.6125 6.072H53.5405C52.4125 5.016 51.3325 4.464 49.8445 4.464C46.8925 4.464 44.1805 7.128 44.1805 11.4C44.1805 15.792 46.3165 18.312 49.6285 18.312C51.0445 18.312 52.3885 17.568 53.3965 16.584L53.2765 18.864V23.352ZM50.2765 16.032C48.2125 16.032 47.0365 14.376 47.0365 11.376C47.0365 8.52 48.5245 6.768 50.3725 6.768C51.3565 6.768 52.2925 7.08 53.2765 7.968V14.424C52.3165 15.528 51.3805 16.032 50.2765 16.032ZM64.0737 18.312C65.8737 18.312 67.1697 17.4 68.3697 16.008H68.4417L68.6577 18H70.9137V4.8H68.1537V13.968C67.0497 15.36 66.2097 15.936 64.9857 15.936C63.4257 15.936 62.7777 15.024 62.7777 12.768V4.8H60.0177V13.104C60.0177 16.464 61.2417 18.312 64.0737 18.312ZM80.5645 18.312C82.2925 18.312 83.8045 17.736 85.0285 16.92L84.0685 15.168C83.1085 15.792 82.1005 16.152 80.9245 16.152C78.6445 16.152 77.0605 14.64 76.8445 12.12H85.4125C85.4845 11.784 85.5565 11.256 85.5565 10.704C85.5565 6.984 83.6605 4.464 80.1565 4.464C77.0845 4.464 74.1325 7.128 74.1325 11.4C74.1325 15.768 76.9885 18.312 80.5645 18.312ZM76.8205 10.2C77.0845 7.896 78.5485 6.624 80.2045 6.624C82.1245 6.624 83.1565 7.944 83.1565 10.2H76.8205ZM92.821 18.312C93.781 18.312 94.669 18.072 95.413 17.832L94.909 15.792C94.525 15.96 93.949 16.104 93.493 16.104C92.125 16.104 91.573 15.288 91.573 13.704V7.008H95.005V4.8H91.573V1.152H89.269L88.957 4.8L86.893 4.944V7.008H88.813V13.68C88.813 16.464 89.845 18.312 92.821 18.312Z" fill="white"/>
</svg>
