<svg width="117" height="24" viewBox="0 0 117 24" fill="none" xmlns="http://www.w3.org/2000/svg">
<path d="M8.60663 18.312C10.8866 18.312 12.6866 17.4 14.1026 15.768L12.6146 14.016C11.5586 15.168 10.3346 15.888 8.70263 15.888C5.58263 15.888 3.61463 13.32 3.61463 9.12C3.61463 4.968 5.72662 2.424 8.77463 2.424C10.2146 2.424 11.3186 3.072 12.2306 4.008L13.7426 2.232C12.6626 1.056 10.9346 -1.43051e-06 8.72663 -1.43051e-06C4.26263 -1.43051e-06 0.758625 3.456 0.758625 9.216C0.758625 15 4.16663 18.312 8.60663 18.312ZM22.4903 18.312C24.2183 18.312 25.7303 17.736 26.9543 16.92L25.9943 15.168C25.0343 15.792 24.0263 16.152 22.8503 16.152C20.5703 16.152 18.9863 14.64 18.7703 12.12H27.3383C27.4103 11.784 27.4823 11.256 27.4823 10.704C27.4823 6.984 25.5863 4.464 22.0823 4.464C19.0103 4.464 16.0583 7.128 16.0583 11.4C16.0583 15.768 18.9143 18.312 22.4903 18.312ZM18.7463 10.2C19.0103 7.896 20.4743 6.624 22.1303 6.624C24.0503 6.624 25.0823 7.944 25.0823 10.2H18.7463ZM30.5646 18H33.3246V9.768C34.1406 7.68 35.4366 6.936 36.5166 6.936C37.0446 6.936 37.3806 7.008 37.8366 7.152L38.3406 4.752C37.9326 4.56 37.5006 4.464 36.8526 4.464C35.4366 4.464 34.0446 5.472 33.1086 7.176H33.0366L32.8206 4.8H30.5646V18ZM45.6231 18.312C47.3511 18.312 48.8631 17.736 50.0871 16.92L49.1271 15.168C48.1671 15.792 47.1591 16.152 45.9831 16.152C43.7031 16.152 42.1191 14.64 41.9031 12.12H50.4711C50.5431 11.784 50.6151 11.256 50.6151 10.704C50.6151 6.984 48.7191 4.464 45.2151 4.464C42.1431 4.464 39.1911 7.128 39.1911 11.4C39.1911 15.768 42.0471 18.312 45.6231 18.312ZM41.8791 10.2C42.1431 7.896 43.6071 6.624 45.2631 6.624C47.1831 6.624 48.2151 7.944 48.2151 10.2H41.8791ZM53.6974 18H56.4574V8.64C57.5374 7.44 58.5214 6.84 59.4094 6.84C60.9214 6.84 61.6174 7.752 61.6174 10.032V18H64.3774V8.64C65.4814 7.44 66.4414 6.84 67.3534 6.84C68.8414 6.84 69.5614 7.752 69.5614 10.032V18H72.3214V9.696C72.3214 6.336 71.0254 4.464 68.2654 4.464C66.6094 4.464 65.2654 5.496 63.9694 6.888C63.3934 5.376 62.2894 4.464 60.3214 4.464C58.6894 4.464 57.3694 5.448 56.2414 6.648H56.1694L55.9534 4.8H53.6974V18ZM81.5946 18.312C84.8586 18.312 87.8106 15.792 87.8106 11.4C87.8106 7.008 84.8586 4.464 81.5946 4.464C78.3306 4.464 75.3786 7.008 75.3786 11.4C75.3786 15.792 78.3306 18.312 81.5946 18.312ZM81.5946 16.056C79.5306 16.056 78.2346 14.208 78.2346 11.4C78.2346 8.616 79.5306 6.744 81.5946 6.744C83.6826 6.744 84.9786 8.616 84.9786 11.4C84.9786 14.208 83.6826 16.056 81.5946 16.056ZM91.0568 18H93.8168V8.64C94.9688 7.464 95.8088 6.84 97.0328 6.84C98.5928 6.84 99.2648 7.752 99.2648 10.032V18H102.025V9.696C102.025 6.336 100.777 4.464 97.9688 4.464C96.1688 4.464 94.8248 5.448 93.6008 6.624H93.5288L93.3128 4.8H91.0568V18ZM106.633 23.52C109.417 23.52 110.809 21.624 111.841 18.792L116.689 4.8H114.001L111.889 11.592C111.553 12.792 111.193 14.112 110.857 15.312H110.737C110.329 14.088 109.921 12.768 109.537 11.592L107.089 4.8H104.257L109.489 17.904L109.225 18.816C108.745 20.232 107.905 21.288 106.465 21.288C106.129 21.288 105.745 21.168 105.505 21.096L104.977 23.256C105.433 23.424 105.961 23.52 106.633 23.52Z" fill="white"/>
</svg>
