<svg width="411" height="21" viewBox="0 0 411 21" fill="none" xmlns="http://www.w3.org/2000/svg">
<path d="M5.912 16.234C7.622 16.234 8.972 15.55 10.034 14.326L8.918 13.012C8.126 13.876 7.208 14.416 5.984 14.416C3.644 14.416 2.168 12.49 2.168 9.34C2.168 6.226 3.752 4.318 6.038 4.318C7.118 4.318 7.946 4.804 8.63 5.506L9.764 4.174C8.954 3.292 7.658 2.5 6.002 2.5C2.654 2.5 0.0260001 5.092 0.0260001 9.412C0.0260001 13.75 2.582 16.234 5.912 16.234ZM16.1627 16.234C18.6107 16.234 20.8247 14.344 20.8247 11.05C20.8247 7.756 18.6107 5.848 16.1627 5.848C13.7147 5.848 11.5007 7.756 11.5007 11.05C11.5007 14.344 13.7147 16.234 16.1627 16.234ZM16.1627 14.542C14.6147 14.542 13.6427 13.156 13.6427 11.05C13.6427 8.962 14.6147 7.558 16.1627 7.558C17.7287 7.558 18.7007 8.962 18.7007 11.05C18.7007 13.156 17.7287 14.542 16.1627 14.542ZM23.2594 20.014H25.3294V16.81L25.2574 15.118C26.1034 15.838 26.9854 16.234 27.8674 16.234C30.0994 16.234 32.1334 14.29 32.1334 10.888C32.1334 7.846 30.7294 5.848 28.2274 5.848C27.1114 5.848 26.0314 6.46 25.1674 7.18H25.1134L24.9514 6.1H23.2594V20.014ZM27.4714 14.524C26.8594 14.524 26.1034 14.29 25.3294 13.624V8.782C26.1574 7.972 26.8954 7.576 27.6694 7.576C29.3254 7.576 29.9914 8.854 29.9914 10.924C29.9914 13.246 28.9114 14.524 27.4714 14.524ZM34.9418 20.14C37.0298 20.14 38.0738 18.718 38.8478 16.594L42.4838 6.1H40.4678L38.8838 11.194C38.6318 12.094 38.3618 13.084 38.1098 13.984H38.0198C37.7138 13.066 37.4078 12.076 37.1198 11.194L35.2838 6.1H33.1598L37.0838 15.928L36.8858 16.612C36.5258 17.674 35.8958 18.466 34.8158 18.466C34.5638 18.466 34.2758 18.376 34.0958 18.322L33.6998 19.942C34.0418 20.068 34.4378 20.14 34.9418 20.14ZM44.2828 16H46.3528V9.826C46.9648 8.26 47.9368 7.702 48.7468 7.702C49.1428 7.702 49.3948 7.756 49.7368 7.864L50.1148 6.064C49.8088 5.92 49.4848 5.848 48.9988 5.848C47.9368 5.848 46.8928 6.604 46.1908 7.882H46.1368L45.9748 6.1H44.2828V16ZM51.648 16H53.718V6.1H51.648V16ZM52.674 4.246C53.43 4.246 53.97 3.76 53.97 3.004C53.97 2.266 53.43 1.78 52.674 1.78C51.918 1.78 51.396 2.266 51.396 3.004C51.396 3.76 51.918 4.246 52.674 4.246ZM60.2 20.446C63.368 20.446 65.384 18.898 65.384 16.99C65.384 15.298 64.16 14.578 61.82 14.578H60.002C58.742 14.578 58.346 14.2 58.346 13.606C58.346 13.12 58.562 12.85 58.886 12.562C59.318 12.76 59.822 12.868 60.272 12.868C62.342 12.868 63.98 11.626 63.98 9.466C63.98 8.71 63.71 8.044 63.332 7.648H65.222V6.1H61.712C61.334 5.956 60.83 5.848 60.272 5.848C58.22 5.848 56.438 7.162 56.438 9.394C56.438 10.582 57.068 11.518 57.752 12.04V12.112C57.194 12.508 56.636 13.174 56.636 13.948C56.636 14.758 57.032 15.28 57.536 15.586V15.676C56.618 16.234 56.096 17.008 56.096 17.836C56.096 19.564 57.824 20.446 60.2 20.446ZM60.272 11.536C59.246 11.536 58.4 10.726 58.4 9.394C58.4 8.062 59.228 7.306 60.272 7.306C61.316 7.306 62.144 8.08 62.144 9.394C62.144 10.726 61.298 11.536 60.272 11.536ZM60.506 19.078C58.868 19.078 57.86 18.502 57.86 17.53C57.86 17.026 58.112 16.522 58.706 16.09C59.12 16.18 59.57 16.234 60.038 16.234H61.532C62.738 16.234 63.386 16.486 63.386 17.314C63.386 18.232 62.234 19.078 60.506 19.078ZM67.2223 16H69.2923V8.98C70.1562 8.098 70.7863 7.63 71.7043 7.63C72.8743 7.63 73.3783 8.314 73.3783 10.024V16H75.4483V9.772C75.4483 7.252 74.5123 5.848 72.4063 5.848C71.0563 5.848 70.0663 6.586 69.2023 7.414L69.2923 5.452V1.654H67.2223V16ZM81.7319 16.234C82.4519 16.234 83.1179 16.054 83.6759 15.874L83.2979 14.344C83.0099 14.47 82.5779 14.578 82.2359 14.578C81.2099 14.578 80.7959 13.966 80.7959 12.778V7.756H83.3699V6.1H80.7959V3.364H79.0679L78.8339 6.1L77.2859 6.208V7.756H78.7259V12.76C78.7259 14.848 79.4999 16.234 81.7319 16.234ZM101.059 17.584C105.667 17.584 109.483 13.84 109.483 9.16C109.483 4.516 105.703 0.735999 101.059 0.735999C96.4146 0.735999 92.6346 4.516 92.6346 9.16C92.6346 13.804 96.4146 17.584 101.059 17.584ZM101.059 16.99C96.7386 16.99 93.2286 13.48 93.2286 9.16C93.2286 4.876 96.7026 1.33 101.059 1.33C105.379 1.33 108.889 4.84 108.889 9.16C108.889 13.48 105.379 16.99 101.059 16.99ZM101.401 13.966C102.697 13.966 103.759 13.516 104.605 12.58L103.579 11.5C103.021 12.058 102.391 12.418 101.509 12.418C99.8166 12.418 98.7726 11.176 98.7726 9.034C98.7726 6.964 99.9246 5.704 101.581 5.704C102.337 5.704 102.877 6.01 103.399 6.496L104.425 5.362C103.777 4.714 102.751 4.156 101.545 4.156C98.9346 4.156 96.8646 5.992 96.8646 9.088C96.8646 12.274 98.8446 13.966 101.401 13.966ZM114.894 16H123.444V14.236H120.078C119.43 14.236 118.584 14.29 117.918 14.362C120.672 11.482 122.814 9.106 122.814 6.748C122.814 4.408 121.248 2.86 118.818 2.86C117.09 2.86 115.92 3.616 114.786 4.84L115.956 5.992C116.658 5.182 117.522 4.516 118.566 4.516C120.06 4.516 120.816 5.452 120.816 6.856C120.816 8.872 118.584 11.176 114.894 14.794V16ZM129.497 16.234C132.143 16.234 133.781 13.84 133.781 9.502C133.781 5.182 132.143 2.86 129.497 2.86C126.869 2.86 125.213 5.164 125.213 9.502C125.213 13.84 126.869 16.234 129.497 16.234ZM129.497 14.596C128.147 14.596 127.193 13.21 127.193 9.502C127.193 5.794 128.147 4.498 129.497 4.498C130.847 4.498 131.801 5.794 131.801 9.502C131.801 13.21 130.847 14.596 129.497 14.596ZM135.425 16H143.975V14.236H140.609C139.961 14.236 139.115 14.29 138.449 14.362C141.203 11.482 143.345 9.106 143.345 6.748C143.345 4.408 141.779 2.86 139.349 2.86C137.621 2.86 136.451 3.616 135.317 4.84L136.487 5.992C137.189 5.182 138.053 4.516 139.097 4.516C140.591 4.516 141.347 5.452 141.347 6.856C141.347 8.872 139.115 11.176 135.425 14.794V16ZM146.446 16H154.006V14.29H151.414V3.112H149.848C149.092 3.58 148.21 3.904 146.968 4.12V5.434H149.344V14.29H146.446V16ZM174.716 6.388C175.166 5.704 175.688 4.66 176.156 3.724L174.878 3.256C174.608 4.066 174.086 5.236 173.672 5.974L174.716 6.388ZM168.362 3.67C168.848 4.48 169.28 5.578 169.406 6.262L170.54 5.83C170.396 5.128 169.946 4.084 169.442 3.292L168.362 3.67ZM167.624 6.586V2.914H171.386V6.586H167.624ZM176.75 6.586H173.06V2.914H176.75V6.586ZM180.206 11.824H173.06V10.51H178.748V9.178H173.06V7.972H178.442V1.546H166.04V7.972H171.386V9.178H165.752V10.51H171.386V11.824H164.312V13.3H180.206V11.824ZM165.842 17.476C166.67 16.666 167.39 15.37 167.822 14.2L166.202 13.786C165.77 14.902 165.032 16.108 164.258 16.774L165.842 17.476ZM169.28 14.344C169.478 15.316 169.568 16.576 169.568 17.314L171.224 17.116C171.224 16.378 171.062 15.154 170.846 14.218L169.28 14.344ZM172.916 14.398C173.294 15.334 173.672 16.576 173.816 17.332L175.472 16.936C175.328 16.18 174.896 14.974 174.5 14.074L172.916 14.398ZM176.498 14.308C177.326 15.28 178.28 16.63 178.694 17.476L180.35 16.846C179.882 15.982 178.874 14.722 178.046 13.786L176.498 14.308ZM186.182 6.154C186.146 7.756 185.948 9.646 185.264 11.518C184.832 11.086 184.364 10.654 183.95 10.258C184.22 9.088 184.526 7.684 184.796 6.244L186.182 6.154ZM187.802 14.38C187.46 13.912 186.974 13.318 186.416 12.724C187.37 10.402 187.604 8.044 187.658 6.064L188.558 5.992V4.588L187.658 4.642V3.436H186.2V4.714L185.03 4.768C185.246 3.472 185.426 2.176 185.534 1.024L184.022 0.952C183.932 2.14 183.752 3.49 183.554 4.84L181.916 4.912L182.078 6.424L183.284 6.352C182.978 7.972 182.654 9.484 182.312 10.636C183.032 11.32 183.842 12.148 184.598 12.958C183.968 14.128 183.104 15.262 181.88 16.288C182.24 16.522 182.762 17.008 183.014 17.368C184.166 16.378 185.03 15.298 185.678 14.164C186.11 14.686 186.47 15.136 186.74 15.55L187.802 14.38ZM196.19 3.202V5.344H190.448V3.202H196.19ZM197.756 6.802V1.762H188.882V7.882C188.882 10.51 188.72 14.002 186.938 16.414C187.316 16.594 188 17.044 188.27 17.314C190.178 14.758 190.448 10.726 190.448 7.882V6.802H197.756ZM193.868 15.586C193.13 15.586 193.004 15.478 193.004 14.83V11.356H198.152V9.934H193.004V7.54H191.456V14.83C191.456 16.576 191.906 17.062 193.688 17.062H196.46C198.008 17.062 198.422 16.36 198.62 13.894C198.188 13.786 197.54 13.516 197.198 13.246C197.108 15.226 197 15.586 196.352 15.586H193.868ZM205.046 6.19C204.992 7.81 204.776 9.682 203.948 11.554C203.354 11.05 202.742 10.546 202.166 10.096C202.436 8.98 202.724 7.684 202.976 6.334L205.046 6.19ZM207.602 6.028L207.62 4.534L206.612 4.588V3.436H205.064V4.678L203.264 4.768C203.462 3.472 203.642 2.194 203.768 1.024L202.13 0.934C202.022 2.14 201.842 3.49 201.644 4.84L199.934 4.912L200.114 6.514L201.356 6.442C201.05 8.008 200.708 9.52 200.366 10.636C201.23 11.356 202.22 12.184 203.174 13.048C202.436 14.2 201.41 15.316 199.988 16.288C200.366 16.558 200.924 17.116 201.176 17.476C202.562 16.468 203.606 15.352 204.398 14.182C205.172 14.92 205.856 15.64 206.324 16.234L207.44 14.83C206.918 14.218 206.126 13.444 205.244 12.652C206.288 10.402 206.558 8.044 206.594 6.1L207.602 6.028ZM216.512 8.368H212.714V6.802C213.992 5.686 215.216 4.156 216.08 2.842L214.928 2.032L214.55 2.122H207.782V3.652H213.398C212.732 4.642 211.85 5.722 211.004 6.46V8.368H207.026V9.97H211.004V15.514C211.004 15.784 210.896 15.856 210.608 15.856C210.338 15.874 209.33 15.874 208.34 15.838C208.574 16.288 208.826 16.972 208.916 17.44C210.32 17.44 211.238 17.404 211.868 17.152C212.516 16.9 212.714 16.45 212.714 15.532V9.97H216.512V8.368ZM221.984 4.102V10.852H220.058V4.102H221.984ZM223.496 12.418V2.536H218.564V13.984H220.058V12.418H223.496ZM224.09 16.792C224.882 15.766 225.26 14.02 225.494 12.544L224.234 12.166C224.036 13.606 223.604 15.208 222.902 16.18L224.09 16.792ZM226.124 12.49C226.412 13.66 226.556 15.118 226.502 16.072L227.69 15.874C227.726 14.92 227.564 13.462 227.276 12.31L226.124 12.49ZM228.104 12.364C228.518 13.336 228.914 14.614 229.004 15.442L230.12 15.1C229.994 14.272 229.598 12.994 229.148 12.04L228.104 12.364ZM232.118 14.146C231.956 13.48 231.47 12.472 231.002 11.734L230.066 12.076C230.498 12.832 230.966 13.858 231.128 14.542L232.118 14.146ZM226.232 8.566H228.608V10.006H226.232V8.566ZM228.608 3.112V4.516H226.232V3.112H228.608ZM228.608 7.234H226.232V5.83H228.608V7.234ZM230.174 10.006V8.566H233.288V7.234H230.174V5.83H233.288V4.516H230.174V3.112H233.702V1.672H224.648V11.428H232.64C232.478 14.362 232.28 15.496 231.992 15.82C231.866 16 231.704 16.018 231.452 16.018C231.164 16.018 230.57 16.018 229.886 15.946C230.102 16.324 230.246 16.954 230.282 17.386C231.074 17.404 231.794 17.404 232.208 17.35C232.694 17.296 232.982 17.17 233.306 16.81C233.756 16.27 233.972 14.686 234.188 10.636C234.206 10.438 234.206 10.006 234.206 10.006H230.174ZM237.932 16.234C238.706 16.234 239.318 15.64 239.318 14.794C239.318 13.93 238.706 13.318 237.932 13.318C237.158 13.318 236.546 13.93 236.546 14.794C236.546 15.64 237.158 16.234 237.932 16.234ZM252.981 8.8C253.413 7.36 253.827 5.902 254.205 4.39H254.295C254.691 5.884 255.087 7.36 255.537 8.8L256.059 10.582H252.441L252.981 8.8ZM248.697 16H250.821L251.955 12.22H256.563L257.679 16H259.893L255.501 2.734H253.089L248.697 16ZM263.513 16.234C264.035 16.234 264.377 16.162 264.629 16.072L264.359 14.506C264.179 14.542 264.107 14.542 264.017 14.542C263.765 14.542 263.531 14.344 263.531 13.786V1.654H261.461V13.678C261.461 15.28 262.019 16.234 263.513 16.234ZM268.874 16.234C269.396 16.234 269.738 16.162 269.99 16.072L269.72 14.506C269.54 14.542 269.468 14.542 269.378 14.542C269.126 14.542 268.892 14.344 268.892 13.786V1.654H266.822V13.678C266.822 15.28 267.38 16.234 268.874 16.234ZM276.406 16H278.494V10.654H280.636L283.642 16H286L282.76 10.384C284.434 9.862 285.532 8.638 285.532 6.586C285.532 3.724 283.48 2.734 280.744 2.734H276.406V16ZM278.494 8.98V4.426H280.492C282.418 4.426 283.462 4.984 283.462 6.586C283.462 8.188 282.418 8.98 280.492 8.98H278.494ZM288.039 16H290.109V6.1H288.039V16ZM289.065 4.246C289.821 4.246 290.361 3.76 290.361 3.004C290.361 2.266 289.821 1.78 289.065 1.78C288.309 1.78 287.787 2.266 287.787 3.004C287.787 3.76 288.309 4.246 289.065 4.246ZM296.591 20.446C299.759 20.446 301.775 18.898 301.775 16.99C301.775 15.298 300.551 14.578 298.211 14.578H296.393C295.133 14.578 294.737 14.2 294.737 13.606C294.737 13.12 294.953 12.85 295.277 12.562C295.709 12.76 296.213 12.868 296.663 12.868C298.733 12.868 300.371 11.626 300.371 9.466C300.371 8.71 300.101 8.044 299.723 7.648H301.613V6.1H298.103C297.725 5.956 297.221 5.848 296.663 5.848C294.611 5.848 292.829 7.162 292.829 9.394C292.829 10.582 293.459 11.518 294.143 12.04V12.112C293.585 12.508 293.027 13.174 293.027 13.948C293.027 14.758 293.423 15.28 293.927 15.586V15.676C293.009 16.234 292.487 17.008 292.487 17.836C292.487 19.564 294.215 20.446 296.591 20.446ZM296.663 11.536C295.637 11.536 294.791 10.726 294.791 9.394C294.791 8.062 295.619 7.306 296.663 7.306C297.707 7.306 298.535 8.08 298.535 9.394C298.535 10.726 297.689 11.536 296.663 11.536ZM296.897 19.078C295.259 19.078 294.251 18.502 294.251 17.53C294.251 17.026 294.503 16.522 295.097 16.09C295.511 16.18 295.961 16.234 296.429 16.234H297.923C299.129 16.234 299.777 16.486 299.777 17.314C299.777 18.232 298.625 19.078 296.897 19.078ZM303.613 16H305.683V8.98C306.547 8.098 307.177 7.63 308.095 7.63C309.265 7.63 309.769 8.314 309.769 10.024V16H311.839V9.772C311.839 7.252 310.903 5.848 308.797 5.848C307.447 5.848 306.457 6.586 305.593 7.414L305.683 5.452V1.654H303.613V16ZM318.123 16.234C318.843 16.234 319.509 16.054 320.067 15.874L319.689 14.344C319.401 14.47 318.969 14.578 318.627 14.578C317.601 14.578 317.187 13.966 317.187 12.778V7.756H319.761V6.1H317.187V3.364H315.459L315.225 6.1L313.677 6.208V7.756H315.117V12.76C315.117 14.848 315.891 16.234 318.123 16.234ZM324.418 16.234C326.866 16.234 328.18 14.884 328.18 13.228C328.18 11.356 326.65 10.744 325.264 10.222C324.184 9.826 323.212 9.502 323.212 8.656C323.212 7.972 323.716 7.432 324.814 7.432C325.624 7.432 326.326 7.792 327.01 8.296L327.982 7.018C327.19 6.388 326.092 5.848 324.778 5.848C322.582 5.848 321.25 7.09 321.25 8.746C321.25 10.42 322.708 11.122 324.04 11.626C325.102 12.04 326.218 12.436 326.218 13.336C326.218 14.092 325.66 14.668 324.472 14.668C323.41 14.668 322.546 14.218 321.664 13.534L320.692 14.866C321.664 15.658 323.05 16.234 324.418 16.234ZM334.607 16H336.695V10.654H338.837L341.843 16H344.201L340.961 10.384C342.635 9.862 343.733 8.638 343.733 6.586C343.733 3.724 341.681 2.734 338.945 2.734H334.607V16ZM336.695 8.98V4.426H338.693C340.619 4.426 341.663 4.984 341.663 6.586C341.663 8.188 340.619 8.98 338.693 8.98H336.695ZM350.168 16.234C351.464 16.234 352.598 15.802 353.516 15.19L352.796 13.876C352.076 14.344 351.32 14.614 350.438 14.614C348.728 14.614 347.54 13.48 347.378 11.59H353.804C353.858 11.338 353.912 10.942 353.912 10.528C353.912 7.738 352.49 5.848 349.862 5.848C347.558 5.848 345.344 7.846 345.344 11.05C345.344 14.326 347.486 16.234 350.168 16.234ZM347.36 10.15C347.558 8.422 348.656 7.468 349.898 7.468C351.338 7.468 352.112 8.458 352.112 10.15H347.36ZM358.906 16.234C361.354 16.234 362.668 14.884 362.668 13.228C362.668 11.356 361.138 10.744 359.752 10.222C358.672 9.826 357.7 9.502 357.7 8.656C357.7 7.972 358.204 7.432 359.302 7.432C360.112 7.432 360.814 7.792 361.498 8.296L362.47 7.018C361.678 6.388 360.58 5.848 359.266 5.848C357.07 5.848 355.738 7.09 355.738 8.746C355.738 10.42 357.196 11.122 358.528 11.626C359.59 12.04 360.706 12.436 360.706 13.336C360.706 14.092 360.148 14.668 358.96 14.668C357.898 14.668 357.034 14.218 356.152 13.534L355.18 14.866C356.152 15.658 357.538 16.234 358.906 16.234ZM368.995 16.234C370.291 16.234 371.425 15.802 372.343 15.19L371.623 13.876C370.903 14.344 370.147 14.614 369.265 14.614C367.555 14.614 366.367 13.48 366.205 11.59H372.631C372.685 11.338 372.739 10.942 372.739 10.528C372.739 7.738 371.317 5.848 368.689 5.848C366.385 5.848 364.171 7.846 364.171 11.05C364.171 14.326 366.313 16.234 368.995 16.234ZM366.187 10.15C366.385 8.422 367.483 7.468 368.725 7.468C370.165 7.468 370.939 8.458 370.939 10.15H366.187ZM375.05 16H377.12V9.826C377.732 8.26 378.704 7.702 379.514 7.702C379.91 7.702 380.162 7.756 380.504 7.864L380.882 6.064C380.576 5.92 380.252 5.848 379.766 5.848C378.704 5.848 377.66 6.604 376.958 7.882H376.904L376.742 6.1H375.05V16ZM384.998 16H387.392L390.812 6.1H388.796L387.104 11.428C386.834 12.4 386.528 13.408 386.24 14.38H386.168C385.88 13.408 385.592 12.4 385.304 11.428L383.612 6.1H381.488L384.998 16ZM396.645 16.234C397.941 16.234 399.075 15.802 399.993 15.19L399.273 13.876C398.553 14.344 397.797 14.614 396.915 14.614C395.205 14.614 394.017 13.48 393.855 11.59H400.281C400.335 11.338 400.389 10.942 400.389 10.528C400.389 7.738 398.967 5.848 396.339 5.848C394.035 5.848 391.821 7.846 391.821 11.05C391.821 14.326 393.963 16.234 396.645 16.234ZM393.837 10.15C394.035 8.422 395.133 7.468 396.375 7.468C397.815 7.468 398.589 8.458 398.589 10.15H393.837ZM406.121 16.234C407.237 16.234 408.263 15.64 409.001 14.884H409.073L409.235 16H410.927V1.654H408.857V5.326L408.947 6.964C408.137 6.28 407.417 5.848 406.283 5.848C404.069 5.848 402.035 7.846 402.035 11.05C402.035 14.344 403.637 16.234 406.121 16.234ZM406.607 14.524C405.059 14.524 404.177 13.282 404.177 11.032C404.177 8.89 405.293 7.576 406.679 7.576C407.417 7.576 408.119 7.81 408.857 8.476V13.318C408.137 14.146 407.435 14.524 406.607 14.524Z" fill="white"/>
</svg>
