<svg width="512" height="512" viewBox="0 0 512 512" fill="none" xmlns="http://www.w3.org/2000/svg">
<path d="M492 352C503.047 352 512 343.047 512 332V80C512 35.8867 476.113 0 432 0H80C35.8867 0 0 35.8867 0 80V432C0 476.113 35.8867 512 80 512H432C476.113 512 512 476.113 512 432C512 420.953 503.047 412 492 412C480.953 412 472 420.953 472 432C472 454.055 454.055 472 432 472H334V326H380.289C390.41 326 398.937 318.438 400.148 308.391L402.797 286.391C404.227 274.484 394.934 264 382.938 264H334V197C334 180.43 347.43 167 364 167H389C400.047 167 409 158.047 409 147V126.77C409 116.523 401.262 107.914 391.066 106.875C380.926 105.844 370.195 105 364 105C340.676 105 317.297 114.84 299.859 131.992C281.895 149.664 272 172.812 272 197.176V264H227C215.953 264 207 272.953 207 284V306C207 317.047 215.953 326 227 326H272V472H80C57.9453 472 40 454.055 40 432V80C40 57.9453 57.9453 40 80 40H432C454.055 40 472 57.9453 472 80V332C472 343.047 480.953 352 492 352Z" fill="white"/>
</svg>
