<svg width="512" height="512" viewBox="0 0 512 512" fill="none" xmlns="http://www.w3.org/2000/svg">
<g clip-path="url(#clip0)">
<path d="M261.039 512C259.344 512 257.648 512 255.941 511.992C215.809 512.089 178.727 511.07 142.664 508.875C109.602 506.863 79.4219 495.437 55.3828 475.835C32.1875 456.921 16.3477 431.347 8.30469 399.832C1.30469 372.394 0.933594 345.46 0.578125 319.41C0.320312 300.718 0.0546875 278.57 0 256.046C0.0546875 233.429 0.320312 211.281 0.578125 192.589C0.933594 166.543 1.30469 139.609 8.30469 112.168C16.3477 80.6519 32.1875 55.0777 55.3828 36.1636C79.4219 16.562 109.602 5.13626 142.668 3.12454C178.73 0.933134 215.82 -0.0903036 256.039 0.00735268C296.184 -0.0785848 333.254 0.933134 369.316 3.12454C402.379 5.13626 432.559 16.562 456.598 36.1636C479.797 55.0777 495.633 80.6519 503.676 112.168C510.676 139.605 511.047 166.543 511.402 192.589C511.66 211.281 511.93 233.429 511.98 255.953C511.93 278.57 511.66 300.718 511.402 319.41C511.254 330.457 502.129 339.285 491.133 339.136C480.086 338.984 471.258 329.906 471.406 318.863C471.66 300.281 471.93 278.277 471.98 255.953C471.93 233.722 471.66 211.718 471.406 193.136C471.082 169.421 470.746 144.898 464.918 122.058C459.039 99.0191 447.734 80.5503 431.32 67.1636C413.566 52.6831 391.887 44.5699 366.887 43.0503C331.672 40.9097 295.422 39.9214 256.039 40.0034C216.562 39.9097 180.309 40.9097 145.094 43.0503C120.094 44.5699 98.418 52.6831 80.6602 67.1597C64.2461 80.5464 52.9414 99.0152 47.0625 122.058C41.2344 144.898 40.8984 169.421 40.5742 193.136C40.3203 211.718 40.0547 233.722 40 256.046C40.0547 278.277 40.3203 300.281 40.5742 318.863C40.8984 342.578 41.2344 367.101 47.0625 389.941C52.9414 412.98 64.2461 431.449 80.6602 444.835C98.418 459.316 120.094 467.429 145.094 468.949C180.309 471.089 216.57 472.089 255.945 471.992C295.426 472.085 331.672 471.089 366.887 468.949C391.887 467.429 413.562 459.316 431.32 444.835C443.145 435.191 452.383 422.816 458.777 408.05C463.168 397.918 474.941 393.257 485.078 397.648C495.215 402.039 499.871 413.812 495.484 423.949C486.52 444.648 473.438 462.105 456.598 475.835C432.559 495.441 402.379 506.863 369.316 508.875C334.781 510.976 299.305 512 261.039 512V512ZM379.988 256C379.988 187.074 323.914 131 254.988 131C186.066 131 129.988 187.074 129.988 256C129.988 324.925 186.066 381 254.988 381C323.914 381 379.988 324.925 379.988 256ZM339.988 256C339.988 302.867 301.859 341 254.988 341C208.121 341 169.988 302.867 169.988 256C169.988 209.132 208.121 171 254.988 171C301.859 171 339.988 209.132 339.988 256ZM393.988 90.9995C377.422 90.9995 363.988 104.429 363.988 121C363.988 137.57 377.422 151 393.988 151C410.559 151 423.988 137.57 423.988 121C423.988 104.429 410.559 90.9995 393.988 90.9995Z" fill="white"/>
</g>
<defs>
<clipPath id="clip0">
<rect width="512" height="512" fill="white"/>
</clipPath>
</defs>
</svg>
