<svg width="237" height="237" viewBox="0 0 237 237" fill="none" xmlns="http://www.w3.org/2000/svg">
<g clip-path="url(#clip0)">
<path d="M118.136 5.26465C52.996 5.26465 0 49.3987 0 103.647C0 156.632 46.003 198.84 107.008 201.825C111.145 202.014 114.663 198.838 114.866 194.701C115.068 190.564 111.879 187.046 107.741 186.843C54.87 184.256 15 148.49 15 103.647C15 57.6697 61.267 20.2636 118.136 20.2636C175.005 20.2636 221.272 57.6687 221.272 103.647C221.272 146.434 166.644 192.876 112.682 216.641C108.891 218.311 107.171 222.737 108.841 226.527C110.077 229.335 112.826 231.006 115.709 231.006C116.719 231.006 117.745 230.801 118.728 230.368C147.664 217.625 176.194 198.812 197.005 178.752C222.694 153.988 236.273 128.018 236.273 103.647C236.271 49.3987 183.276 5.26465 118.136 5.26465Z" fill="white"/>
<path d="M60.082 79.6676C58.892 78.1826 57.241 77.3916 55.317 77.3916C53.394 77.3916 51.753 78.1976 50.57 79.7226C49.486 81.1316 48.961 83.0606 48.961 85.6246V124.76C48.961 127.502 49.524 129.501 50.684 130.871C51.916 132.328 53.824 133.067 56.354 133.067H77.621C79.637 133.067 81.23 132.472 82.356 131.297C83.47 130.163 84.043 128.671 84.043 126.881C84.043 125.149 83.456 123.618 82.345 122.454C81.226 121.244 79.63 120.619 77.62 120.619H61.758V85.6236C61.758 83.0056 61.209 81.0576 60.082 79.6676Z" fill="white"/>
<path d="M93.756 77.3916C91.852 77.3916 90.217 78.1946 89.027 79.7156C87.944 81.1016 87.394 83.0896 87.394 85.6246V125.666C87.394 128.25 87.941 130.194 89.065 131.607C90.246 133.127 91.873 133.938 93.755 133.938C95.677 133.938 97.33 133.139 98.533 131.626C99.647 130.213 100.21 128.209 100.21 125.665V85.6236C100.21 83.0626 99.643 81.0606 98.525 79.6726C97.314 78.1786 95.666 77.3916 93.756 77.3916Z" fill="white"/>
<path d="M119.625 103.962L132.392 126.852C132.402 126.87 132.412 126.887 132.422 126.905C132.723 127.408 133.025 127.906 133.324 128.398L133.861 129.284C134.463 130.257 135.056 131.033 135.685 131.676C136.429 132.444 137.22 133.003 138.096 133.38C139.03 133.761 139.977 133.939 141.026 133.939C143.544 133.939 147.768 132.81 147.768 125.245V85.2846C147.768 82.8536 147.285 81.0166 146.289 79.6696C145.178 78.1776 143.586 77.3926 141.681 77.3926C139.823 77.3926 138.257 78.1786 137.151 79.6646C136.154 81.0396 135.676 82.8716 135.676 85.2856V107.905L122.488 84.5766L121.81 83.3316L121.123 82.0696C120.564 81.0816 120.066 80.3406 119.583 79.7726C119.009 79.0696 118.313 78.4976 117.514 78.0726C116.681 77.6186 115.703 77.3926 114.545 77.3926C113.082 77.3926 111.724 77.8616 110.511 78.7876C109.34 79.6626 108.481 80.8256 107.972 82.2316C107.966 82.2496 107.96 82.2666 107.954 82.2846C107.57 83.4456 107.383 84.9356 107.383 86.8396V126.053C107.383 128.373 107.885 130.242 108.874 131.609C108.884 131.623 108.894 131.636 108.904 131.649C110.048 133.148 111.637 133.939 113.501 133.939C115.336 133.939 116.91 133.156 118.052 131.674C119.096 130.313 119.624 128.423 119.624 126.052V103.962H119.625Z" fill="white"/>
<path d="M185.284 90.1809C187.242 90.1809 188.782 89.6089 189.859 88.4809C190.905 87.3809 191.434 85.9429 191.434 84.2049C191.434 82.4789 190.902 81.0509 189.854 79.9599C188.795 78.8329 187.253 78.2529 185.284 78.2529H162.022C160.466 78.2529 159.119 78.5469 158.017 79.1279C156.796 79.7869 155.9 80.8139 155.337 82.1889C154.859 83.3509 154.627 84.7839 154.627 86.5669V124.76C154.627 127.505 155.197 129.506 156.37 130.878C157.585 132.326 159.491 133.067 162.023 133.067H185.964C187.924 133.067 189.471 132.476 190.565 131.31C191.616 130.174 192.144 128.735 192.144 127.022C192.144 125.253 191.616 123.785 190.576 122.659C189.454 121.479 187.909 120.892 185.965 120.892H167.441V110.425H183.703C185.665 110.425 187.185 109.839 188.223 108.682C189.212 107.571 189.711 106.173 189.711 104.52C189.711 102.834 189.193 101.434 188.173 100.357C187.16 99.2479 185.648 98.6719 183.704 98.6719H167.442V90.1789H185.284V90.1809Z" fill="white"/>
</g>
<defs>
<clipPath id="clip0">
<rect width="236.271" height="236.271" fill="white"/>
</clipPath>
</defs>
</svg>
