<svg width="109" height="24" viewBox="0 0 109 24" fill="none" xmlns="http://www.w3.org/2000/svg">
<path d="M8.35659 18.312C12.8926 18.312 16.0606 14.784 16.0606 9.096C16.0606 3.408 12.8926 -1.43051e-06 8.35659 -1.43051e-06C3.82059 -1.43051e-06 0.676594 3.408 0.676594 9.096C0.676594 14.784 3.82059 18.312 8.35659 18.312ZM8.35659 15.888C5.42859 15.888 3.53259 13.224 3.53259 9.096C3.53259 4.944 5.42859 2.424 8.35659 2.424C11.2846 2.424 13.2046 4.944 13.2046 9.096C13.2046 13.224 11.2846 15.888 8.35659 15.888ZM23.3783 18.312C25.1783 18.312 26.4743 17.4 27.6743 16.008H27.7463L27.9623 18H30.2183V4.8H27.4583V13.968C26.3543 15.36 25.5143 15.936 24.2903 15.936C22.7303 15.936 22.0823 15.024 22.0823 12.768V4.8H19.3223V13.104C19.3223 16.464 20.5463 18.312 23.3783 18.312ZM34.3732 18H37.1332V9.768C37.9492 7.68 39.2452 6.936 40.3252 6.936C40.8532 6.936 41.1892 7.008 41.6452 7.152L42.1492 4.752C41.7412 4.56 41.3092 4.464 40.6612 4.464C39.2452 4.464 37.8532 5.472 36.9172 7.176H36.8452L36.6292 4.8H34.3732V18ZM54.8641 18.312C58.7281 18.312 61.0801 16.008 61.0801 13.176C61.0801 10.584 59.5681 9.288 57.4801 8.4L55.0561 7.368C53.6161 6.792 52.2001 6.216 52.2001 4.68C52.2001 3.288 53.3761 2.424 55.1761 2.424C56.7361 2.424 57.9601 3.024 59.0641 4.008L60.5281 2.232C59.1841 0.863999 57.2401 -1.43051e-06 55.1761 -1.43051e-06C51.8161 -1.43051e-06 49.3681 2.088 49.3681 4.872C49.3681 7.44 51.2641 8.784 52.9681 9.504L55.4161 10.56C57.0481 11.28 58.2481 11.784 58.2481 13.392C58.2481 14.88 57.0481 15.888 54.9121 15.888C53.2081 15.888 51.4801 15.072 50.2081 13.8L48.5761 15.72C50.1841 17.352 52.4401 18.312 54.8641 18.312ZM67.946 18.312C68.906 18.312 69.794 18.072 70.538 17.832L70.034 15.792C69.65 15.96 69.074 16.104 68.618 16.104C67.25 16.104 66.698 15.288 66.698 13.704V7.008H70.13V4.8H66.698V1.152H64.394L64.082 4.8L62.018 4.944V7.008H63.938V13.68C63.938 16.464 64.97 18.312 67.946 18.312ZM77.9032 18.312C81.1672 18.312 84.1192 15.792 84.1192 11.4C84.1192 7.008 81.1672 4.464 77.9032 4.464C74.6392 4.464 71.6872 7.008 71.6872 11.4C71.6872 15.792 74.6392 18.312 77.9032 18.312ZM77.9032 16.056C75.8392 16.056 74.5432 14.208 74.5432 11.4C74.5432 8.616 75.8392 6.744 77.9032 6.744C79.9912 6.744 81.2872 8.616 81.2872 11.4C81.2872 14.208 79.9912 16.056 77.9032 16.056ZM87.3653 18H90.1253V9.768C90.9413 7.68 92.2373 6.936 93.3173 6.936C93.8453 6.936 94.1813 7.008 94.6373 7.152L95.1413 4.752C94.7333 4.56 94.3013 4.464 93.6533 4.464C92.2373 4.464 90.8453 5.472 89.9093 7.176H89.8373L89.6213 4.8H87.3653V18ZM98.3247 23.52C101.109 23.52 102.501 21.624 103.533 18.792L108.381 4.8H105.693L103.581 11.592C103.245 12.792 102.885 14.112 102.549 15.312H102.429C102.021 14.088 101.613 12.768 101.229 11.592L98.7807 4.8H95.9487L101.181 17.904L100.917 18.816C100.437 20.232 99.5967 21.288 98.1567 21.288C97.8207 21.288 97.4367 21.168 97.1967 21.096L96.6687 23.256C97.1247 23.424 97.6527 23.52 98.3247 23.52Z" fill="white"/>
</svg>
