<svg width="441" height="46" viewBox="0 0 441 46" fill="none" xmlns="http://www.w3.org/2000/svg">
<path d="M39.08 14.312C38.696 18.68 38.168 22.76 37.304 26.408C36.392 22.904 35.816 19.304 35.384 15.944C35.576 15.416 35.72 14.888 35.864 14.312H39.08ZM19.208 28.136C20.504 29.096 21.848 30.2 22.568 30.968L24.536 28.616V31.4C22.52 32.408 20.648 33.32 19.064 33.992C19.16 32.456 19.208 30.968 19.208 29.672V28.136ZM24.536 23.72V27.272C23.48 26.456 22.04 25.544 20.744 24.776L19.208 26.408V23.72H24.536ZM20.504 9.56H23.336V13.784H20.504V9.56ZM45.416 14.312V9.368H37.016C37.544 6.728 37.976 3.944 38.312 1.16L33.464 0.439999C32.936 6.296 31.976 12.008 30.296 16.568V13.784H27.8V9.56H29.96V5.288H27.8V0.967998H23.336V5.288H20.504V0.967998H16.04V5.288H13.688V9.56H16.04V13.784H13.16V9.416H10.136V0.391999H5.24V9.416H0.824V14.696H5.24V23.144C3.32 23.672 1.592 24.152 0.104 24.488L1.352 29.912L5.24 28.76V39.416C5.24 40.04 5 40.232 4.472 40.232C3.944 40.232 2.312 40.232 0.68 40.184C1.304 41.624 1.928 43.832 2.12 45.176C4.952 45.176 6.968 44.984 8.312 44.12C9.656 43.304 10.136 41.912 10.136 39.464V27.272C11.48 26.888 12.728 26.456 14.024 26.024L13.256 20.984L10.136 21.8V14.696H13.112V18.2H29.624C29.384 18.728 29.096 19.304 28.808 19.784H14.6V29.624C14.6 33.8 14.36 39.128 11.72 42.92C12.728 43.448 14.84 44.888 15.656 45.704C17.432 43.064 18.344 39.656 18.824 36.296L19.832 38.552C21.368 37.544 22.904 36.488 24.536 35.432V40.136C24.536 40.568 24.44 40.664 24.008 40.664C23.624 40.712 22.568 40.712 21.608 40.664C22.088 41.768 22.664 43.448 22.904 44.648C24.968 44.648 26.504 44.552 27.656 43.928C28.904 43.208 29.192 42.152 29.192 40.184V21.416C30.056 22.568 31.064 24.056 31.448 24.92C31.832 24.344 32.216 23.72 32.552 23.096C33.128 26.456 33.944 29.96 35.048 33.272C33.608 36.488 31.688 39.224 29.144 41.432C30.056 42.296 31.592 44.216 32.12 45.128C34.136 43.208 35.864 41.048 37.304 38.552C38.648 41.144 40.328 43.4 42.344 45.224C43.064 43.928 44.696 41.864 45.656 40.952C43.112 38.984 41.24 36.296 39.752 33.224C41.72 27.848 42.824 21.56 43.496 14.312H45.416ZM56.648 18.776C63.512 17.624 67.544 15.8 70.04 13.064C75.128 14.84 80.792 17.048 84.584 18.776H56.648ZM68.984 35.624H59.192V31.16H68.984V35.624ZM92.84 18.776H85.976L89.72 15.224C85.736 13.544 79.496 11.192 73.976 9.368H90.248V4.424H73.544C73.736 3.128 73.88 1.784 73.976 0.295998H68.072C67.976 1.832 67.88 3.176 67.64 4.424H51.752V9.368H65.864C63.752 12.2 59.72 13.832 51.224 14.744C51.992 15.752 53.048 17.432 53.576 18.776H49.352V23.864H80.936V38.984C80.936 39.704 80.648 39.896 79.688 39.992C79.016 39.992 76.76 39.992 74.408 39.944V26.744H53.768V43.016H59.192V40.04H72.584C73.4 41.528 74.264 43.64 74.6 45.176C78.728 45.176 81.8 45.128 83.96 44.312C86.168 43.448 86.888 42.008 86.888 39.128V23.864H92.84V18.776ZM126.536 11.336H132.2V8.312H140.312V3.272H132.2V0.343997H126.536V3.272H119.864V8.312H126.536V11.336ZM106.088 11.336H111.752V8.312H118.232V3.272H111.752V0.343997H106.088V3.272H97.64V8.312H106.088V11.336ZM104.744 18.728C103.688 23.288 101.24 27.176 97.688 29.672C98.888 30.296 101.048 31.928 102.008 32.792C103.784 31.256 105.464 29.384 106.808 27.128C108.056 28.472 109.208 29.816 109.832 30.776L113.96 28.04C112.856 26.6 110.648 24.44 108.92 22.76C109.256 21.752 109.592 20.744 109.88 19.64L104.744 18.728ZM140.024 29.048C138.488 27.272 135.464 24.728 133.112 22.712C133.448 21.704 133.736 20.648 133.928 19.544L128.648 18.728C127.88 22.568 126.2 26.12 123.704 28.472C122.984 27.608 122.36 26.696 121.784 25.736V18.392H140.072V13.4H121.784V10.088H116.12V13.4H97.976V18.392H116.12V24.92C112.328 31.592 104.984 37.208 96.344 39.752C97.64 40.952 99.32 43.208 100.184 44.648C106.472 42.392 111.944 38.504 116.12 33.464V45.176H121.784V33.608C125.96 38.552 131.432 42.296 137.96 44.456C138.728 42.92 140.408 40.568 141.704 39.464C134.408 37.592 128.168 33.752 123.992 28.856C125.384 29.384 127.496 30.296 128.504 30.872C129.416 29.912 130.28 28.712 131.048 27.32C133.016 29.144 134.888 31.016 135.992 32.36L140.024 29.048ZM171.224 32.936H177.08V37.688H171.224V32.936ZM177.08 18.728H171.224V14.072H177.08V18.728ZM177.08 28.136H171.224V23.528H177.08V28.136ZM155.336 7.736V18.344H150.584C151.16 14.984 151.736 11.144 152.216 7.736H155.336ZM189.176 37.688H182.312V32.936H187.88V28.136H182.312V23.528H187.88V18.728H182.312V14.072H188.888V8.936H180.776L183.608 8.024C183.176 6.056 182.12 3.176 180.92 0.919998L175.88 2.408C176.792 4.424 177.704 6.968 178.136 8.936H171.368C172.376 6.488 173.24 3.992 173.96 1.496L169.016 0.199999C167.384 6.392 164.6 12.68 161.24 16.712C161.624 17.096 162.104 17.72 162.584 18.344H160.376V7.736H163.16V2.6H145.064V7.736H147.512C146.792 13.064 145.736 19.544 144.776 23.624H151.784C149.816 28.52 146.792 33.512 143.72 36.344C144.872 37.256 146.552 38.984 147.368 40.136C150.344 36.92 153.224 31.784 155.336 26.408V38.888C155.336 39.608 155.048 39.8 154.376 39.8C153.656 39.848 151.496 39.848 149.288 39.752C149.912 41.24 150.632 43.592 150.824 45.032C154.232 45.032 156.68 44.84 158.264 44.024C159.896 43.112 160.376 41.72 160.376 38.936V23.624H163.064V18.968C163.688 19.88 164.264 20.744 164.6 21.272C165.08 20.648 165.608 19.928 166.088 19.208V45.032H171.224V42.872H189.176V37.688ZM202.376 18.488C202.424 16.664 202.472 14.84 202.52 12.92H210.632C210.344 13.256 210.056 13.544 209.768 13.832C210.968 14.504 213.176 15.944 214.136 16.856C215.528 15.224 216.872 13.208 218.168 11H236.888V5.864H220.616C221.192 4.424 221.72 2.984 222.152 1.496L217.064 0.343997C215.912 4.424 213.992 8.456 211.688 11.576V7.688H203.768L206.696 6.632C205.976 4.904 204.44 2.072 203.144 0.103997L198.056 1.736C199.112 3.56 200.264 5.912 200.984 7.688H192.728V12.92H197.192C197.048 25.16 196.76 34.952 192.056 41.096C193.4 41.96 195.128 43.832 195.944 45.128C200.024 39.944 201.56 32.552 202.136 23.624H205.688C205.496 33.944 205.208 37.736 204.632 38.648C204.248 39.224 203.912 39.368 203.288 39.368C202.52 39.368 201.176 39.368 199.64 39.224C200.36 40.568 200.984 42.68 201.032 44.216C203 44.264 204.872 44.264 206.072 44.024C207.416 43.784 208.376 43.304 209.288 42.008C210.488 40.376 210.728 35.048 210.968 20.696C211.016 20.024 211.016 18.488 211.016 18.488H202.376ZM237.608 42.344C236.072 39.512 232.76 34.808 230.264 31.4L226.28 33.464C226.568 32.648 226.856 31.832 227.048 31.016H236.984V25.928H227.72V25.4V20.984H235.352V15.992H222.728C223.16 14.984 223.592 13.976 223.928 12.92L218.792 11.72C217.544 15.704 215.288 19.688 212.504 22.232C213.704 22.904 215.912 24.344 216.872 25.208C217.976 24.008 219.128 22.616 220.136 20.984H222.152V25.304V25.928H212.936V31.016H221.384C220.28 34.568 217.592 38.36 211.064 41.384C212.36 42.344 214.04 44.12 214.856 45.272C221.096 42.008 224.456 37.928 226.088 33.848C228.584 37.448 231.608 42.2 233 45.08L237.608 42.344ZM264.275 32.552V37.928H258.803V32.552H264.275ZM269.171 27.992H253.955V44.552H258.803V42.536H269.171V27.992ZM253.907 25.688H269.315V21.368H253.907V25.688ZM253.907 19.256H269.411V14.936H253.907V19.256ZM264.947 6.536C264.179 4.76 262.739 2.12 261.443 0.151999L256.979 2.216C258.035 4.04 259.331 6.44 260.099 8.264H251.795V12.776H270.659L270.707 8.264H261.827L264.947 6.536ZM296.243 3.992H271.619L271.667 9.56H284.243V37.64C284.243 38.552 283.859 38.84 282.851 38.888C281.843 38.888 278.051 38.936 274.835 38.744C275.747 40.232 276.803 42.968 277.091 44.648C281.747 44.648 285.011 44.552 287.171 43.592C289.331 42.632 290.099 41 290.099 37.736V9.56H296.291L296.243 3.992ZM311.075 15.128C311.027 18.824 310.691 23.192 309.203 27.608C308.147 26.696 307.043 25.736 306.035 24.824C306.707 21.992 307.379 18.68 307.955 15.32L311.075 15.128ZM318.275 14.6V9.848L316.259 9.944V7.112H311.075V10.184L308.819 10.328C309.299 7.112 309.731 3.848 310.019 0.919998L304.643 0.631999C304.451 3.704 304.019 7.16 303.539 10.568L299.315 10.76L299.843 15.848L302.675 15.656C302.003 19.688 301.139 23.432 300.323 26.408C302.339 28.232 304.739 30.488 307.043 32.648C305.267 35.768 302.723 38.696 299.171 41.288C300.371 42.104 302.243 44.024 303.011 45.224C306.515 42.632 309.059 39.704 310.979 36.632C312.227 37.88 313.331 39.128 314.099 40.184L317.651 35.768C316.595 34.52 315.155 33.08 313.523 31.496C315.779 25.64 316.211 19.688 316.259 14.744L318.275 14.6ZM335.795 29.912V32.456H324.947V29.912H335.795ZM324.947 39.032V36.44H335.795V39.032H324.947ZM319.715 45.224H324.947V43.592H335.795V45.08H341.315V25.352H319.715V45.224ZM324.659 9.896V6.872C326.243 6.776 327.827 6.632 329.411 6.488C329.555 7.592 329.747 8.792 329.987 9.896H324.659ZM343.667 14.36V9.896H335.123C334.835 8.6 334.643 7.256 334.451 5.816C337.187 5.432 339.683 4.904 341.939 4.328L338.387 0.391999C333.731 1.688 326.051 2.6 319.331 2.984V17.576C319.331 19.496 317.987 20.168 316.979 20.504C317.651 21.464 318.419 23.528 318.611 24.728C319.763 24.104 321.539 23.624 331.475 21.848C331.235 20.696 331.043 18.632 331.043 17.192L324.659 18.2V14.36H331.043C332.867 20.6 335.891 24.92 340.259 24.968C342.083 25.016 343.763 23.528 344.771 18.728C343.811 18.248 342.131 16.952 341.267 15.944C341.027 18.2 340.643 19.352 340.067 19.352C338.723 19.304 337.427 17.432 336.323 14.36H343.667ZM361.139 4.856V8.552H372.851V10.328H362.723V13.928H372.851V15.848H359.795V19.736H392.003V15.848H378.419V13.928H389.075V10.328H378.419V8.552H390.659V4.856H384.419C385.187 3.944 386.003 2.888 386.819 1.736L381.251 0.247998C380.723 1.544 379.763 3.464 378.851 4.856H372.803C372.131 3.464 370.931 1.592 369.731 0.295998L365.219 1.88C365.891 2.792 366.611 3.848 367.187 4.856H361.139ZM357.011 0.439999C354.659 7.064 350.723 13.688 346.643 17.864C347.507 19.256 348.995 22.184 349.475 23.48C350.435 22.472 351.347 21.368 352.259 20.168V45.128H357.635V11.72C359.315 8.6 360.851 5.288 362.051 2.024L357.011 0.439999ZM386.483 31.352C385.715 32.456 384.803 33.464 383.747 34.472C383.459 33.416 383.219 32.312 382.979 31.112H392.387V27.272H387.779L391.283 24.68C390.131 23.432 387.731 21.56 385.907 20.312L382.547 22.76C384.419 24.056 386.579 25.928 387.683 27.272H382.403C382.211 25.256 382.067 23.048 382.067 20.792H377.075C377.123 23.048 377.267 25.208 377.507 27.272H371.267V24.536C372.995 24.248 374.627 23.912 376.067 23.528L373.235 20.216C369.923 21.176 364.307 21.896 359.507 22.232C359.987 23.192 360.467 24.632 360.611 25.544C362.435 25.496 364.355 25.352 366.323 25.16V27.272H359.363V31.112H366.323V33.56C363.587 33.8 361.091 34.04 359.027 34.184L359.411 38.36L366.323 37.64V40.28C366.323 40.808 366.131 40.952 365.555 41C365.027 41.048 363.155 41.048 361.571 40.952C362.147 42.104 362.771 43.832 362.915 45.032C365.795 45.032 367.811 45.032 369.347 44.36C370.835 43.688 371.267 42.68 371.267 40.424V37.112L376.451 36.536L376.355 32.6L371.267 33.08V31.112H378.035C378.467 33.512 378.995 35.672 379.715 37.544C377.603 38.888 375.251 40.04 372.899 40.952C373.859 41.768 375.395 43.64 376.067 44.552C377.939 43.688 379.811 42.68 381.635 41.48C383.219 43.88 385.187 45.272 387.635 45.272C390.803 45.224 392.147 44.072 392.819 39.416C391.667 39.032 390.227 38.264 389.267 37.304C389.075 39.704 388.787 40.568 388.019 40.568C387.107 40.568 386.243 39.848 385.475 38.6C387.539 36.872 389.411 34.952 390.851 32.84L386.483 31.352ZM411.203 25.064H418.883V19.544H398.291V25.064H405.539V36.632C402.083 37.208 398.915 37.688 396.467 38.072L398.051 43.832C404.243 42.488 412.691 40.76 420.563 39.032L420.131 33.944C417.203 34.52 414.131 35.096 411.203 35.624V25.064ZM439.379 14.072V8.504H434.867L438.131 5.672C436.835 4.088 434.003 1.832 431.843 0.343997L428.051 3.464C429.971 4.904 432.371 6.872 433.667 8.504H426.083C425.987 5.912 425.987 3.224 426.035 0.583997H419.891C419.891 3.224 419.939 5.912 420.035 8.504H396.467V14.072H420.323C421.475 30.968 425.075 45.176 433.283 45.176C437.843 45.176 439.763 42.968 440.627 33.896C439.043 33.272 436.931 31.88 435.635 30.536C435.395 36.632 434.819 39.176 433.811 39.176C430.307 39.176 427.379 28.088 426.371 14.072H439.379Z" fill="white"/>
</svg>
