<svg width="477" height="73" viewBox="0 0 477 73" fill="none" xmlns="http://www.w3.org/2000/svg">
<path d="M6.146 41.098H12.25V39.754H6.174C6.342 39.516 6.496 39.278 6.65 39.026H13.524V37.598H7.406C7.574 37.248 7.714 36.898 7.854 36.562L6.258 36.128C5.768 37.598 4.872 39.054 3.864 39.964C4.228 40.188 4.886 40.692 5.194 40.986C5.516 40.636 5.838 40.244 6.146 39.796V41.098ZM4.536 37.71C3.99 37.304 2.898 36.73 2.142 36.38L1.218 37.584C1.988 38.004 3.066 38.634 3.57 39.068L4.536 37.71ZM3.752 41.364C3.164 41 2.03 40.44 1.274 40.132L0.392 41.364C1.176 41.77 2.282 42.372 2.814 42.75L3.752 41.364ZM2.31 48.952C3.066 47.622 3.878 46.068 4.536 44.64L3.276 43.562C2.52 45.144 1.54 46.838 0.854 47.874L2.31 48.952ZM4.788 41.868V43.324H10.402C10.458 46.922 10.696 49.232 12.362 49.246C13.328 49.232 13.594 48.504 13.706 46.922C13.398 46.67 13.006 46.25 12.726 45.886C12.712 46.922 12.656 47.678 12.488 47.678C11.998 47.678 11.984 45.284 12.012 41.868H4.788ZM17.654 43.758V42.904H20.09V43.758H17.654ZM17.654 40.804H20.09V41.658H17.654V40.804ZM24.248 40.804V41.658H21.798V40.804H24.248ZM24.248 43.758H21.798V42.904H24.248V43.758ZM27.384 45.844H21.798V45.088H25.928V39.474H21.798V38.802H26.978V37.29H21.798V36.156H20.09V37.29H15.008V38.802H20.09V39.474H16.058V45.088H20.09V45.844H14.672V47.342H20.09V49.232H21.798V47.342H27.384V45.844ZM3.96 60.312C3.444 59.976 2.424 59.436 1.728 59.1L1.104 59.892C1.812 60.288 2.808 60.864 3.3 61.212L3.96 60.312ZM3.348 63.528C2.844 63.204 1.824 62.676 1.14 62.34L0.528 63.168C1.248 63.54 2.244 64.116 2.736 64.452L3.348 63.528ZM1.704 69.792C2.412 68.676 3.216 67.236 3.828 66L3.024 65.256C2.328 66.612 1.404 68.148 0.768 69.048L1.704 69.792ZM9.708 68.424H5.736V66.264H9.708V68.424ZM11.472 63.48V62.412H8.292V60.528C9.288 60.348 10.224 60.12 10.992 59.832L10.116 58.968C8.796 59.46 6.468 59.844 4.416 60.06C4.548 60.312 4.692 60.732 4.74 60.996C5.532 60.936 6.396 60.84 7.236 60.708V62.412H3.9V63.48H7.236V65.256H4.716V69.936H5.736V69.432H9.708V69.876H10.764V65.256H8.292V63.48H11.472ZM16.032 67.464H18.288V66.648H16.032V66.036H18.264V62.424H16.032V61.8H18.408V62.7H19.68C19.584 64.884 19.284 66.696 18.3 68.052C17.544 68.136 16.776 68.208 16.032 68.28V67.464ZM13.776 65.304V64.572H15.012V65.304H13.776ZM17.316 64.572V65.304H16.032V64.572H17.316ZM16.032 63.888V63.156H17.316V63.888H16.032ZM13.776 63.156H15.012V63.888H13.776V63.156ZM20.772 61.668C20.784 60.852 20.796 59.988 20.796 59.1H19.728C19.728 60 19.728 60.852 19.716 61.668H18.456V60.972H16.032V60.204C16.86 60.12 17.652 60 18.288 59.868L17.76 59.028C16.512 59.304 14.388 59.52 12.612 59.616C12.72 59.832 12.84 60.192 12.876 60.42C13.548 60.396 14.28 60.36 15.012 60.3V60.972H12.54V61.8H15.012V62.424H12.864V66.036H15.012V66.648H12.828V67.464H15.012V68.376C14.064 68.46 13.2 68.532 12.504 68.58L12.648 69.528C13.932 69.408 15.66 69.228 17.388 69.024C17.316 69.084 17.244 69.144 17.172 69.192C17.436 69.372 17.808 69.768 17.976 70.02C20.04 68.436 20.58 65.892 20.736 62.7H22.152C22.056 66.828 21.936 68.352 21.672 68.688C21.552 68.844 21.444 68.88 21.24 68.88C21.024 68.88 20.532 68.88 19.98 68.832C20.148 69.132 20.268 69.588 20.292 69.888C20.856 69.924 21.408 69.924 21.768 69.876C22.14 69.816 22.392 69.72 22.62 69.36C23.004 68.844 23.112 67.14 23.244 62.184C23.244 62.052 23.256 61.668 23.256 61.668H20.772ZM27.06 65.832V62.808H28.272V61.752H27.06V59.088H26.016V61.752H24.648V62.808H26.016V66.264C25.404 66.516 24.852 66.732 24.42 66.888L24.864 68.004C25.908 67.536 27.252 66.912 28.512 66.312L28.248 65.328L27.06 65.832ZM31.08 68.7C30.312 68.7 30.18 68.568 30.18 67.896V63.96L31.524 63.384V67.248H32.568V62.94L33.84 62.388C33.78 63.852 33.648 65.52 33.468 66.552L34.38 66.804C34.68 65.436 34.86 63.24 34.956 61.572L35.004 61.392L34.176 61.116L32.568 61.8V58.944H31.524V62.244L30.18 62.808V60.072H29.124V63.252L27.876 63.78L28.296 64.776L29.124 64.416V67.884C29.124 69.324 29.544 69.696 31.02 69.696H33.78C35.076 69.696 35.412 69.156 35.568 67.5C35.268 67.44 34.836 67.26 34.584 67.092C34.488 68.4 34.368 68.7 33.708 68.7H31.08ZM40.536 65.376L39.144 65.904V62.808H40.632V61.752H39.144V59.1H38.112V61.752H36.552V62.808H38.112V66.288C37.476 66.528 36.9 66.732 36.432 66.888L36.84 67.992C37.944 67.548 39.396 66.936 40.74 66.348L40.536 65.376ZM44.88 68.448V64.056H47.328V62.988H44.88V59.028H43.764V68.448H42.228V61.548H41.136V68.448H39.768V69.516H47.532V68.448H44.88ZM54 62.616C54.552 62.616 55.008 62.208 55.008 61.62C55.008 61.032 54.552 60.612 54 60.612C53.448 60.612 52.992 61.032 52.992 61.62C52.992 62.208 53.448 62.616 54 62.616ZM54 68.424C54.552 68.424 55.008 68.016 55.008 67.44C55.008 66.84 54.552 66.432 54 66.432C53.448 66.432 52.992 66.84 52.992 67.44C52.992 68.016 53.448 68.424 54 68.424ZM63.504 62.196C62.82 63.66 61.644 65.088 60.408 65.976C60.672 66.168 61.116 66.552 61.332 66.768C61.74 66.42 62.172 66.012 62.568 65.556V69.948H63.672V64.128C64.02 63.624 64.344 63.084 64.62 62.532L63.504 62.196ZM64.608 58.944H63.516V60.072H60.732V61.128H63.516V62.196H64.608V61.128H65.784V60.072H64.608V58.944ZM67.428 62.244H68.544V61.116H71.244V60.072H68.544V58.944H67.428V60.072H66.204V61.116H67.428V62.244ZM67.98 68.76C67.416 68.76 67.32 68.664 67.32 68.16V65.292H71.232V64.236H67.32V62.364H66.216V68.16C66.216 69.444 66.564 69.792 67.848 69.792H69.9C71.064 69.792 71.364 69.24 71.496 67.404C71.196 67.32 70.74 67.14 70.488 66.948C70.416 68.448 70.332 68.76 69.804 68.76H67.98ZM81.648 63.744V64.392H80.016V63.744H81.648ZM81.648 65.736H80.016V65.064H81.648V65.736ZM77.412 65.736V65.064H79.02V65.736H77.412ZM77.412 63.744H79.02V64.392H77.412V63.744ZM79.92 61.104H79.02V61.716H76.008V62.508H79.02V63.048H76.488V66.432H79.02V66.984H75.9V67.812H79.02V68.58H80.016V67.812H83.22V66.984H80.016V66.432H82.632V63.048H80.016V62.508H83.028V61.716H80.016V61.128H81.024V60.504H83.292V59.628H81.024V58.92H79.92V59.628H78.228V60.504H79.92V61.104ZM75.036 61.272H76.128V60.504H77.736V59.628H76.128V58.92H75.036V59.628H72.744V60.504H75.036V61.272ZM73.272 61.392C73.668 61.824 74.16 62.436 74.4 62.82L75.336 62.364C75.096 62.016 74.616 61.452 74.184 61.02L73.272 61.392ZM75.372 65.4L75.192 65.436H74.256C74.868 64.764 75.6 63.852 76.032 63.3L75.324 62.94L75.132 63.024H72.804V63.924H74.4C73.98 64.452 73.512 65.028 73.296 65.22C73.068 65.424 72.876 65.508 72.708 65.556C72.816 65.748 73.02 66.24 73.08 66.492C73.176 66.396 73.512 66.312 73.8 66.312H74.664C74.196 67.584 73.368 68.568 72.348 69.132C72.54 69.288 72.864 69.72 72.972 69.96C73.632 69.576 74.232 69.012 74.736 68.292C75.648 69.612 77.052 69.852 79.344 69.852C80.628 69.852 82.092 69.816 83.22 69.756C83.28 69.456 83.412 68.964 83.568 68.736C82.344 68.856 80.568 68.916 79.356 68.916C77.328 68.904 75.936 68.736 75.204 67.512C75.48 66.972 75.72 66.36 75.876 65.676L75.372 65.4ZM93.432 58.8C92.568 59.436 91.056 60.06 89.7 60.492C89.832 60.708 89.988 61.068 90.048 61.284C91.464 60.888 93.06 60.324 94.176 59.628L93.432 58.8ZM85.38 66.504C85.152 67.308 84.792 68.208 84.408 68.808C84.624 68.904 85.02 69.132 85.2 69.264C85.584 68.616 86.004 67.62 86.268 66.72L85.38 66.504ZM85.98 64.428H88.356V65.148H85.98V64.428ZM88.356 60.168V60.912H85.98V60.168H88.356ZM85.98 63.048H88.356V63.708H85.98V63.048ZM88.356 62.34H85.98V61.632H88.356V62.34ZM89.796 66.036V65.148H89.304V59.34H85.068V65.148H84.552V66.036H86.772V69.852H87.708V66.036H89.796ZM88.08 66.756C88.404 67.332 88.752 68.1 88.896 68.592L89.676 68.232C89.52 67.74 89.16 66.996 88.824 66.432L88.08 66.756ZM90.66 66.24C90.432 67.068 89.988 68.136 89.46 68.844C89.676 68.952 90.036 69.18 90.228 69.324C90.792 68.568 91.284 67.428 91.62 66.48L90.66 66.24ZM94.488 65.616C94.584 65.82 94.656 66 94.716 66.168L95.52 65.748C95.28 65.124 94.716 64.116 94.224 63.384L93.468 63.744C93.672 64.056 93.876 64.428 94.08 64.8L91.74 64.92C92.88 64.056 94.02 63.012 95.04 61.872L94.272 61.332C94.008 61.644 93.72 61.956 93.444 62.256L91.788 62.34C92.352 61.956 92.916 61.476 93.432 60.984L92.604 60.564C91.944 61.332 90.984 62.028 90.684 62.22C90.408 62.4 90.18 62.52 89.964 62.556C90.072 62.784 90.192 63.216 90.228 63.408C90.444 63.324 90.768 63.264 92.556 63.132C91.884 63.78 91.272 64.284 90.984 64.488C90.528 64.836 90.18 65.076 89.88 65.112C89.988 65.364 90.12 65.82 90.168 66.012C90.384 65.928 90.672 65.88 92.064 65.772V69.06C92.064 69.168 92.04 69.204 91.92 69.204H91.14C91.236 69.408 91.356 69.684 91.404 69.924C91.968 69.924 92.364 69.912 92.652 69.792C92.94 69.684 93.012 69.504 93.012 69.084V65.724L94.488 65.616ZM93.36 66.504C93.804 67.32 94.332 68.448 94.572 69.108L95.448 68.688C95.196 68.064 94.632 66.972 94.188 66.144L93.36 66.504ZM104.808 66.384V68.472H99.252V66.384H104.808ZM98.1 70.008H99.252V69.504H104.808V70.008H106.02V65.376H98.1V70.008ZM107.208 61.572V60.516H102.564V58.944H101.4V60.516H96.792V61.572H101.4V63.12H97.548V64.176H106.56V63.12H102.564V61.572H107.208ZM110.22 61.308H117.744V62.784H118.932V60.264H114.864C114.684 59.844 114.396 59.28 114.168 58.836L112.944 59.136C113.1 59.472 113.292 59.904 113.448 60.264H109.092V62.784H110.22V61.308ZM115.548 64.752C115.284 65.544 114.924 66.192 114.42 66.72C113.628 66.408 112.812 66.12 112.032 65.856C112.248 65.52 112.464 65.148 112.692 64.752H115.548ZM119.22 64.752V63.696H117.168C117.24 63.372 117.3 63.024 117.36 62.664L116.004 62.556C115.956 62.964 115.896 63.348 115.824 63.696H113.268C113.568 63.108 113.844 62.508 114.06 61.944L112.788 61.716C112.56 62.34 112.248 63.024 111.888 63.696H108.816V64.752H111.288C110.94 65.352 110.568 65.904 110.244 66.36C111.252 66.684 112.368 67.08 113.46 67.524C112.356 68.232 110.856 68.628 108.876 68.856C109.116 69.144 109.464 69.684 109.572 69.972C111.828 69.624 113.508 69.06 114.732 68.076C116.148 68.7 117.42 69.372 118.26 69.948L119.1 68.964C118.224 68.412 116.964 67.788 115.608 67.212C116.16 66.54 116.568 65.736 116.88 64.752H119.22ZM123.336 63.972C123.288 64.332 123.228 64.68 123.156 65.016L121.968 65.16C122.772 64.116 123.564 62.772 124.188 61.488L123.276 61.116C123.12 61.476 122.94 61.848 122.772 62.208L121.836 62.28C122.34 61.44 122.856 60.384 123.228 59.34L122.184 59.088C121.884 60.264 121.272 61.5 121.08 61.824C120.9 62.148 120.732 62.388 120.54 62.424C120.66 62.676 120.816 63.168 120.876 63.372C121.032 63.3 121.284 63.228 122.28 63.12C121.86 63.852 121.488 64.44 121.308 64.668C121.008 65.088 120.768 65.376 120.516 65.424C120.624 65.676 120.78 66.132 120.828 66.324C121.032 66.216 121.332 66.156 122.916 65.904C122.46 67.308 121.692 68.364 120.504 69.048C120.696 69.228 120.996 69.612 121.092 69.804C122.916 68.628 123.864 66.768 124.248 64.08L123.336 63.972ZM126.624 61.092V62.412H125.28V61.092H126.624ZM125.28 64.572V63.312H126.624V64.572H125.28ZM125.928 66.228C126.12 66.672 126.312 67.176 126.48 67.668L125.28 68.04V65.52H127.524V60.144H126.612C126.444 59.772 126.168 59.304 125.88 58.944L125.016 59.268C125.184 59.532 125.376 59.844 125.532 60.144H124.308V67.896C124.308 68.376 123.996 68.604 123.768 68.7C123.912 68.88 124.08 69.264 124.14 69.48C124.344 69.336 124.68 69.204 126.744 68.508C126.852 68.844 126.912 69.156 126.96 69.408L127.908 69.048C127.74 68.244 127.26 66.936 126.804 65.928L125.928 66.228ZM130.812 59.484L130.644 59.532H128.04V69.924H128.976V60.516H130.296C130.044 61.452 129.696 62.7 129.36 63.648C130.188 64.692 130.404 65.556 130.404 66.264C130.404 66.684 130.344 67.032 130.152 67.164C130.056 67.248 129.924 67.284 129.78 67.296C129.6 67.296 129.372 67.296 129.12 67.272C129.276 67.548 129.348 67.992 129.348 68.268C129.648 68.28 129.948 68.28 130.176 68.256C130.44 68.22 130.668 68.136 130.86 68.004C131.196 67.728 131.364 67.152 131.352 66.396C131.352 65.58 131.148 64.644 130.308 63.54C130.704 62.472 131.16 61.068 131.52 59.94L130.812 59.484ZM140.808 66.384V68.472H135.252V66.384H140.808ZM134.1 70.008H135.252V69.504H140.808V70.008H142.02V65.376H134.1V70.008ZM143.208 61.572V60.516H138.564V58.944H137.4V60.516H132.792V61.572H137.4V63.12H133.548V64.176H142.56V63.12H138.564V61.572H143.208ZM147.984 67.236C147.216 67.86 145.776 68.64 144.648 69.084C144.864 69.312 145.14 69.696 145.284 69.924C146.448 69.432 147.9 68.652 148.908 67.944L147.984 67.236ZM151.056 67.932C152.304 68.52 153.612 69.3 154.404 69.852L155.124 69.012C154.308 68.472 152.928 67.728 151.68 67.152L151.056 67.932ZM149.628 63.228H150.36V64.584H149.628V63.228ZM149.124 65.268H150.876V62.544H149.124V65.268ZM149.004 61.116V61.848H150.936V61.116H149.004ZM148.692 60.384H151.26V66.108H148.692V60.384ZM154.476 66.108C154.584 64.26 154.668 61.548 154.692 59.448H152.424V60.372H153.708C153.708 60.816 153.696 61.284 153.696 61.752H152.484V62.652H153.672C153.66 63.084 153.648 63.516 153.636 63.936H152.4V64.836H153.588C153.576 65.28 153.552 65.724 153.528 66.108H152.1V59.52H147.888V66.108H146.472L146.436 64.812H147.6V63.912H146.412L146.364 62.628H147.552V61.728H146.34L146.304 60.444C146.82 60.324 147.36 60.168 147.84 60L147.336 59.052C146.808 59.316 146.004 59.592 145.332 59.796L145.512 66.108H144.6V67.14H155.376V66.108H154.476ZM162.708 65.592C163.296 65.244 163.86 64.812 164.364 64.32C164.844 64.788 165.396 65.232 166.02 65.592H162.708ZM163.008 68.532V66.54H165.684V68.532H163.008ZM161.148 64.764H159.744V63.18H161.04V62.64C161.292 62.832 161.64 63.12 161.808 63.3C162.12 62.976 162.444 62.592 162.732 62.172C162.996 62.628 163.296 63.096 163.68 63.552C162.924 64.296 162.048 64.872 161.148 65.256V64.764ZM158.052 60.372H160.008V62.22H158.052V60.372ZM165.396 61.068C165.12 61.704 164.76 62.292 164.328 62.82C163.896 62.316 163.56 61.8 163.284 61.284L163.392 61.068H165.396ZM166.068 60.072L165.876 60.12H163.836C163.968 59.82 164.088 59.508 164.196 59.196L163.116 58.932C162.696 60.312 161.94 61.608 161.04 62.484V59.412H157.08V63.18H158.748V67.86L157.956 68.04V64.188H157.044V68.232C156.84 68.268 156.648 68.304 156.468 68.34L156.66 69.42C157.956 69.12 159.696 68.7 161.34 68.28L161.232 67.296L159.744 67.644V65.748H161.148V65.736C161.268 65.904 161.388 66.084 161.46 66.228C161.64 66.156 161.808 66.072 161.988 65.988V69.912H163.008V69.492H165.684V69.876H166.752V65.976L166.992 66.072C167.136 65.796 167.46 65.352 167.676 65.148C166.656 64.788 165.792 64.236 165.06 63.576C165.804 62.688 166.404 61.62 166.776 60.372L166.068 60.072ZM169.512 60.072V61.212H178.512V60.072H169.512ZM170.292 63.924V65.064H177.576V63.924H170.292ZM168.828 68.016V69.144H179.148V68.016H168.828ZM187.392 60.348H188.856V62.292C188.856 63.216 189.036 63.6 189.972 63.6H190.764C191.016 63.6 191.268 63.6 191.412 63.54C191.376 63.3 191.352 62.928 191.34 62.664C191.184 62.712 190.92 62.736 190.764 62.736H190.068C189.912 62.736 189.876 62.628 189.876 62.304V59.388H186.36V60.828C186.36 61.692 186.216 62.712 185.052 63.48C185.256 63.624 185.676 63.996 185.832 64.2C187.128 63.324 187.392 61.956 187.392 60.852V60.348ZM185.208 66.312C184.272 66.456 183.336 66.588 182.472 66.696V65.196H185.016V64.212H182.472V62.76H185.028V61.788H182.472V60.708C183.492 60.42 184.596 60.072 185.448 59.676L184.572 58.836C183.804 59.244 182.544 59.724 181.428 60.048L181.392 60.036V66.84L180.42 66.972L180.588 68.028L181.392 67.896V69.732H182.472V67.728C183.36 67.584 184.32 67.428 185.256 67.272L185.208 66.312ZM189.408 65.244C189.12 66.012 188.712 66.66 188.196 67.2C187.644 66.636 187.2 65.976 186.9 65.244H189.408ZM190.056 64.26L189.852 64.296H185.568V65.244H186.552L185.964 65.4C186.324 66.336 186.816 67.164 187.428 67.86C186.66 68.412 185.748 68.796 184.728 69.036C184.944 69.264 185.208 69.696 185.304 69.996C186.396 69.672 187.38 69.228 188.22 68.592C188.952 69.18 189.816 69.648 190.824 69.924C190.98 69.636 191.292 69.192 191.52 68.976C190.56 68.76 189.708 68.388 189.012 67.884C189.804 67.032 190.392 65.928 190.74 64.5L190.056 64.26ZM193.632 65.556L195.372 62.892C195.624 62.436 195.864 61.98 196.08 61.524H196.128C196.104 62.016 196.068 62.76 196.068 63.24V65.556H193.632ZM196.068 69H197.364V66.624H198.48V65.556H197.364V60.156H195.756L192.24 65.7V66.624H196.068V69ZM200.644 62.904C200.644 61.752 201.244 61.068 202 61.068C202.96 61.068 203.62 61.86 203.752 63.6C203.248 64.356 202.624 64.68 202.072 64.68C201.148 64.68 200.644 64.032 200.644 62.904ZM201.76 69.156C203.464 69.156 205.048 67.764 205.048 64.284C205.048 61.356 203.68 60 201.988 60C200.56 60 199.36 61.152 199.36 62.904C199.36 64.752 200.356 65.676 201.832 65.676C202.504 65.676 203.26 65.28 203.776 64.644C203.692 67.164 202.768 68.028 201.7 68.028C201.148 68.028 200.608 67.764 200.26 67.368L199.504 68.22C200.02 68.748 200.74 69.156 201.76 69.156ZM206.72 69H211.76V67.86H210.032V60.156H208.988C208.484 60.48 207.896 60.684 207.068 60.84V61.716H208.652V67.86H206.72V69ZM216.251 61.86H214.403V60.228H216.251V61.86ZM217.115 59.412H213.587V62.664H217.115V59.412ZM214.727 65.496C214.799 65.172 214.871 64.812 214.943 64.464H217.379V63.492H213.023V64.464H213.995C213.875 65.136 213.695 65.844 213.551 66.372H215.927C215.819 67.968 215.675 68.604 215.495 68.796C215.399 68.892 215.291 68.916 215.123 68.916C214.943 68.916 214.511 68.904 214.067 68.868C214.223 69.12 214.319 69.516 214.343 69.792C214.823 69.828 215.291 69.828 215.555 69.792C215.879 69.756 216.095 69.672 216.287 69.444C216.611 69.108 216.755 68.172 216.911 65.904C216.923 65.76 216.935 65.496 216.935 65.496H214.727ZM219.611 65.784C219.539 67.392 219.347 68.556 218.267 69.228C218.483 69.372 218.759 69.732 218.867 69.96C220.187 69.12 220.451 67.728 220.535 65.784H219.611ZM221.387 64.452C221.135 64.452 221.099 64.332 221.099 64.044V63.744L222.551 63.6L222.455 62.832L221.099 62.964V62.16H223.019C222.947 62.592 222.875 63.024 222.803 63.336L223.631 63.54C223.787 62.988 223.979 62.124 224.111 61.392L223.427 61.224L223.271 61.272H221.219V60.576H223.571V59.676H221.219V58.932H220.163V61.272H217.835V64.296C217.835 65.832 217.739 67.896 216.803 69.372C217.019 69.48 217.463 69.78 217.619 69.96C218.639 68.376 218.807 65.976 218.807 64.308V62.16H220.151V63.06L219.023 63.168L219.131 63.948L220.151 63.84V64.02C220.151 64.872 220.343 65.28 221.207 65.28H222.563C222.851 65.28 223.187 65.268 223.367 65.196C223.331 64.944 223.307 64.668 223.283 64.38C223.127 64.44 222.731 64.452 222.527 64.452H221.387ZM222.599 68.736C222.503 68.736 222.419 68.712 222.383 68.676C222.323 68.64 222.311 68.568 222.311 68.496V65.796H221.387V68.532C221.387 69.132 221.423 69.312 221.615 69.492C221.795 69.66 222.083 69.72 222.347 69.72H222.995C223.223 69.72 223.487 69.66 223.643 69.576C223.811 69.48 223.931 69.324 224.015 69.084C224.087 68.88 224.135 68.292 224.147 67.728C223.883 67.644 223.535 67.452 223.355 67.284C223.367 67.812 223.343 68.256 223.319 68.448C223.295 68.556 223.235 68.64 223.187 68.676C223.139 68.724 223.019 68.736 222.911 68.736H222.599Z" fill="white"/>
<path d="M18.76 8.58H11.68L11.74 8.56C11.48 7.8 10.82 6.66 10.28 5.8L8 6.6C8.36 7.2 8.74 7.92 9.02 8.58H1.22V10.9H18.76V8.58ZM11.9 12.3C13.68 13.6 15.9 15.48 16.88 16.72L18.92 15.18C17.82 13.9 15.5 12.14 13.78 10.96L11.9 12.3ZM5.96 11.08C4.8 12.52 2.86 13.98 1.08 14.88C1.62 15.28 2.52 16.14 2.96 16.62C4.74 15.54 6.9 13.72 8.26 11.96L5.96 11.08ZM12.62 14.52C12.04 16.08 11.16 17.38 10.02 18.46C8.92 17.38 8.06 16.08 7.46 14.62L5.32 15.28C6.08 17.06 7.06 18.6 8.24 19.88C6.28 21.18 3.82 22.04 0.92 22.6C1.38 23.12 2.08 24.18 2.36 24.72C5.3 24 7.88 22.98 10 21.48C12.02 23 14.52 24.02 17.68 24.62C17.98 23.98 18.6 23 19.12 22.48C16.18 22.04 13.78 21.18 11.86 19.92C13.16 18.64 14.22 17.08 15.02 15.22L12.62 14.52ZM31.72 12.78V13.86H29.28V12.78H31.72ZM36.34 13.86H33.76V12.78H36.34V13.86ZM33.76 16.64V15.52H36.34V16.64H33.76ZM29.28 16.64V15.52H31.72V16.64H29.28ZM29.28 18.36H31.72V21.28H33.76V18.36H36.34V19.34C36.34 19.56 36.28 19.64 36.04 19.64C35.82 19.64 35.14 19.64 34.5 19.62C34.74 20.1 35 20.84 35.06 21.38C36.24 21.38 37.1 21.36 37.68 21.08C38.3 20.76 38.46 20.3 38.46 19.36V11.06H36.1C35.76 10.86 35.34 10.66 34.9 10.44C36.2 9.64 37.46 8.68 38.46 7.72L37.06 6.6L36.58 6.72H27.4V8.48H34.56C34.04 8.86 33.48 9.24 32.92 9.56C32.1 9.22 31.26 8.9 30.54 8.64L29.02 9.9C29.86 10.22 30.78 10.64 31.7 11.06H27.18V21.34H29.28V18.36ZM25.82 9.04C25.22 8.24 24.12 7 23.16 6.04L21.4 7.14C22.3 8.12 23.46 9.52 24.02 10.36L25.82 9.04ZM25.4 15.48L25.02 15.54H23.56C24.62 14.2 25.9 12.36 26.64 11.26L25.2 10.6L24.96 10.7H20.9V12.6H23.48C22.72 13.66 21.92 14.76 21.54 15.12C21.16 15.52 20.82 15.68 20.5 15.76C20.7 16.18 21.14 17.2 21.26 17.68C21.44 17.52 22.02 17.38 22.48 17.38H24.18C23.52 20.1 22.22 22.06 20.38 23.16C20.84 23.46 21.62 24.3 21.92 24.76C22.88 24.1 23.76 23.22 24.46 22.06C26 24.02 28.28 24.4 31.9 24.4C34.24 24.4 36.76 24.36 38.82 24.22C38.94 23.58 39.26 22.5 39.6 22.02C37.34 22.24 34.08 22.36 31.94 22.36C28.78 22.34 26.6 22.1 25.38 20.24C25.9 19 26.28 17.56 26.52 15.9L25.4 15.48Z" fill="white"/>
<line y1="31.75" x2="477" y2="31.75" stroke="white" stroke-width="0.5"/>
</svg>
