<svg width="478" height="295" viewBox="0 0 478 295" fill="none" xmlns="http://www.w3.org/2000/svg">
<path d="M3.864 53.196C5.782 53.196 7.49 51.866 7.49 49.556C7.49 47.302 6.034 46.266 4.298 46.266C3.822 46.266 3.472 46.364 3.052 46.56L3.248 44.362H7.014V42.626H1.47L1.19 47.666L2.128 48.282C2.73 47.89 3.066 47.736 3.682 47.736C4.732 47.736 5.432 48.408 5.432 49.612C5.432 50.83 4.676 51.516 3.598 51.516C2.632 51.516 1.904 51.04 1.316 50.466L0.364 51.782C1.134 52.552 2.226 53.196 3.864 53.196ZM15.686 48.422C15.742 47.834 15.77 47.246 15.784 46.714H21.398V48.422H15.686ZM21.398 43.424V45.132H15.784V43.424H21.398ZM23.162 41.8H14.062V46.406C14.062 48.534 13.866 51.208 11.752 53.014C12.116 53.252 12.788 53.868 13.04 54.218C14.342 53.126 15.042 51.6 15.406 50.032H21.398V52.062C21.398 52.356 21.286 52.468 20.95 52.468C20.642 52.468 19.466 52.482 18.486 52.426C18.752 52.888 19.088 53.686 19.186 54.176C20.628 54.176 21.608 54.148 22.28 53.854C22.924 53.574 23.162 53.098 23.162 52.09V41.8ZM29.1899 53H36.1339V51.264H33.8939C33.4039 51.264 32.7179 51.32 32.1999 51.376C34.0899 49.528 35.6439 47.512 35.6439 45.636C35.6439 43.704 34.3419 42.444 32.3819 42.444C30.9679 42.444 30.0439 42.99 29.0919 44.012L30.2119 45.132C30.7439 44.558 31.3599 44.068 32.1159 44.068C33.1099 44.068 33.6699 44.698 33.6699 45.748C33.6699 47.344 32.0039 49.29 29.1899 51.81V53ZM40.668 53.196C42.642 53.196 44.308 52.09 44.308 50.186C44.308 48.828 43.412 47.96 42.25 47.638V47.568C43.342 47.134 43.972 46.322 43.972 45.202C43.972 43.438 42.614 42.444 40.612 42.444C39.394 42.444 38.4 42.934 37.504 43.718L38.554 44.978C39.17 44.404 39.772 44.068 40.514 44.068C41.396 44.068 41.9 44.544 41.9 45.356C41.9 46.28 41.284 46.938 39.38 46.938V48.408C41.634 48.408 42.236 49.052 42.236 50.06C42.236 50.998 41.522 51.516 40.472 51.516C39.534 51.516 38.778 51.054 38.162 50.452L37.196 51.754C37.924 52.58 39.03 53.196 40.668 53.196ZM52.14 51.46V48.324H58.356V51.46H52.14ZM58.356 43.662V46.672H52.14V43.662H58.356ZM50.418 41.982V54.05H52.14V53.14H58.356V54.022H60.148V41.982H50.418ZM71.53 47.68C71.53 50.676 72.776 52.916 74.288 54.4L75.618 53.812C74.218 52.3 73.112 50.368 73.112 47.68C73.112 44.992 74.218 43.06 75.618 41.548L74.288 40.96C72.776 42.444 71.53 44.684 71.53 47.68ZM80.14 51.46V48.324H86.356V51.46H80.14ZM86.356 43.662V46.672H80.14V43.662H86.356ZM78.418 41.982V54.05H80.14V53.14H86.356V54.022H88.148V41.982H78.418ZM94.966 47.68C94.966 44.684 93.72 42.444 92.208 40.96L90.878 41.548C92.278 43.06 93.384 44.992 93.384 47.68C93.384 50.368 92.278 52.3 90.878 53.812L92.208 54.4C93.72 52.916 94.966 50.676 94.966 47.68ZM1.148 77H7.378V75.334H5.432V66.626H3.906C3.248 67.046 2.534 67.312 1.498 67.508V68.782H3.374V75.334H1.148V77ZM8.84614 77H15.7901V75.264H13.5501C13.0601 75.264 12.3741 75.32 11.8561 75.376C13.7461 73.528 15.3001 71.512 15.3001 69.636C15.3001 67.704 13.9981 66.444 12.0381 66.444C10.6241 66.444 9.70014 66.99 8.74814 68.012L9.86814 69.132C10.4001 68.558 11.0161 68.068 11.7721 68.068C12.7661 68.068 13.3261 68.698 13.3261 69.748C13.3261 71.344 11.6601 73.29 8.84614 75.81V77ZM18.7563 71.876C19.4983 71.876 20.0443 71.302 20.0443 70.546C20.0443 69.776 19.4983 69.202 18.7563 69.202C18.0283 69.202 17.4823 69.776 17.4823 70.546C17.4823 71.302 18.0283 71.876 18.7563 71.876ZM18.7563 77.196C19.4983 77.196 20.0443 76.608 20.0443 75.852C20.0443 75.082 19.4983 74.508 18.7563 74.508C18.0283 74.508 17.4823 75.082 17.4823 75.852C17.4823 76.608 18.0283 77.196 18.7563 77.196ZM25.171 77.196C27.285 77.196 28.671 75.348 28.671 71.778C28.671 68.208 27.285 66.444 25.171 66.444C23.057 66.444 21.657 68.194 21.657 71.778C21.657 75.348 23.057 77.196 25.171 77.196ZM25.171 75.586C24.275 75.586 23.603 74.69 23.603 71.778C23.603 68.88 24.275 68.04 25.171 68.04C26.067 68.04 26.725 68.88 26.725 71.778C26.725 74.69 26.067 75.586 25.171 75.586ZM33.4152 77.196C35.5292 77.196 36.9152 75.348 36.9152 71.778C36.9152 68.208 35.5292 66.444 33.4152 66.444C31.3012 66.444 29.9012 68.194 29.9012 71.778C29.9012 75.348 31.3012 77.196 33.4152 77.196ZM33.4152 75.586C32.5192 75.586 31.8472 74.69 31.8472 71.778C31.8472 68.88 32.5192 68.04 33.4152 68.04C34.3112 68.04 34.9692 68.88 34.9692 71.778C34.9692 74.69 34.3112 75.586 33.4152 75.586ZM43.9352 65.926V67.62H47.1272C47.1692 68.096 47.2252 68.6 47.3232 69.132L46.4692 68.978C45.6992 72.66 44.0332 75.362 41.1212 76.832C41.5552 77.154 42.3392 77.84 42.6472 78.19C45.0832 76.734 46.7632 74.41 47.8132 71.274C48.5832 73.78 50.0672 76.426 52.9652 78.176C53.2592 77.742 53.9452 77.014 54.3092 76.72C49.1572 73.682 48.7792 68.572 48.7792 65.926H43.9352ZM64.2772 71.4H61.5332V70.588H64.2772V71.4ZM65.8872 68.222H64.2772V69.244H61.5332V68.222H59.9932V69.244H58.2152V70.588H59.9932V72.702H62.1212V73.458H58.6772V77.532H60.2872V74.886H62.1212V78.246H63.7592V74.886H65.6772V76.02C65.6772 76.174 65.6212 76.216 65.4532 76.216C65.2992 76.23 64.7252 76.23 64.2212 76.202C64.4032 76.608 64.5852 77.182 64.6552 77.63C65.5512 77.63 66.2232 77.63 66.6852 77.406C67.2032 77.168 67.3152 76.776 67.3152 76.062V73.458H63.7592V72.702H65.8872V70.588H67.9872V69.244H65.8872V68.222ZM63.3392 66.458C63.1712 65.982 62.9052 65.436 62.6392 64.974L61.0152 65.436C61.1692 65.758 61.3232 66.108 61.4492 66.458H56.2832V70.378C56.2832 72.422 56.1992 75.348 55.0372 77.322C55.4152 77.49 56.1152 77.966 56.3952 78.246C57.6692 76.076 57.8792 72.632 57.8792 70.378V67.942H68.0992V66.458H63.3392ZM1.148 97H7.378V95.334H5.432V86.626H3.906C3.248 87.046 2.534 87.312 1.498 87.508V88.782H3.374V95.334H1.148V97ZM8.84614 97H15.7901V95.264H13.5501C13.0601 95.264 12.3741 95.32 11.8561 95.376C13.7461 93.528 15.3001 91.512 15.3001 89.636C15.3001 87.704 13.9981 86.444 12.0381 86.444C10.6241 86.444 9.70014 86.99 8.74814 88.012L9.86814 89.132C10.4001 88.558 11.0161 88.068 11.7721 88.068C12.7661 88.068 13.3261 88.698 13.3261 89.748C13.3261 91.344 11.6601 93.29 8.84614 95.81V97ZM18.7563 91.876C19.4983 91.876 20.0443 91.302 20.0443 90.546C20.0443 89.776 19.4983 89.202 18.7563 89.202C18.0283 89.202 17.4823 89.776 17.4823 90.546C17.4823 91.302 18.0283 91.876 18.7563 91.876ZM18.7563 97.196C19.4983 97.196 20.0443 96.608 20.0443 95.852C20.0443 95.082 19.4983 94.508 18.7563 94.508C18.0283 94.508 17.4823 95.082 17.4823 95.852C17.4823 96.608 18.0283 97.196 18.7563 97.196ZM24.877 97.196C26.851 97.196 28.517 96.09 28.517 94.186C28.517 92.828 27.621 91.96 26.459 91.638V91.568C27.551 91.134 28.181 90.322 28.181 89.202C28.181 87.438 26.823 86.444 24.821 86.444C23.603 86.444 22.609 86.934 21.713 87.718L22.763 88.978C23.379 88.404 23.981 88.068 24.723 88.068C25.605 88.068 26.109 88.544 26.109 89.356C26.109 90.28 25.493 90.938 23.589 90.938V92.408C25.843 92.408 26.445 93.052 26.445 94.06C26.445 94.998 25.731 95.516 24.681 95.516C23.743 95.516 22.987 95.054 22.371 94.452L21.405 95.754C22.133 96.58 23.239 97.196 24.877 97.196ZM33.4152 97.196C35.5292 97.196 36.9152 95.348 36.9152 91.778C36.9152 88.208 35.5292 86.444 33.4152 86.444C31.3012 86.444 29.9012 88.194 29.9012 91.778C29.9012 95.348 31.3012 97.196 33.4152 97.196ZM33.4152 95.586C32.5192 95.586 31.8472 94.69 31.8472 91.778C31.8472 88.88 32.5192 88.04 33.4152 88.04C34.3112 88.04 34.9692 88.88 34.9692 91.778C34.9692 94.69 34.3112 95.586 33.4152 95.586ZM45.6572 86.864V87.578H43.4592V86.864H45.6572ZM43.4592 89.426V88.67H45.6572V89.426H43.4592ZM47.2252 90.63V85.674H41.8352V98.218H43.4592V90.63H47.2252ZM47.0012 93.71V92.66H48.3032V93.71H47.0012ZM51.2992 95.068V93.71H49.7592V92.66H51.0752V91.344H44.3132V92.66H45.5872V93.71H44.1172V95.068H45.5312C45.3912 95.782 44.9992 96.692 44.1032 97.252C44.4252 97.476 44.9292 97.91 45.1672 98.204C46.3572 97.392 46.8192 96.034 46.9592 95.068H48.3032V97.952H49.7592V95.068H51.2992ZM49.7312 89.454V88.67H51.9992V89.454H49.7312ZM51.9992 86.864V87.578H49.7312V86.864H51.9992ZM53.6372 85.674H48.1492V90.658H51.9992V96.258C51.9992 96.454 51.9292 96.538 51.7052 96.538C51.4952 96.552 50.8092 96.552 50.1792 96.524C50.4032 96.958 50.6272 97.714 50.6832 98.176C51.7472 98.176 52.4752 98.134 52.9792 97.854C53.4832 97.588 53.6372 97.126 53.6372 96.272V85.674ZM64.2772 91.4H61.5332V90.588H64.2772V91.4ZM65.8872 88.222H64.2772V89.244H61.5332V88.222H59.9932V89.244H58.2152V90.588H59.9932V92.702H62.1212V93.458H58.6772V97.532H60.2872V94.886H62.1212V98.246H63.7592V94.886H65.6772V96.02C65.6772 96.174 65.6212 96.216 65.4532 96.216C65.2992 96.23 64.7252 96.23 64.2212 96.202C64.4032 96.608 64.5852 97.182 64.6552 97.63C65.5512 97.63 66.2232 97.63 66.6852 97.406C67.2032 97.168 67.3152 96.776 67.3152 96.062V93.458H63.7592V92.702H65.8872V90.588H67.9872V89.244H65.8872V88.222ZM63.3392 86.458C63.1712 85.982 62.9052 85.436 62.6392 84.974L61.0152 85.436C61.1692 85.758 61.3232 86.108 61.4492 86.458H56.2832V90.378C56.2832 92.422 56.1992 95.348 55.0372 97.322C55.4152 97.49 56.1152 97.966 56.3952 98.246C57.6692 96.076 57.8792 92.632 57.8792 90.378V87.942H68.0992V86.458H63.3392Z" fill="#FFA0B2"/>
<path d="M5.34 9.4V12.92H3.5V9.4H5.34ZM3.5 18.76V15H5.34V18.76H3.5ZM7.56 7.28H1.3V22.64H3.5V20.88H7.56V7.28ZM8.72 19.2C9.54 20.24 10.56 21.7 11.02 22.56L13.1 21.34C12.6 20.46 11.52 19.1 10.7 18.14L8.72 19.2ZM19.26 10.28V8.2H14.76V6.06H12.42V8.2H7.92V10.28H12.42V12.18H8.56V14.24H14.94V15.8H7.94V17.86H14.94V22.16C14.94 22.44 14.84 22.52 14.52 22.52C14.22 22.52 13.12 22.52 12.16 22.48C12.46 23.12 12.82 24.06 12.9 24.72C14.38 24.72 15.48 24.66 16.24 24.32C17.04 23.96 17.26 23.36 17.26 22.22V17.86H19.18V15.8H17.26V14.24H18.72V12.18H14.76V10.28H19.26ZM27.06 8.54V9.6H23.98V8.54H27.06ZM23.98 12.34V11.2H27.06V12.34H23.98ZM29.28 14.04V6.82H21.62V24.74H23.98V14.04H29.28ZM32.92 12.38V11.2H36.1V12.38H32.92ZM36.1 8.54V9.6H32.92V8.54H36.1ZM28.3 21.14V19.9H31.6V21.14H28.3ZM31.6 18.2H28.3V17H31.6V18.2ZM38.5 6.82H30.66V14.08H36.1V21.9C36.1 22.22 35.98 22.34 35.62 22.34C35.36 22.36 34.62 22.36 33.84 22.34V15.26L27.12 15.24V15.26H26.14V23.9H28.3V22.88H33.26C33.5 23.5 33.72 24.24 33.78 24.74C35.5 24.74 36.66 24.68 37.44 24.28C38.24 23.9 38.5 23.2 38.5 21.92V6.82Z" fill="#FFA0B2"/>
<line x1="1" y1="32.75" x2="478" y2="32.75" stroke="#FFA0B2" stroke-width="0.5"/>
<path d="M8.498 174.146H10.178V172.942H13.23V171.374H10.178V170.142H8.498V171.374H7.224V172.942H8.498V174.146ZM5.544 170.142H3.892V171.374H0.756V172.942H3.892V174.076C3.108 175.742 1.75 177.366 0.308 178.374C0.7 178.64 1.372 179.228 1.68 179.55C2.072 179.228 2.464 178.836 2.87 178.43V183.218H4.522V176.344C4.914 175.77 5.25 175.182 5.544 174.594L4.032 174.118H5.544V172.942H6.762V171.374H5.544V170.142ZM9.534 181.496C8.932 181.496 8.848 181.412 8.848 180.796V177.898H13.174V176.344H8.848V174.342H7.196V180.796C7.196 182.518 7.658 183.036 9.324 183.036H11.452C12.908 183.036 13.356 182.35 13.538 180.096C13.09 179.984 12.404 179.704 12.04 179.438C11.956 181.16 11.858 181.496 11.298 181.496H9.534ZM25.06 175.91V176.47H23.534V175.91H25.06ZM25.06 177.968H23.534V177.394H25.06V177.968ZM20.538 177.968V177.394H22.05V177.968H20.538ZM20.538 175.91H22.05V176.47H20.538V175.91ZM23.142 172.746H22.05V173.348H18.662V174.454H22.05V174.93H19.152V178.948H22.05V179.48H18.55V180.656H22.05V181.398H23.534V180.656H27.132V179.48H23.534V178.948H26.502V174.93H23.534V174.454H26.95V173.348H23.534V172.746H24.794V172.144H27.216V170.842H24.794V170.142H23.142V170.842H21.238V172.144H23.142V172.746ZM17.304 172.998H18.956V172.144H20.748V170.842H18.956V170.142H17.304V170.842H14.77V172.144H17.304V172.998ZM15.4 173.18C15.82 173.698 16.338 174.412 16.59 174.846L17.99 174.216C17.71 173.796 17.206 173.152 16.758 172.662L15.4 173.18ZM17.892 177.702L17.626 177.758H16.898C17.584 177.002 18.368 176.022 18.858 175.42L17.85 174.902L17.612 175H14.826V176.33H16.478C16.058 176.848 15.624 177.324 15.414 177.506C15.162 177.744 14.91 177.856 14.686 177.912C14.84 178.192 15.148 178.906 15.218 179.256C15.33 179.144 15.75 179.046 16.086 179.046H16.814C16.282 180.362 15.372 181.384 14.266 181.972C14.546 182.21 15.022 182.868 15.204 183.218C15.932 182.784 16.618 182.154 17.192 181.356C18.242 182.798 19.852 183.092 22.414 183.092C23.982 183.092 25.718 183.036 27.118 182.966C27.202 182.518 27.412 181.804 27.636 181.454C26.11 181.608 23.884 181.692 22.428 181.692C20.244 181.692 18.718 181.51 17.878 180.208C18.172 179.592 18.438 178.878 18.62 178.122L17.892 177.702ZM29.358 179.13C29.12 180.082 28.728 181.118 28.294 181.804C28.602 181.958 29.176 182.28 29.442 182.476C29.89 181.706 30.366 180.502 30.646 179.424L29.358 179.13ZM32.69 179.508C33.04 180.152 33.39 181.02 33.53 181.58L34.664 181.062C34.51 180.502 34.132 179.676 33.768 179.06L32.69 179.508ZM35.644 178.892C35.392 179.83 34.846 181.034 34.216 181.818C34.538 181.972 35.042 182.308 35.322 182.546C36.008 181.678 36.624 180.362 37.016 179.242L35.644 178.892ZM30.422 176.764H32.872V177.408H30.422V176.764ZM32.872 171.808V172.48H30.422V171.808H32.872ZM30.422 175.168H32.872V175.756H30.422V175.168ZM32.872 174.16H30.422V173.488H32.872V174.16ZM40.194 178.234C40.292 178.444 40.362 178.64 40.432 178.808L41.622 178.164C41.314 177.464 40.642 176.288 40.11 175.448L38.99 175.994C39.186 176.302 39.382 176.68 39.578 177.044L37.394 177.128C38.668 176.19 39.928 175.028 41.048 173.81L39.928 172.998C39.634 173.362 39.312 173.726 38.976 174.076L37.408 174.132C37.996 173.712 38.598 173.236 39.144 172.718L37.982 172.116C38.724 171.85 39.424 171.542 40.054 171.192L38.99 169.974C37.912 170.674 36.134 171.402 34.524 171.864C34.72 172.172 34.944 172.718 35.028 173.054C35.952 172.802 36.946 172.508 37.912 172.144C37.128 173.026 36.05 173.81 35.7 174.02C35.364 174.244 35.098 174.384 34.832 174.426C34.972 174.748 35.168 175.364 35.224 175.63C35.49 175.532 35.882 175.448 37.674 175.336C36.988 175.98 36.386 176.456 36.092 176.652C35.532 177.072 35.14 177.324 34.748 177.394V177.408H34.272V170.618H29.078V177.408H28.518V178.724H31.052V183.05H32.452V178.724H34.748V177.422C34.916 177.786 35.098 178.43 35.168 178.682C35.42 178.57 35.798 178.514 37.282 178.416V181.986C37.282 182.112 37.24 182.14 37.1 182.154C36.988 182.154 36.596 182.154 36.218 182.14C36.372 182.42 36.54 182.826 36.596 183.162C37.296 183.162 37.814 183.148 38.178 182.994C38.57 182.826 38.682 182.602 38.682 182.028V178.318L40.194 178.234ZM38.864 179.284C39.34 180.236 39.928 181.524 40.194 182.266L41.482 181.664C41.188 180.922 40.572 179.69 40.068 178.78L38.864 179.284ZM48.118 172.354H44.114V173.334H53.928V172.354H49.798V171.878H55.16V170.842H49.798V170.142H48.118V170.842H42.91V171.878H48.118V172.354ZM54.866 176.274C55.062 175.672 55.286 174.72 55.454 173.894L54.292 173.712L54.04 173.754H42.84V174.874H53.676C53.606 175.322 53.536 175.728 53.466 176.05L54.866 176.274ZM43.764 176.596V177.478H54.18V176.596H49.77V176.148H52.948V175.308H44.828V176.148H48.132V176.596H43.764ZM46.62 180.544V181.51H44.926V180.544H46.62ZM48.09 179.508H43.498V182.994H44.926V182.56H48.09V179.508ZM55.552 179.06V177.884H42.476V179.06H52.402V179.634H48.482V180.74H49.532L48.874 181.23C49.322 181.622 49.84 182.196 50.064 182.602L51.156 181.762C50.96 181.454 50.582 181.076 50.218 180.74H52.402V181.86C52.402 182 52.346 182.028 52.206 182.028C52.08 182.028 51.632 182.028 51.24 182.014C51.408 182.364 51.576 182.826 51.646 183.19C52.388 183.19 52.962 183.19 53.368 183.022C53.816 182.84 53.914 182.546 53.914 181.902V180.74H55.048V179.634H53.914V179.06H55.552ZM68.488 170.52H67.032V174.664H65.856V174.202H66.71V173.432H65.856V172.984H66.626V172.228H65.856V171.78H66.682V171.024H65.856V170.324H64.876V171.024H64.022V171.78H64.876V172.228H64.064V172.984H64.876V173.432H63.994V174.202H64.876V174.664H63.7V170.142H62.244V174.664H61.04V174.202H61.936V173.432H61.04V172.984H61.852V172.228H61.04V171.78H61.908V171.024H61.04V170.324H60.074V171.024H59.262V171.78H60.074V172.228H59.304V172.984H60.074V173.432H59.234V174.202H60.074V174.664H58.912V170.52H57.512V175.784H68.488V170.52ZM69.076 176.246H56.952V177.366H69.076V176.246ZM64.918 180.572C64.75 180.964 64.512 181.412 64.33 181.748H61.712L61.81 181.72C61.726 181.398 61.53 180.964 61.32 180.572H64.918ZM60.004 178.808H66.15V179.606H60.004V178.808ZM65.954 181.748C66.164 181.426 66.388 181.034 66.612 180.614L66.458 180.572H67.802V177.828H58.45V180.572H59.822L59.654 180.614C59.85 180.95 60.046 181.384 60.172 181.748H56.784V182.952H69.216V181.748H65.954ZM73.654 176.12C73.598 176.512 73.542 176.876 73.472 177.226L72.52 177.338C73.388 176.148 74.256 174.72 74.942 173.278V176.274L73.654 176.12ZM77.546 172.956V174.188H76.37V172.956H77.546ZM76.37 176.666V175.504H77.546V176.666H76.37ZM76.776 178.878C76.958 179.354 77.126 179.886 77.294 180.404L76.37 180.684V178.066H78.876V171.556H77.896C77.7 171.108 77.392 170.576 77.084 170.142L75.754 170.618C75.936 170.884 76.132 171.22 76.286 171.556H74.942V173.25L73.598 172.718C73.444 173.096 73.262 173.502 73.08 173.894L72.338 173.95C72.884 172.998 73.472 171.808 73.85 170.674L72.31 170.324C72.002 171.668 71.358 173.096 71.148 173.46C70.938 173.824 70.728 174.09 70.504 174.16C70.672 174.538 70.896 175.21 70.98 175.518C71.176 175.42 71.47 175.336 72.394 175.224C71.974 175.98 71.582 176.568 71.4 176.806C71.05 177.296 70.77 177.618 70.462 177.688C70.63 178.038 70.854 178.71 70.924 178.976C71.162 178.878 71.512 178.78 73.108 178.556C72.59 180.04 71.736 181.174 70.448 181.93C70.714 182.182 71.134 182.77 71.274 183.05C73.374 181.692 74.466 179.508 74.942 176.456V180.656C74.942 181.23 74.578 181.496 74.312 181.622C74.508 181.888 74.76 182.434 74.83 182.756C75.096 182.56 75.516 182.406 77.658 181.692C77.742 182.014 77.812 182.322 77.854 182.588L79.212 182.07C79.044 181.146 78.526 179.62 78.092 178.458L76.776 178.878ZM82.488 170.772L82.264 170.828H79.296V183.204H80.668V172.27H81.788C81.536 173.334 81.2 174.776 80.892 175.798C81.718 176.932 81.9 177.94 81.914 178.71C81.914 179.186 81.83 179.55 81.662 179.69C81.55 179.774 81.41 179.816 81.284 179.816C81.102 179.816 80.906 179.816 80.668 179.802C80.878 180.222 80.99 180.866 81.004 181.272C81.312 181.286 81.634 181.286 81.872 181.244C82.194 181.202 82.474 181.09 82.684 180.908C83.104 180.572 83.314 179.9 83.314 178.92C83.314 177.996 83.118 176.89 82.25 175.644C82.642 174.454 83.146 172.788 83.538 171.43L82.488 170.772ZM89.026 178.85C88.578 179.004 88.116 179.144 87.654 179.284V176.484H88.914V174.958H87.654V172.494H89.152V170.94H84.532V172.494H86.072V174.958H84.658V176.484H86.072V179.774C85.428 179.956 84.854 180.11 84.364 180.236L84.742 181.93C86.086 181.496 87.766 180.964 89.306 180.418L89.026 178.85ZM91.182 174.622H92.624V175.826H91.182V174.622ZM91.182 172.144H92.624V173.32H91.182V172.144ZM95.41 173.32H94.024V172.144H95.41V173.32ZM95.41 175.826H94.024V174.622H95.41V175.826ZM94.178 181.272V179.942H97.146V178.444H94.178V177.24H96.992V170.73H89.684V177.24H92.484V178.444H89.586V179.942H92.484V181.272H88.62V182.784H97.622V181.272H94.178ZM106.624 176.232H109.2V177.072H106.624V176.232ZM106.624 174.202H109.2V175.014H106.624V174.202ZM106.624 172.158H109.2V172.97H106.624V172.158ZM103.684 178.92C104.314 179.508 105.14 180.362 105.532 180.866L106.736 179.858C106.4 179.466 105.798 178.878 105.252 178.374H110.796V170.842H105.112V178.248L104.832 177.996L103.684 178.92ZM101.01 178.542H102.592V175.616C103.096 176.078 103.614 176.582 103.936 176.932L104.804 175.602C104.482 175.336 103.152 174.384 102.592 174.062V173.544H104.566V172.13H102.592V170.156H101.01V172.13H98.714V173.544H100.744C100.198 174.762 99.288 175.98 98.364 176.666C98.7 176.932 99.19 177.45 99.428 177.814C100.002 177.31 100.534 176.61 101.01 175.784V178.542ZM99.988 182.448C100.478 181.636 100.884 180.39 101.164 179.396L99.68 178.808C99.442 179.802 98.966 180.95 98.462 181.692L99.988 182.448ZM104.216 181.468C103.46 181.468 103.32 181.412 103.32 180.992V179.102H101.668V181.02C101.668 182.476 102.158 182.938 104.062 182.938H106.582C108.122 182.938 108.584 182.448 108.794 180.446C108.332 180.362 107.632 180.124 107.296 179.858C107.212 181.272 107.114 181.468 106.456 181.468H104.216ZM108.402 179.298C108.948 180.236 109.718 181.468 110.054 182.21L111.608 181.412C111.23 180.684 110.418 179.494 109.858 178.626L108.402 179.298ZM120.092 178.024C120.708 177.646 121.282 177.24 121.814 176.75C122.346 177.226 122.92 177.646 123.564 178.024H120.092ZM120.47 181.286V179.424H123.102V181.286H120.47ZM118.09 176.932H116.55V175.294H117.95V174.398C118.328 174.65 118.832 175.098 119.07 175.35C119.35 175.056 119.63 174.734 119.896 174.384C120.148 174.79 120.428 175.21 120.764 175.616C119.98 176.344 119.056 176.946 118.09 177.366V176.932ZM114.576 172.088H116.424V173.866H114.576V172.088ZM122.766 172.886C122.486 173.474 122.15 174.02 121.744 174.538C121.352 174.062 121.002 173.572 120.722 173.096L120.834 172.886H122.766ZM123.76 171.416L123.466 171.472H121.506C121.632 171.164 121.744 170.842 121.856 170.534L120.274 170.142C119.812 171.668 118.972 173.152 117.95 174.132V170.66H113.12V175.294H115.08V180.558L114.38 180.698V176.274H113.022V180.978L112.392 181.09L112.686 182.686C114.268 182.322 116.396 181.832 118.356 181.342L118.202 179.872L116.55 180.25V178.388H118.09V177.982C118.286 178.248 118.496 178.556 118.608 178.78L118.93 178.64V183.19H120.47V182.714H123.102V183.148H124.698V178.57L124.726 178.584C124.95 178.15 125.426 177.492 125.762 177.184C124.642 176.834 123.676 176.274 122.864 175.63C123.718 174.594 124.376 173.334 124.81 171.864L123.76 171.416ZM127.148 182H133.378V180.334H131.432V171.626H129.906C129.248 172.046 128.534 172.312 127.498 172.508V173.782H129.374V180.334H127.148V182ZM138.374 173.488H136.526V171.836H138.374V173.488ZM139.62 170.66H135.35V174.65H139.62V170.66ZM136.96 177.8C137.016 177.492 137.086 177.184 137.142 176.862H139.914V175.42H134.72V176.862H135.756C135.602 177.646 135.42 178.458 135.252 179.088H137.954C137.842 180.698 137.702 181.37 137.534 181.58C137.408 181.706 137.282 181.734 137.086 181.72C136.848 181.72 136.386 181.72 135.882 181.664C136.12 182.042 136.26 182.602 136.274 183.022C136.862 183.05 137.436 183.05 137.758 183.008C138.164 182.952 138.444 182.84 138.696 182.518C139.074 182.112 139.242 181.006 139.41 178.374C139.424 178.178 139.438 177.8 139.438 177.8H136.96ZM142.49 178.178C142.42 180.012 142.252 181.342 141.02 182.168C141.342 182.392 141.734 182.91 141.902 183.26C143.47 182.21 143.778 180.474 143.862 178.178H142.49ZM144.842 176.526C144.548 176.526 144.52 176.372 144.52 176.022V175.938L145.948 175.812L145.836 174.72L144.52 174.846V174.146H146.34C146.284 174.608 146.214 175.07 146.158 175.392L147.376 175.686C147.572 175.014 147.768 173.936 147.922 172.998L146.886 172.788L146.662 172.83H144.646V172.214H147.32V170.898H144.646V170.142H143.064V172.83H140.348V176.428C140.348 178.206 140.264 180.642 139.214 182.35C139.55 182.504 140.18 182.966 140.446 183.218C141.594 181.356 141.79 178.444 141.79 176.442V174.146H143.134V174.972L142.014 175.07L142.154 176.162L143.134 176.078C143.148 177.17 143.4 177.716 144.562 177.716H146.032C146.396 177.716 146.83 177.688 147.054 177.604C146.998 177.24 146.97 176.834 146.942 176.428C146.732 176.498 146.242 176.526 145.962 176.526H144.842ZM146.2 181.524C146.13 181.524 146.046 181.496 146.004 181.44C145.962 181.412 145.948 181.328 145.948 181.244V178.164H144.59V181.384C144.59 182.182 144.646 182.406 144.884 182.658C145.108 182.882 145.458 182.98 145.808 182.98H146.55C146.816 182.98 147.124 182.91 147.32 182.784C147.53 182.63 147.67 182.448 147.782 182.154C147.852 181.874 147.922 181.188 147.95 180.53C147.586 180.418 147.082 180.138 146.83 179.9C146.83 180.488 146.802 180.978 146.774 181.188C146.76 181.314 146.718 181.412 146.662 181.468C146.62 181.51 146.536 181.524 146.438 181.524H146.2ZM157.526 176.68C157.526 179.676 158.772 181.916 160.284 183.4L161.614 182.812C160.214 181.3 159.108 179.368 159.108 176.68C159.108 173.992 160.214 172.06 161.614 170.548L160.284 169.96C158.772 171.444 157.526 173.684 157.526 176.68ZM170.742 174.146H172.422V172.942H175.474V171.374H172.422V170.142H170.742V171.374H169.468V172.942H170.742V174.146ZM167.788 170.142H166.136V171.374H163V172.942H166.136V174.076C165.352 175.742 163.994 177.366 162.552 178.374C162.944 178.64 163.616 179.228 163.924 179.55C164.316 179.228 164.708 178.836 165.114 178.43V183.218H166.766V176.344C167.158 175.77 167.494 175.182 167.788 174.594L166.276 174.118H167.788V172.942H169.006V171.374H167.788V170.142ZM171.778 181.496C171.176 181.496 171.092 181.412 171.092 180.796V177.898H175.418V176.344H171.092V174.342H169.44V180.796C169.44 182.518 169.902 183.036 171.568 183.036H173.696C175.152 183.036 175.6 182.35 175.782 180.096C175.334 179.984 174.648 179.704 174.284 179.438C174.2 181.16 174.102 181.496 173.542 181.496H171.778ZM187.304 175.91V176.47H185.778V175.91H187.304ZM187.304 177.968H185.778V177.394H187.304V177.968ZM182.782 177.968V177.394H184.294V177.968H182.782ZM182.782 175.91H184.294V176.47H182.782V175.91ZM185.386 172.746H184.294V173.348H180.906V174.454H184.294V174.93H181.396V178.948H184.294V179.48H180.794V180.656H184.294V181.398H185.778V180.656H189.376V179.48H185.778V178.948H188.746V174.93H185.778V174.454H189.194V173.348H185.778V172.746H187.038V172.144H189.46V170.842H187.038V170.142H185.386V170.842H183.482V172.144H185.386V172.746ZM179.548 172.998H181.2V172.144H182.992V170.842H181.2V170.142H179.548V170.842H177.014V172.144H179.548V172.998ZM177.644 173.18C178.064 173.698 178.582 174.412 178.834 174.846L180.234 174.216C179.954 173.796 179.45 173.152 179.002 172.662L177.644 173.18ZM180.136 177.702L179.87 177.758H179.142C179.828 177.002 180.612 176.022 181.102 175.42L180.094 174.902L179.856 175H177.07V176.33H178.722C178.302 176.848 177.868 177.324 177.658 177.506C177.406 177.744 177.154 177.856 176.93 177.912C177.084 178.192 177.392 178.906 177.462 179.256C177.574 179.144 177.994 179.046 178.33 179.046H179.058C178.526 180.362 177.616 181.384 176.51 181.972C176.79 182.21 177.266 182.868 177.448 183.218C178.176 182.784 178.862 182.154 179.436 181.356C180.486 182.798 182.096 183.092 184.658 183.092C186.226 183.092 187.962 183.036 189.362 182.966C189.446 182.518 189.656 181.804 189.88 181.454C188.354 181.608 186.128 181.692 184.672 181.692C182.488 181.692 180.962 181.51 180.122 180.208C180.416 179.592 180.682 178.878 180.864 178.122L180.136 177.702ZM195.27 178.85C194.822 179.004 194.36 179.144 193.898 179.284V176.484H195.158V174.958H193.898V172.494H195.396V170.94H190.776V172.494H192.316V174.958H190.902V176.484H192.316V179.774C191.672 179.956 191.098 180.11 190.608 180.236L190.986 181.93C192.33 181.496 194.01 180.964 195.55 180.418L195.27 178.85ZM197.426 174.622H198.868V175.826H197.426V174.622ZM197.426 172.144H198.868V173.32H197.426V172.144ZM201.654 173.32H200.268V172.144H201.654V173.32ZM201.654 175.826H200.268V174.622H201.654V175.826ZM200.422 181.272V179.942H203.39V178.444H200.422V177.24H203.236V170.73H195.928V177.24H198.728V178.444H195.83V179.942H198.728V181.272H194.864V182.784H203.866V181.272H200.422ZM212.868 176.232H215.444V177.072H212.868V176.232ZM212.868 174.202H215.444V175.014H212.868V174.202ZM212.868 172.158H215.444V172.97H212.868V172.158ZM209.928 178.92C210.558 179.508 211.384 180.362 211.776 180.866L212.98 179.858C212.644 179.466 212.042 178.878 211.496 178.374H217.04V170.842H211.356V178.248L211.076 177.996L209.928 178.92ZM207.254 178.542H208.836V175.616C209.34 176.078 209.858 176.582 210.18 176.932L211.048 175.602C210.726 175.336 209.396 174.384 208.836 174.062V173.544H210.81V172.13H208.836V170.156H207.254V172.13H204.958V173.544H206.988C206.442 174.762 205.532 175.98 204.608 176.666C204.944 176.932 205.434 177.45 205.672 177.814C206.246 177.31 206.778 176.61 207.254 175.784V178.542ZM206.232 182.448C206.722 181.636 207.128 180.39 207.408 179.396L205.924 178.808C205.686 179.802 205.21 180.95 204.706 181.692L206.232 182.448ZM210.46 181.468C209.704 181.468 209.564 181.412 209.564 180.992V179.102H207.912V181.02C207.912 182.476 208.402 182.938 210.306 182.938H212.826C214.366 182.938 214.828 182.448 215.038 180.446C214.576 180.362 213.876 180.124 213.54 179.858C213.456 181.272 213.358 181.468 212.7 181.468H210.46ZM214.646 179.298C215.192 180.236 215.962 181.468 216.298 182.21L217.852 181.412C217.474 180.684 216.662 179.494 216.102 178.626L214.646 179.298ZM231.46 175.616V173.894H225.958C226.098 172.592 226.112 171.304 226.126 170.156H224.306C224.292 171.304 224.306 172.578 224.166 173.894H219.07V175.616H223.886C223.34 178.024 222.01 180.348 218.804 181.776C219.294 182.126 219.784 182.728 220.05 183.19C223.018 181.762 224.53 179.578 225.286 177.24C226.378 179.942 228.002 181.986 230.536 183.176C230.802 182.7 231.348 181.958 231.768 181.608C229.15 180.544 227.456 178.346 226.532 175.616H231.46ZM235.94 178.01V174.944H237.242V173.362H235.94V170.324H234.4V173.362H232.888V174.944H234.4V178.654C233.714 178.934 233.098 179.158 232.58 179.34L233.252 181.02C234.526 180.446 236.094 179.69 237.55 178.976L237.172 177.492L235.94 178.01ZM240.714 181.468C239.86 181.468 239.734 181.342 239.734 180.53V176.204L240.896 175.7V179.97H242.45V175.028L243.528 174.552C243.472 176.204 243.36 177.982 243.206 179.116L244.564 179.494C244.9 177.814 245.096 175.266 245.18 173.32L245.236 173.068L243.976 172.662L242.45 173.32V170.128H240.896V173.992L239.734 174.482V171.486H238.138V175.168L236.766 175.756L237.382 177.226L238.138 176.904V180.516C238.138 182.434 238.684 182.952 240.574 182.952H243.556C245.194 182.952 245.67 182.28 245.894 180.32C245.432 180.236 244.802 179.97 244.438 179.718C244.312 181.146 244.172 181.468 243.416 181.468H240.714ZM250.654 171.598C250.136 171.15 249.058 170.59 248.246 170.268L247.322 171.514C248.148 171.878 249.184 172.494 249.674 172.97L250.654 171.598ZM250.108 175.238C249.548 174.776 248.428 174.23 247.574 173.936L246.678 175.196C247.532 175.574 248.638 176.176 249.142 176.638L250.108 175.238ZM248.89 177.576C248.26 179.242 247.42 181.02 246.804 182.112L248.33 183.064C248.988 181.678 249.688 180.04 250.248 178.528L248.89 177.576ZM256.856 175.168V175.966H255.05V175.168H256.856ZM253.58 175.168V177.226H258.396V175.168H259.614V173.866H258.396V172.984H256.856V173.866H255.05V172.984H253.58V173.866H252.46V172.732H259.656V171.346H256.408C256.268 170.926 256.072 170.45 255.904 170.044L254.336 170.394C254.462 170.674 254.574 171.01 254.672 171.346H250.892V175.14C250.892 177.254 250.766 180.278 249.45 182.35C249.87 182.504 250.556 182.882 250.85 183.134C252.236 180.936 252.46 177.492 252.46 175.168H253.58ZM257.136 179.06C256.814 179.48 256.436 179.844 255.988 180.166C255.568 179.844 255.204 179.48 254.91 179.06H257.136ZM258.326 177.688L258.046 177.744H257.738V177.758H252.656V179.06H253.202C253.594 179.788 254.084 180.432 254.644 180.978C253.804 181.37 252.838 181.65 251.816 181.832C252.096 182.154 252.46 182.77 252.614 183.176C253.818 182.896 254.938 182.518 255.932 181.972C256.786 182.504 257.794 182.882 258.942 183.148C259.152 182.714 259.6 182.084 259.95 181.762C258.97 181.594 258.102 181.328 257.346 180.992C258.214 180.236 258.886 179.312 259.334 178.136L258.326 177.688ZM273.096 170.674H269.022V172.074H271.57V174.048H269.022V175.448H273.096V170.674ZM262.876 170.156C262.428 172.242 261.63 174.272 260.566 175.574C260.846 175.98 261.266 176.918 261.364 177.338C261.588 177.072 261.798 176.792 262.008 176.484V183.204H263.59V173.306C263.94 172.41 264.206 171.458 264.444 170.534L262.876 170.156ZM267.16 172.046V174.132H266.124V172.046H267.16ZM268.532 180.488V179.116H266.124V177.912H268.35V176.554H266.124V175.49H268.588V170.674H264.598V183.19H266.124V180.488H268.532ZM271.598 177.506C271.402 178.178 271.136 178.766 270.814 179.312C270.492 178.752 270.226 178.15 270.03 177.506H271.598ZM272.382 176.12L272.116 176.162H268.672V177.506H269.582L268.756 177.702C269.05 178.724 269.428 179.662 269.918 180.474C269.232 181.188 268.378 181.72 267.412 182.042C267.706 182.336 268.056 182.882 268.238 183.26C269.232 182.854 270.072 182.35 270.786 181.65C271.402 182.322 272.102 182.854 272.956 183.232C273.18 182.84 273.6 182.28 273.922 181.986C273.082 181.664 272.34 181.188 271.752 180.544C272.494 179.48 273.026 178.108 273.32 176.386L272.382 176.12ZM277.156 172.858C277.394 172.606 277.632 172.34 277.842 172.074C278.248 172.312 278.696 172.592 279.102 172.858H277.156ZM276.694 173.894H279.158V172.9C279.508 173.124 279.802 173.348 280.012 173.516L280.782 172.298C280.292 171.934 279.382 171.402 278.598 170.982C278.696 170.828 278.794 170.674 278.878 170.52L277.506 170.016C276.89 171.136 275.756 172.172 274.65 172.83C274.86 173.208 275.224 174.048 275.322 174.412C275.798 174.104 276.246 173.726 276.694 173.32V173.894ZM281.916 181.86C282.42 180.292 282.588 178.402 282.63 176.806C282.966 177.968 283.358 179.032 283.876 179.984C283.33 180.768 282.658 181.412 281.916 181.86ZM285.71 175.504C285.486 176.582 285.164 177.59 284.758 178.458C284.324 177.562 283.974 176.554 283.708 175.504H285.71ZM278.794 175.588V176.26H276.946V175.588H278.794ZM276.946 178.206V177.408H278.794V178.206H276.946ZM286.424 174.006L286.158 174.048H282.644V172.41H287.166V170.912H281.174V172.41H281.188V175.812C281.188 177.618 281.118 180.04 280.334 181.86C280.082 181.16 279.704 180.208 279.396 179.466L278.206 179.886C278.29 180.11 278.388 180.348 278.486 180.614L276.946 181.118V179.396H280.124V174.384H275.504V181.02C275.504 181.552 275.196 181.762 274.93 181.874C275.14 182.196 275.378 182.868 275.448 183.232C275.756 183.008 276.218 182.784 278.906 181.818C279.032 182.182 279.13 182.532 279.2 182.812L280.054 182.448C280.404 182.602 281.034 183.008 281.314 183.246C281.496 182.952 281.65 182.616 281.776 182.252C282.07 182.574 282.364 182.994 282.546 183.288C283.4 182.784 284.142 182.14 284.786 181.356C285.374 182.098 286.06 182.714 286.872 183.204C287.11 182.784 287.6 182.182 287.936 181.874C287.068 181.44 286.326 180.782 285.71 179.984C286.536 178.486 287.11 176.596 287.404 174.286L286.424 174.006ZM298.898 181.034H293.984V179.326H298.898V181.034ZM296.98 173.712H295.258V177.8H292.346V183.05H293.984V182.504H298.898V183.05H300.606V177.8H296.98V176.512H301.264V175.014H296.98V173.712ZM296.966 171.71C296.812 171.206 296.56 170.618 296.266 170.142L294.6 170.492C294.782 170.856 294.964 171.29 295.09 171.71H289.854V175.238C289.854 177.282 289.756 180.236 288.58 182.252C288.986 182.42 289.728 182.938 290.05 183.218C291.352 181.02 291.562 177.52 291.562 175.252V173.292H301.6V171.71H296.966ZM306.102 178.724H309.924V177.254H306.102V178.724ZM322.338 177.268C322.072 178.01 321.722 178.64 321.274 179.158C320.448 178.85 319.65 178.556 318.866 178.304C319.076 177.968 319.272 177.632 319.482 177.268H322.338ZM326.958 177.268V175.7H324.76C324.816 175.392 324.872 175.084 324.928 174.762H326.692V171.654H321.974C321.778 171.136 321.484 170.506 321.246 170.002L319.37 170.436C319.524 170.814 319.706 171.248 319.86 171.654H314.89V174.762H316.584V173.194H324.914V174.552L322.898 174.426C322.856 174.874 322.814 175.308 322.744 175.7H320.28C320.574 175.084 320.84 174.468 321.064 173.894L319.118 173.53C318.88 174.216 318.572 174.958 318.194 175.7H314.624V177.268H317.354C316.976 177.926 316.584 178.528 316.22 179.032C317.326 179.368 318.572 179.83 319.79 180.334C318.53 181.006 316.85 181.384 314.638 181.58C314.988 182 315.52 182.812 315.674 183.26C318.32 182.882 320.294 182.266 321.736 181.16C323.304 181.874 324.718 182.602 325.67 183.246L326.902 181.776C325.922 181.16 324.536 180.502 323.038 179.872C323.584 179.158 324.018 178.29 324.34 177.268H326.958ZM337.822 175.21H335.204L335.708 175.098C335.638 174.79 335.47 174.398 335.288 174.034H337.85C337.724 174.384 337.542 174.79 337.388 175.098L337.822 175.21ZM333.72 174.09C333.888 174.426 334.056 174.86 334.154 175.21H332.488V176.386H335.806V177.03H332.992V178.178H335.806V178.836H332.46V180.04H335.806V181.202H337.458V180.04H340.93V178.836H337.458V178.178H340.328V177.03H337.458V176.386H340.874V175.21H338.9C339.096 174.902 339.334 174.538 339.572 174.118L339.222 174.034H341.014V172.83H337.444V172.116H340.244V170.968H337.444V170.142H335.792V170.968H333.02V172.116H335.792V172.83H332.236V174.034H333.958L333.72 174.09ZM331.704 172.256C331.326 171.682 330.612 170.814 329.968 170.156L328.722 170.884C329.324 171.57 330.066 172.55 330.416 173.152L331.704 172.256ZM331.312 176.736L331.06 176.778H330.192C330.878 175.826 331.676 174.51 332.166 173.74L331.144 173.334L331.004 173.39H328.386V174.72H330.024C329.562 175.462 329.044 176.246 328.806 176.498C328.568 176.764 328.344 176.89 328.134 176.946C328.274 177.24 328.568 177.94 328.652 178.276C328.778 178.164 329.184 178.066 329.52 178.066H330.402C330.01 179.956 329.254 181.328 328.134 182.154C328.456 182.364 329.002 182.924 329.226 183.246C329.842 182.756 330.388 182.098 330.822 181.23C331.9 182.7 333.524 182.98 336.1 182.98C337.738 182.98 339.516 182.938 340.958 182.854C341.042 182.392 341.252 181.65 341.49 181.314C339.908 181.468 337.626 181.552 336.128 181.552C333.79 181.538 332.222 181.342 331.396 179.844C331.676 179.032 331.886 178.08 332.012 177.03L331.312 176.736ZM351.99 174.048H349.47V173.558H351.99V174.048ZM351.99 175.49H349.47V175H351.99V175.49ZM346.894 178.318L347.958 177.996C347.916 177.59 347.72 176.988 347.468 176.526H350.044L348.994 176.89C349.274 177.296 349.498 177.898 349.596 178.318H346.894ZM351.374 180.012H346.096V179.466H351.374V180.012ZM346.096 181.636V181.076H351.374V181.636H346.096ZM345.494 175H347.986V175.49H345.494V175ZM347.986 173.558V174.048H345.494V173.558H347.986ZM349.372 171.962C349.218 172.172 349.064 172.368 348.91 172.522H345.998C346.18 172.34 346.348 172.158 346.502 171.962H349.372ZM353.6 172.522H350.744C350.996 172.2 351.248 171.836 351.43 171.458L350.324 170.828L350.044 170.912H347.314C347.426 170.744 347.538 170.562 347.65 170.394L346.04 170.072C345.312 171.276 344.01 172.62 342.134 173.6C342.47 173.852 342.904 174.398 343.114 174.762C343.408 174.594 343.688 174.412 343.954 174.23V176.4L343.66 176.288C343.408 177.086 342.862 177.828 342.12 178.262L343.464 179.13C344.318 178.584 344.794 177.73 345.102 176.82L344.304 176.526H347.356L346.11 176.876C346.32 177.31 346.474 177.898 346.516 178.318H344.458V183.218H346.096V182.784H351.374V183.176H353.096V178.318H349.932L351.038 177.912C350.94 177.506 350.702 176.96 350.394 176.526H352.718L352.046 177.17C352.9 177.702 353.838 178.514 354.286 179.116L355.434 177.884C355.042 177.408 354.328 176.848 353.6 176.4V172.522ZM363.442 174.034H361.986V172.508H363.442V174.034ZM366.83 175.56V177.52C366.774 177.534 366.704 177.548 366.578 177.548H365.472C365.08 177.548 365.024 177.506 365.024 177.044V175.56H366.83ZM358.822 180.838V178.752C359.046 179.004 359.284 179.298 359.382 179.48C361.356 178.57 361.888 177.03 361.972 175.56H363.442V177.044C363.442 178.626 363.764 179.102 365.22 179.102H366.746H366.83V180.838H358.822ZM360.488 175.56C360.418 176.498 360.096 177.394 358.822 178.08V175.56H360.488ZM369.014 172.508V170.912H356.498V172.508H360.502V174.034H357.198V183.162H358.822V182.364H366.83V183.134H368.524V174.034H365.024V172.508H369.014ZM373.004 177.744V175.504H376V172.396H377.442V175.504H380.48V177.744H377.442V181.132H375.986V177.744H373.004ZM379.038 181.132V179.158H382.16V174.09H379.038V172.396H382.888V170.884H370.68V172.396H374.39V174.104H371.38V179.158H374.39V181.132H370.442V182.644H383.112V181.132H379.038ZM388.908 178.528C388.264 178.696 387.256 178.808 386.416 178.864C386.542 177.618 386.57 176.386 386.57 175.378V172.354H397.126V171.08H391.96C391.778 170.702 391.512 170.296 391.232 169.96L389.804 170.506C389.93 170.674 390.056 170.87 390.168 171.08H385.072V175.392C385.072 177.45 385.016 180.348 384.106 182.336C384.428 182.476 385.1 182.966 385.366 183.246C385.926 182.042 386.248 180.474 386.402 178.906C386.514 179.186 386.626 179.536 386.668 179.774C386.92 179.774 387.186 179.774 387.48 179.76V180.278H386.724V181.16H387.48V181.776L386.346 181.86L386.458 182.896C387.326 182.826 388.292 182.728 389.3 182.602L389.286 181.65L388.516 181.72V181.16H389.244V180.278H388.516V179.676C388.852 179.634 389.188 179.578 389.482 179.522L388.908 178.528ZM395.292 175.84H395.852V176.764H395.292V175.84ZM394.438 176.764H393.864V175.84H394.438V176.764ZM393.01 176.764H392.478V175.84H393.01V176.764ZM396.958 174.384V173.264H394.802V172.634H393.402V173.264H391.428V174.384H393.402V174.916H391.498V177.702H396.874V174.916H394.802V174.384H396.958ZM388.502 177.198V176.624H389.552V177.198H388.502ZM388.502 175.294H389.552V175.812H388.502V175.294ZM389.552 173.992V174.482H388.502V173.992H389.552ZM390.77 173.992H391.316V172.956H386.864V173.992H387.354V177.198H386.71V178.234H389.552V183.232H390.77V182.35L391.722 182.798C392.114 182.224 392.268 181.286 392.38 180.418L391.33 180.124C391.246 180.866 391.078 181.678 390.77 182.21V173.992ZM393.92 182.098C393.71 182.098 393.668 182.07 393.668 181.79V180.18C393.934 180.516 394.172 180.866 394.27 181.146L395.25 180.558C395.068 180.18 394.662 179.69 394.256 179.27H397.238V178.164H391.218V179.27H393.57L393.094 179.536C393.276 179.704 393.458 179.914 393.626 180.124H392.506V181.79C392.506 182.826 392.73 183.134 393.738 183.134H394.676C395.404 183.134 395.698 182.826 395.824 181.622C395.502 181.538 395.026 181.37 394.802 181.202C394.774 182 394.718 182.098 394.508 182.098H393.92ZM395.25 180.25C395.684 181.006 396.09 181.986 396.202 182.63L397.308 182.224C397.196 181.566 396.748 180.6 396.286 179.858L395.25 180.25ZM402.488 176.68C402.488 173.684 401.242 171.444 399.73 169.96L398.4 170.548C399.8 172.06 400.906 173.992 400.906 176.68C400.906 179.368 399.8 181.3 398.4 182.812L399.73 183.4C401.242 181.916 402.488 179.676 402.488 176.68Z" fill="#FFA0B2"/>
<path d="M5.28 146.3V141.92H7.14V139.66H5.28V135.32H3.08V139.66H0.92V141.92H3.08V147.22C2.1 147.62 1.22 147.94 0.48 148.2L1.44 150.6C3.26 149.78 5.5 148.7 7.58 147.68L7.04 145.56L5.28 146.3ZM12.1 151.24C10.88 151.24 10.7 151.06 10.7 149.9V143.72L12.36 143V149.1H14.58V142.04L16.12 141.36C16.04 143.72 15.88 146.26 15.66 147.88L17.6 148.42C18.08 146.02 18.36 142.38 18.48 139.6L18.56 139.24L16.76 138.66L14.58 139.6V135.04H12.36V140.56L10.7 141.26V136.98H8.42V142.24L6.46 143.08L7.34 145.18L8.42 144.72V149.88C8.42 152.62 9.2 153.36 11.9 153.36H16.16C18.5 153.36 19.18 152.4 19.5 149.6C18.84 149.48 17.94 149.1 17.42 148.74C17.24 150.78 17.04 151.24 15.96 151.24H12.1ZM23.14 138.26C23.42 139.14 23.62 140.26 23.66 141.04L24.7 140.7C24.64 139.94 24.38 138.74 24.08 137.84L23.14 138.12V137.28H24.82V141.62H23.14V138.26ZM27.98 138.16L27.02 137.82C26.88 138.6 26.54 139.78 26.26 140.56V137.28H27.98V138.16ZM26.26 141.62V140.74L27.1 141.06C27.36 140.5 27.66 139.62 27.98 138.8V141.62H26.26ZM30.06 146.88H26.58V145.88H29.78V144.08H26.58V143.22H29.82V135.68H21.36V143.22H24.48V144.08H21.4V145.88H24.48V146.88H21V148.68H30.06V146.88ZM22.18 153.44C22.74 152.48 23.1 150.96 23.36 149.74L21.78 149.16C21.56 150.34 21.08 151.84 20.52 152.76L22.18 153.44ZM23.72 149.74C23.88 150.84 23.96 152.28 23.92 153.24L25.44 153.06C25.46 152.1 25.36 150.68 25.16 149.58L23.72 149.74ZM25.74 149.7C26.1 150.76 26.44 152.14 26.52 153.04L27.98 152.74C27.88 151.84 27.52 150.48 27.16 149.44L25.74 149.7ZM36.38 150.8H32.68V146.62H36.38V150.8ZM39.34 141.4V139.2H35.46V135.1H33.14V144.46H30.52V152.14C30.28 151.28 29.72 150.06 29.14 149.16L27.74 149.66C28.3 150.66 28.86 152 29.06 152.9L30.52 152.32V153.72H32.68V152.96H36.38V153.66H38.66V144.46H35.46V141.4H39.34Z" fill="#FFA0B2"/>
<line y1="161.75" x2="477" y2="161.75" stroke="#FFA0B2" stroke-width="0.5"/>
<path d="M7 259.888C6.02 259.888 5.208 260.7 5.208 261.68C5.208 262.66 6.02 263.472 7 263.472C7.98 263.472 8.792 262.66 8.792 261.68C8.792 260.7 7.98 259.888 7 259.888ZM16.52 257.55H25.424V259.062H27.09V256.192H21.98C21.854 255.842 21.644 255.45 21.448 255.128L19.768 255.436C19.894 255.646 20.034 255.926 20.132 256.192H14.924V259.062H16.52V257.55ZM22.204 264.858C21.868 265.166 21.476 265.446 21.028 265.656C20.356 265.53 19.642 265.39 18.956 265.264C19.068 265.138 19.194 264.998 19.292 264.858H22.204ZM18.648 260.77H23.212V261.386H18.648V260.77ZM18.648 259.174H23.212V259.79H18.648V259.174ZM27.16 264.858V263.584H24.99L25.102 263.318L23.548 262.898C23.45 263.136 23.338 263.374 23.226 263.584H20.3C20.496 263.304 20.692 263.01 20.86 262.73L19.74 262.422H24.864V258.138H17.08V262.422H19.222C18.998 262.8 18.732 263.192 18.438 263.584H14.728V264.858H17.416C17.066 265.25 16.716 265.614 16.394 265.922C17.262 266.076 18.088 266.23 18.914 266.384C17.766 266.65 16.408 266.804 14.84 266.888C15.106 267.252 15.344 267.784 15.47 268.218C17.99 268.008 19.992 267.658 21.518 266.972C23.24 267.392 24.724 267.812 25.816 268.218L27.146 267.21C26.04 266.86 24.598 266.468 23.016 266.104C23.478 265.74 23.884 265.348 24.234 264.858H27.16ZM37.576 261.4H34.832V260.588H37.576V261.4ZM39.186 258.222H37.576V259.244H34.832V258.222H33.292V259.244H31.514V260.588H33.292V262.702H35.42V263.458H31.976V267.532H33.586V264.886H35.42V268.246H37.058V264.886H38.976V266.02C38.976 266.174 38.92 266.216 38.752 266.216C38.598 266.23 38.024 266.23 37.52 266.202C37.702 266.608 37.884 267.182 37.954 267.63C38.85 267.63 39.522 267.63 39.984 267.406C40.502 267.168 40.614 266.776 40.614 266.062V263.458H37.058V262.702H39.186V260.588H41.286V259.244H39.186V258.222ZM36.638 256.458C36.47 255.982 36.204 255.436 35.938 254.974L34.314 255.436C34.468 255.758 34.622 256.108 34.748 256.458H29.582V260.378C29.582 262.422 29.498 265.348 28.336 267.322C28.714 267.49 29.414 267.966 29.694 268.246C30.968 266.076 31.178 262.632 31.178 260.378V257.942H41.398V256.458H36.638ZM45.43 260.378C45.444 259.874 45.458 259.384 45.458 258.852H48.594V257.312H45.962L46.858 256.948C46.676 256.43 46.214 255.646 45.794 255.072L44.31 255.632C44.646 256.136 45.01 256.794 45.206 257.312H42.742V258.852H43.834C43.806 262.394 43.708 265.166 42.336 266.944C42.756 267.21 43.274 267.798 43.54 268.19C44.744 266.664 45.178 264.508 45.36 261.89H46.62C46.564 264.914 46.466 266.02 46.284 266.3C46.172 266.454 46.06 266.51 45.892 266.51C45.682 266.51 45.332 266.496 44.926 266.468C45.15 266.874 45.318 267.504 45.346 267.966C45.906 267.98 46.41 267.966 46.76 267.91C47.138 267.826 47.418 267.7 47.67 267.308C48.034 266.818 48.132 265.236 48.216 261.036C48.23 260.84 48.23 260.378 48.23 260.378H45.43ZM49.28 265.432C50.596 266.174 52.388 267.322 53.2 268.106L54.362 266.678C53.466 265.936 51.632 264.858 50.33 264.2L49.28 265.432ZM53.746 262.436C53.2 261.862 52.094 261.064 51.282 260.518L50.218 261.596C51.03 262.198 52.108 263.052 52.598 263.626L53.746 262.436ZM51.394 255.072C50.764 257.256 49.518 259.02 47.894 260.028C48.314 260.364 48.804 260.938 49.042 261.344C50.218 260.504 51.156 259.412 51.87 258.082C52.612 259.356 53.564 260.532 54.572 261.246C54.852 260.84 55.37 260.224 55.762 259.916C54.502 259.202 53.284 257.816 52.612 256.472C52.724 256.164 52.836 255.842 52.934 255.506L51.394 255.072ZM60.3199 267H66.5499V265.334H64.6039V256.626H63.0779C62.4199 257.046 61.7059 257.312 60.6699 257.508V258.782H62.5459V265.334H60.3199V267ZM68.018 267H74.962V265.264H72.722C72.232 265.264 71.546 265.32 71.028 265.376C72.918 263.528 74.472 261.512 74.472 259.636C74.472 257.704 73.17 256.444 71.21 256.444C69.796 256.444 68.872 256.99 67.92 258.012L69.04 259.132C69.572 258.558 70.188 258.068 70.944 258.068C71.938 258.068 72.498 258.698 72.498 259.748C72.498 261.344 70.832 263.29 68.018 265.81V267ZM77.9282 261.876C78.6702 261.876 79.2162 261.302 79.2162 260.546C79.2162 259.776 78.6702 259.202 77.9282 259.202C77.2002 259.202 76.6542 259.776 76.6542 260.546C76.6542 261.302 77.2002 261.876 77.9282 261.876ZM77.9282 267.196C78.6702 267.196 79.2162 266.608 79.2162 265.852C79.2162 265.082 78.6702 264.508 77.9282 264.508C77.2002 264.508 76.6542 265.082 76.6542 265.852C76.6542 266.608 77.2002 267.196 77.9282 267.196ZM84.0489 267.196C86.0229 267.196 87.6889 266.09 87.6889 264.186C87.6889 262.828 86.7929 261.96 85.6309 261.638V261.568C86.7229 261.134 87.3529 260.322 87.3529 259.202C87.3529 257.438 85.9949 256.444 83.9929 256.444C82.7749 256.444 81.7809 256.934 80.8849 257.718L81.9349 258.978C82.5509 258.404 83.1529 258.068 83.8949 258.068C84.7769 258.068 85.2809 258.544 85.2809 259.356C85.2809 260.28 84.6649 260.938 82.7609 260.938V262.408C85.0149 262.408 85.6169 263.052 85.6169 264.06C85.6169 264.998 84.9029 265.516 83.8529 265.516C82.9149 265.516 82.1589 265.054 81.5429 264.452L80.5769 265.754C81.3049 266.58 82.4109 267.196 84.0489 267.196ZM92.587 267.196C94.701 267.196 96.087 265.348 96.087 261.778C96.087 258.208 94.701 256.444 92.587 256.444C90.473 256.444 89.073 258.194 89.073 261.778C89.073 265.348 90.473 267.196 92.587 267.196ZM92.587 265.586C91.691 265.586 91.019 264.69 91.019 261.778C91.019 258.88 91.691 258.04 92.587 258.04C93.483 258.04 94.141 258.88 94.141 261.778C94.141 264.69 93.483 265.586 92.587 265.586ZM104.353 256.22C103.863 255.87 102.897 255.408 102.183 255.142L101.315 256.276C102.043 256.584 102.995 257.102 103.457 257.48L104.353 256.22ZM108.343 258.516H106.383V257.83H108.343V258.516ZM108.343 260.154H106.383V259.538H108.343V260.154ZM108.343 261.904H106.383V261.162H108.343V261.904ZM113.271 264.312H107.685V263.444H106.383V263.206H112.963V261.904H109.939V261.162H112.193V260.154H109.939V259.538H112.193V258.516H109.939V257.83H112.739V256.584H110.191C110.037 256.164 109.785 255.646 109.575 255.226L107.979 255.66C108.105 255.926 108.245 256.262 108.357 256.584H106.957C107.167 256.234 107.363 255.884 107.517 255.548L105.935 255.072C105.347 256.36 104.311 257.634 103.219 258.46C102.701 258.138 101.791 257.746 101.161 257.508L100.293 258.628C101.035 258.936 101.987 259.412 102.463 259.776L103.233 258.67C103.611 258.936 104.129 259.37 104.395 259.622C104.507 259.524 104.633 259.412 104.745 259.314V263.71H105.963V264.312H100.545V265.81H105.963V268.232H107.685V265.81H113.271V264.312ZM103.485 259.776C102.519 260.854 101.413 261.96 100.643 262.618L101.805 263.864C102.673 262.898 103.583 261.862 104.367 260.882L103.485 259.776ZM117.611 257.48V259.944H116.323V257.48H117.611ZM116.323 264.032V261.4H117.611V264.032H116.323ZM119.165 255.996H114.783V266.748H116.323V265.516H119.165V255.996ZM119.977 264.34C120.551 265.068 121.265 266.09 121.587 266.692L123.043 265.838C122.693 265.222 121.937 264.27 121.363 263.598L119.977 264.34ZM127.355 258.096V256.64H124.205V255.142H122.567V256.64H119.417V258.096H122.567V259.426H119.865V260.868H124.331V261.96H119.431V263.402H124.331V266.412C124.331 266.608 124.261 266.664 124.037 266.664C123.827 266.664 123.057 266.664 122.385 266.636C122.595 267.084 122.847 267.742 122.903 268.204C123.939 268.204 124.709 268.162 125.241 267.924C125.801 267.672 125.955 267.252 125.955 266.454V263.402H127.299V261.96H125.955V260.868H126.977V259.426H124.205V258.096H127.355ZM132.829 256.864V257.578H130.631V256.864H132.829ZM130.631 259.426V258.67H132.829V259.426H130.631ZM134.397 260.63V255.674H129.007V268.218H130.631V260.63H134.397ZM134.173 263.71V262.66H135.475V263.71H134.173ZM138.471 265.068V263.71H136.931V262.66H138.247V261.344H131.485V262.66H132.759V263.71H131.289V265.068H132.703C132.563 265.782 132.171 266.692 131.275 267.252C131.597 267.476 132.101 267.91 132.339 268.204C133.529 267.392 133.991 266.034 134.131 265.068H135.475V267.952H136.931V265.068H138.471ZM136.903 259.454V258.67H139.171V259.454H136.903ZM139.171 256.864V257.578H136.903V256.864H139.171ZM140.809 255.674H135.321V260.658H139.171V266.258C139.171 266.454 139.101 266.538 138.877 266.538C138.667 266.552 137.981 266.552 137.351 266.524C137.575 266.958 137.799 267.714 137.855 268.176C138.919 268.176 139.647 268.134 140.151 267.854C140.655 267.588 140.809 267.126 140.809 266.272V255.674ZM151.449 261.4H148.705V260.588H151.449V261.4ZM153.059 258.222H151.449V259.244H148.705V258.222H147.165V259.244H145.387V260.588H147.165V262.702H149.293V263.458H145.849V267.532H147.459V264.886H149.293V268.246H150.931V264.886H152.849V266.02C152.849 266.174 152.793 266.216 152.625 266.216C152.471 266.23 151.897 266.23 151.393 266.202C151.575 266.608 151.757 267.182 151.827 267.63C152.723 267.63 153.395 267.63 153.857 267.406C154.375 267.168 154.487 266.776 154.487 266.062V263.458H150.931V262.702H153.059V260.588H155.159V259.244H153.059V258.222ZM150.511 256.458C150.343 255.982 150.077 255.436 149.811 254.974L148.187 255.436C148.341 255.758 148.495 256.108 148.621 256.458H143.455V260.378C143.455 262.422 143.371 265.348 142.209 267.322C142.587 267.49 143.287 267.966 143.567 268.246C144.841 266.076 145.051 262.632 145.051 260.378V257.942H155.271V256.458H150.511ZM161.697 264.746C163.433 264.242 164.455 262.94 164.455 261.358C164.455 260.182 163.937 259.44 162.943 259.44C162.201 259.44 161.571 259.916 161.571 260.7C161.571 261.498 162.201 261.946 162.901 261.946C162.957 261.946 163.013 261.946 163.055 261.932C162.971 262.674 162.341 263.276 161.249 263.626L161.697 264.746ZM175.375 257.424H172.939L174.045 257.046C173.891 256.556 173.569 255.772 173.289 255.184L171.889 255.59C172.127 256.164 172.421 256.892 172.547 257.424H170.419V258.74H175.375V257.424ZM174.983 261.246H170.783V262.506H174.983V261.246ZM173.555 264.536V266.146H172.197V264.536H173.555ZM174.997 263.22H170.783V268.008H172.197V267.448H174.997V263.22ZM170.797 260.602H174.997V259.342H170.797V260.602ZM177.559 265.026C177.573 264.802 177.587 264.578 177.601 264.354H181.185V265.026H177.559ZM181.185 262.618V263.276H177.601V262.618H181.185ZM182.725 261.4H176.103V263.892C176.103 264.984 176.019 266.3 175.193 267.28C175.515 267.462 176.131 268.036 176.369 268.33C176.901 267.714 177.223 266.916 177.391 266.104H181.185V266.692C181.185 266.846 181.129 266.902 180.947 266.902C180.779 266.902 180.191 266.902 179.673 266.888C179.855 267.252 180.051 267.812 180.107 268.204C180.989 268.218 181.647 268.19 182.109 267.98C182.599 267.77 182.725 267.406 182.725 266.706V261.4ZM180.163 259.636V259.02H182.935V257.914H180.163V257.354H183.215V256.164H180.163V255.142H178.553V256.164H175.655V257.354H178.553V257.914H176.005V259.02H178.553V259.636H175.445V260.826H183.397V259.636H180.163ZM188.353 256.22C187.863 255.87 186.897 255.408 186.183 255.142L185.315 256.276C186.043 256.584 186.995 257.102 187.457 257.48L188.353 256.22ZM192.343 258.516H190.383V257.83H192.343V258.516ZM192.343 260.154H190.383V259.538H192.343V260.154ZM192.343 261.904H190.383V261.162H192.343V261.904ZM197.271 264.312H191.685V263.444H190.383V263.206H196.963V261.904H193.939V261.162H196.193V260.154H193.939V259.538H196.193V258.516H193.939V257.83H196.739V256.584H194.191C194.037 256.164 193.785 255.646 193.575 255.226L191.979 255.66C192.105 255.926 192.245 256.262 192.357 256.584H190.957C191.167 256.234 191.363 255.884 191.517 255.548L189.935 255.072C189.347 256.36 188.311 257.634 187.219 258.46C186.701 258.138 185.791 257.746 185.161 257.508L184.293 258.628C185.035 258.936 185.987 259.412 186.463 259.776L187.233 258.67C187.611 258.936 188.129 259.37 188.395 259.622C188.507 259.524 188.633 259.412 188.745 259.314V263.71H189.963V264.312H184.545V265.81H189.963V268.232H191.685V265.81H197.271V264.312ZM187.485 259.776C186.519 260.854 185.413 261.96 184.643 262.618L185.805 263.864C186.673 262.898 187.583 261.862 188.367 260.882L187.485 259.776ZM201.611 257.48V259.944H200.323V257.48H201.611ZM200.323 264.032V261.4H201.611V264.032H200.323ZM203.165 255.996H198.783V266.748H200.323V265.516H203.165V255.996ZM203.977 264.34C204.551 265.068 205.265 266.09 205.587 266.692L207.043 265.838C206.693 265.222 205.937 264.27 205.363 263.598L203.977 264.34ZM211.355 258.096V256.64H208.205V255.142H206.567V256.64H203.417V258.096H206.567V259.426H203.865V260.868H208.331V261.96H203.431V263.402H208.331V266.412C208.331 266.608 208.261 266.664 208.037 266.664C207.827 266.664 207.057 266.664 206.385 266.636C206.595 267.084 206.847 267.742 206.903 268.204C207.939 268.204 208.709 268.162 209.241 267.924C209.801 267.672 209.955 267.252 209.955 266.454V263.402H211.299V261.96H209.955V260.868H210.977V259.426H208.205V258.096H211.355ZM222.709 262.128V265.796H219.755V261.4H224.011V256.318H222.163V259.79H219.755V255.142H217.907V259.79H215.597V256.318H213.833V261.4H217.907V265.796H214.967V262.142H213.091V267.448H222.709V268.204H224.585V262.128H222.709ZM235.449 261.4H232.705V260.588H235.449V261.4ZM237.059 258.222H235.449V259.244H232.705V258.222H231.165V259.244H229.387V260.588H231.165V262.702H233.293V263.458H229.849V267.532H231.459V264.886H233.293V268.246H234.931V264.886H236.849V266.02C236.849 266.174 236.793 266.216 236.625 266.216C236.471 266.23 235.897 266.23 235.393 266.202C235.575 266.608 235.757 267.182 235.827 267.63C236.723 267.63 237.395 267.63 237.857 267.406C238.375 267.168 238.487 266.776 238.487 266.062V263.458H234.931V262.702H237.059V260.588H239.159V259.244H237.059V258.222ZM234.511 256.458C234.343 255.982 234.077 255.436 233.811 254.974L232.187 255.436C232.341 255.758 232.495 256.108 232.621 256.458H227.455V260.378C227.455 262.422 227.371 265.348 226.209 267.322C226.587 267.49 227.287 267.966 227.567 268.246C228.841 266.076 229.051 262.632 229.051 260.378V257.942H239.271V256.458H234.511ZM7 283.888C6.02 283.888 5.208 284.7 5.208 285.68C5.208 286.66 6.02 287.472 7 287.472C7.98 287.472 8.792 286.66 8.792 285.68C8.792 284.7 7.98 283.888 7 283.888ZM21.434 289.992C21.07 289.992 21 289.852 21 289.46V289.138C21.224 289.348 21.56 289.698 21.7 289.936C22.218 289.642 22.68 289.236 23.044 288.746C23.506 289.166 23.996 289.6 24.262 289.908L25.074 289.096C24.752 288.76 24.122 288.242 23.59 287.836C23.688 287.598 23.786 287.36 23.856 287.122L22.652 286.898C22.428 287.752 21.854 288.564 21 289.054V287.304H20.594C20.706 287.164 20.818 287.024 20.93 286.87H25.69C25.578 289.32 25.424 290.286 25.2 290.566C25.074 290.706 24.962 290.748 24.78 290.748C24.738 290.468 24.71 290.146 24.696 289.894C24.416 289.964 23.898 289.992 23.548 289.992H21.434ZM17.346 287.094H16.394V281.956H17.346V287.094ZM21.196 282.852H24.906V283.566H21.196V282.852ZM21.196 280.976H24.906V281.69H21.196V280.976ZM21.868 285.47C22.008 285.232 22.134 285.022 22.26 284.784H26.432V279.772H19.74V284.784H20.482C20.02 285.554 19.39 286.296 18.746 286.884V280.36H14.91V289.838H16.394V288.718H18.746V288.032C18.928 288.312 19.11 288.592 19.194 288.76C19.334 288.634 19.488 288.508 19.628 288.354V289.432C19.628 290.832 20.02 291.308 21.476 291.308H23.576H23.842C23.926 291.616 23.982 291.938 24.01 292.176C24.626 292.204 25.2 292.19 25.55 292.134C25.956 292.078 26.236 291.966 26.516 291.588C26.908 291.098 27.09 289.67 27.244 286.114C27.258 285.918 27.258 285.47 27.258 285.47H21.868ZM30.128 292.008C30.786 290.65 31.5 289.012 32.06 287.514L30.73 286.576C30.086 288.2 29.218 289.978 28.616 291.07L30.128 292.008ZM31.682 284.28C31.122 283.944 30.03 283.412 29.302 283.076L28.392 284.308C29.12 284.714 30.198 285.302 30.702 285.666L31.682 284.28ZM34.594 287.766V289.166H38.878V287.766H34.594ZM37.1 282.698H36.218V281.326H37.1V282.698ZM39.354 285.554H39.228H38.612C38.374 285.554 38.332 285.54 38.332 285.26V284.14H39.354V285.554ZM34.062 290.188V286.744C34.328 286.954 34.594 287.22 34.734 287.388C36.008 286.632 36.302 285.498 36.302 284.518V284.14H37.044V285.302C37.044 286.506 37.296 286.898 38.388 286.898H39.354V290.188H34.062ZM34.986 284.14V284.49C34.986 285.05 34.846 285.694 34.062 286.24V284.14H34.986ZM41.384 281.326V279.73H32.102V280.64C31.57 280.276 30.492 279.744 29.792 279.366L28.854 280.584C29.568 281.018 30.618 281.634 31.122 282.012L32.102 280.668V281.326H34.762V282.698H32.466V292.218H34.062V291.616H39.354V292.204H41.02V282.698H38.584V281.326H41.384ZM49.91 284.532V283.076C50.204 282.656 50.484 282.222 50.722 281.788H55.076V280.08H42.938V281.788H48.524C47.222 283.93 45.038 286.1 42.49 287.29C42.854 287.668 43.372 288.354 43.638 288.802C45.318 287.934 46.816 286.716 48.09 285.358V292.19H49.91V284.938C51.422 286.1 53.326 287.696 54.194 288.732L55.608 287.458C54.6 286.352 52.444 284.742 50.946 283.664L49.91 284.532ZM60.956 280.864V281.578H58.758V280.864H60.956ZM58.758 283.426V282.67H60.956V283.426H58.758ZM62.524 284.63V279.674H57.134V292.218H58.758V284.63H62.524ZM62.3 287.71V286.66H63.602V287.71H62.3ZM66.598 289.068V287.71H65.058V286.66H66.374V285.344H59.612V286.66H60.886V287.71H59.416V289.068H60.83C60.69 289.782 60.298 290.692 59.402 291.252C59.724 291.476 60.228 291.91 60.466 292.204C61.656 291.392 62.118 290.034 62.258 289.068H63.602V291.952H65.058V289.068H66.598ZM65.03 283.454V282.67H67.298V283.454H65.03ZM67.298 280.864V281.578H65.03V280.864H67.298ZM68.936 279.674H63.448V284.658H67.298V290.258C67.298 290.454 67.228 290.538 67.004 290.538C66.794 290.552 66.108 290.552 65.478 290.524C65.702 290.958 65.926 291.714 65.982 292.176C67.046 292.176 67.774 292.134 68.278 291.854C68.782 291.588 68.936 291.126 68.936 290.272V279.674ZM73.654 286.758V285.904H76.09V286.758H73.654ZM73.654 283.804H76.09V284.658H73.654V283.804ZM80.248 283.804V284.658H77.798V283.804H80.248ZM80.248 286.758H77.798V285.904H80.248V286.758ZM83.384 288.844H77.798V288.088H81.928V282.474H77.798V281.802H82.978V280.29H77.798V279.156H76.09V280.29H71.008V281.802H76.09V282.474H72.058V288.088H76.09V288.844H70.672V290.342H76.09V292.232H77.798V290.342H83.384V288.844ZM89.824 288.746C91.56 288.242 92.582 286.94 92.582 285.358C92.582 284.182 92.064 283.44 91.07 283.44C90.328 283.44 89.698 283.916 89.698 284.7C89.698 285.498 90.328 285.946 91.028 285.946C91.084 285.946 91.14 285.946 91.182 285.932C91.098 286.674 90.468 287.276 89.376 287.626L89.824 288.746ZM102.956 280.864V281.578H100.758V280.864H102.956ZM100.758 283.426V282.67H102.956V283.426H100.758ZM104.524 284.63V279.674H99.134V292.218H100.758V284.63H104.524ZM104.3 287.71V286.66H105.602V287.71H104.3ZM108.598 289.068V287.71H107.058V286.66H108.374V285.344H101.612V286.66H102.886V287.71H101.416V289.068H102.83C102.69 289.782 102.298 290.692 101.402 291.252C101.724 291.476 102.228 291.91 102.466 292.204C103.656 291.392 104.118 290.034 104.258 289.068H105.602V291.952H107.058V289.068H108.598ZM107.03 283.454V282.67H109.298V283.454H107.03ZM109.298 280.864V281.578H107.03V280.864H109.298ZM110.936 279.674H105.448V284.658H109.298V290.258C109.298 290.454 109.228 290.538 109.004 290.538C108.794 290.552 108.108 290.552 107.478 290.524C107.702 290.958 107.926 291.714 107.982 292.176C109.046 292.176 109.774 292.134 110.278 291.854C110.782 291.588 110.936 291.126 110.936 290.272V279.674ZM115.654 286.758V285.904H118.09V286.758H115.654ZM115.654 283.804H118.09V284.658H115.654V283.804ZM122.248 283.804V284.658H119.798V283.804H122.248ZM122.248 286.758H119.798V285.904H122.248V286.758ZM125.384 288.844H119.798V288.088H123.928V282.474H119.798V281.802H124.978V280.29H119.798V279.156H118.09V280.29H113.008V281.802H118.09V282.474H114.058V288.088H118.09V288.844H112.672V290.342H118.09V292.232H119.798V290.342H125.384V288.844ZM133.91 284.532V283.076C134.204 282.656 134.484 282.222 134.722 281.788H139.076V280.08H126.938V281.788H132.524C131.222 283.93 129.038 286.1 126.49 287.29C126.854 287.668 127.372 288.354 127.638 288.802C129.318 287.934 130.816 286.716 132.09 285.358V292.19H133.91V284.938C135.422 286.1 137.326 287.696 138.194 288.732L139.608 287.458C138.6 286.352 136.444 284.742 134.946 283.664L133.91 284.532ZM147.434 289.992C147.07 289.992 147 289.852 147 289.46V289.138C147.224 289.348 147.56 289.698 147.7 289.936C148.218 289.642 148.68 289.236 149.044 288.746C149.506 289.166 149.996 289.6 150.262 289.908L151.074 289.096C150.752 288.76 150.122 288.242 149.59 287.836C149.688 287.598 149.786 287.36 149.856 287.122L148.652 286.898C148.428 287.752 147.854 288.564 147 289.054V287.304H146.594C146.706 287.164 146.818 287.024 146.93 286.87H151.69C151.578 289.32 151.424 290.286 151.2 290.566C151.074 290.706 150.962 290.748 150.78 290.748C150.738 290.468 150.71 290.146 150.696 289.894C150.416 289.964 149.898 289.992 149.548 289.992H147.434ZM143.346 287.094H142.394V281.956H143.346V287.094ZM147.196 282.852H150.906V283.566H147.196V282.852ZM147.196 280.976H150.906V281.69H147.196V280.976ZM147.868 285.47C148.008 285.232 148.134 285.022 148.26 284.784H152.432V279.772H145.74V284.784H146.482C146.02 285.554 145.39 286.296 144.746 286.884V280.36H140.91V289.838H142.394V288.718H144.746V288.032C144.928 288.312 145.11 288.592 145.194 288.76C145.334 288.634 145.488 288.508 145.628 288.354V289.432C145.628 290.832 146.02 291.308 147.476 291.308H149.576H149.842C149.926 291.616 149.982 291.938 150.01 292.176C150.626 292.204 151.2 292.19 151.55 292.134C151.956 292.078 152.236 291.966 152.516 291.588C152.908 291.098 153.09 289.67 153.244 286.114C153.258 285.918 153.258 285.47 153.258 285.47H147.868ZM156.128 292.008C156.786 290.65 157.5 289.012 158.06 287.514L156.73 286.576C156.086 288.2 155.218 289.978 154.616 291.07L156.128 292.008ZM157.682 284.28C157.122 283.944 156.03 283.412 155.302 283.076L154.392 284.308C155.12 284.714 156.198 285.302 156.702 285.666L157.682 284.28ZM160.594 287.766V289.166H164.878V287.766H160.594ZM163.1 282.698H162.218V281.326H163.1V282.698ZM165.354 285.554H165.228H164.612C164.374 285.554 164.332 285.54 164.332 285.26V284.14H165.354V285.554ZM160.062 290.188V286.744C160.328 286.954 160.594 287.22 160.734 287.388C162.008 286.632 162.302 285.498 162.302 284.518V284.14H163.044V285.302C163.044 286.506 163.296 286.898 164.388 286.898H165.354V290.188H160.062ZM160.986 284.14V284.49C160.986 285.05 160.846 285.694 160.062 286.24V284.14H160.986ZM167.384 281.326V279.73H158.102V280.64C157.57 280.276 156.492 279.744 155.792 279.366L154.854 280.584C155.568 281.018 156.618 281.634 157.122 282.012L158.102 280.668V281.326H160.762V282.698H158.466V292.218H160.062V291.616H165.354V292.204H167.02V282.698H164.584V281.326H167.384Z" fill="#FFA0B2"/>
<path d="M6.96 216.32C6.1 215.7 4.38 214.82 3.18 214.3L1.86 216.04C3.08 216.66 4.78 217.62 5.58 218.26L6.96 216.32ZM5.8 221.78C4.92 221.18 3.2 220.34 2.02 219.82L0.76 221.6C1.98 222.2 3.68 223.14 4.48 223.76L5.8 221.78ZM5.06 224.7C3.88 227 2.34 229.48 1.28 231L3.28 232.6C4.5 230.66 5.76 228.38 6.82 226.28L5.06 224.7ZM14.3 229.9V225.82H18.12V223.56H14.3V220.04H18.84V217.78H12.74L14.68 217.08C14.4 216.22 13.7 214.92 13.1 213.98L10.9 214.72C11.46 215.68 12.06 216.94 12.3 217.78H6.98V220.04H11.82V223.56H7.78V225.82H11.82V229.9H6.38V232.16H19.36V229.9H14.3ZM32.6 217.02C32.46 217.44 32.24 217.96 32.04 218.42H27.96C27.84 218 27.62 217.46 27.4 217.02H32.6ZM38.68 218.42H34.48C34.68 218.08 34.88 217.7 35.12 217.3L33.52 217.02H37.62V215.18H31.4C31.24 214.72 31.04 214.22 30.82 213.82L28.5 214.24C28.62 214.52 28.74 214.86 28.84 215.18H22.36V217.02H26.66L25.16 217.32C25.3 217.64 25.46 218.04 25.56 218.42H21.38V220.26H38.68V218.42ZM34.16 223.32H25.88V222.46H34.16V223.32ZM34.16 225.58H25.88V224.72H34.16V225.58ZM36.52 220.98H23.64V227.08H28.72L27.9 227.88C29.02 228.4 30.38 229.24 31.04 229.86L32.5 228.4C32 228 31.18 227.5 30.4 227.08H36.52V220.98ZM22.8 232.24C23.84 231.28 24.68 229.82 25.28 228.56L23.3 227.68C22.76 228.88 21.86 230.22 20.82 231.08L22.8 232.24ZM29.12 230.62C28.22 230.62 28.06 230.56 28.06 230.04V227.96H25.74V230.06C25.74 231.94 26.36 232.52 28.88 232.52H32.1C33.96 232.52 34.6 231.96 34.86 229.74C34.24 229.62 33.3 229.3 32.84 229C32.74 230.4 32.62 230.62 31.88 230.62H29.12ZM34.54 228.34C35.48 229.46 36.48 230.98 36.84 231.96L38.9 231.04C38.46 230.02 37.4 228.56 36.46 227.5L34.54 228.34ZM54.74 228.12H51.14V227.18H54.74V228.12ZM51.14 224.5H54.74V225.36H51.14V224.5ZM45.58 220.52V219.56H48.72V220.52H45.58ZM54.38 219.56V220.52H51.14V219.56H54.38ZM59.24 225.36H57.16V222.9H51.14V222.02H56.82V218.06H51.14V217.24H58.78V215.36H51.14V214.06H48.72V215.36H41.26V217.24H48.72V218.06H43.3V222.02H48.72V222.9H42.8V224.5H48.72V225.36H40.8V227.18H48.72V228.12H42.64V229.84H48.72V230.46C48.72 230.82 48.6 230.94 48.22 230.96C47.9 230.96 46.72 230.96 45.76 230.92C46.06 231.42 46.42 232.24 46.54 232.8C48.24 232.8 49.32 232.76 50.08 232.46C50.86 232.12 51.14 231.64 51.14 230.46V229.84H54.74V230.66H57.16V227.18H59.24V225.36ZM68.04 224.54L65.58 225.34V218.4H67.8V216.2H60.96V218.4H63.18V226.08C62.14 226.4 61.18 226.68 60.42 226.9L61.4 229.18C63.4 228.46 66 227.52 68.42 226.6L68.04 224.54ZM71.08 225.78H76.32V227.06H71.08V225.78ZM71.08 222.86H76.32V224.14H71.08V222.86ZM71.08 220H76.32V221.26H71.08V220ZM78.64 228.8V218.24H74.46C74.62 217.8 74.8 217.34 74.96 216.86H79.38V214.86H68.06V216.86H72.28C72.2 217.3 72.12 217.78 72.02 218.24H68.88V228.8H70.9C69.88 229.62 67.9 230.6 66.28 231.1C66.76 231.54 67.4 232.26 67.72 232.72C69.48 232.16 71.58 231.12 72.9 230.1L71.06 228.8H78.64ZM73.98 230.12C75.28 230.88 77.02 232.02 77.84 232.76L79.72 231.36C78.8 230.6 77 229.54 75.74 228.86L73.98 230.12Z" fill="#FFA0B2"/>
<line y1="242.75" x2="477" y2="242.75" stroke="#FFA0B2" stroke-width="0.5"/>
</svg>
