<svg width="477" height="118" viewBox="0 0 477 118" fill="none" xmlns="http://www.w3.org/2000/svg">
<path d="M13.566 41.578C13.384 41.004 12.922 40.15 12.502 39.506L11.298 40.024C11.704 40.696 12.138 41.592 12.292 42.166L13.566 41.578ZM6.72 45.05H8.19V45.694H6.72V45.05ZM5.53 46.702H9.45V44.042H5.53V46.702ZM9.506 49.964L8.176 50.104V49.698H9.338V48.606H8.176V47.99C8.764 47.92 9.296 47.822 9.772 47.71L8.89 46.786C8.008 47.024 6.51 47.164 5.194 47.234L5.208 47.178L4.144 46.856C4.074 47.57 3.864 48.578 3.71 49.208L4.55 49.516C4.718 48.956 4.942 48.102 5.166 47.318C5.292 47.584 5.418 47.934 5.46 48.172C5.88 48.172 6.314 48.158 6.776 48.116V48.606H5.502V49.698H6.776V50.258C6.174 50.314 5.642 50.37 5.166 50.398L5.11 49.446C4.62 49.544 4.13 49.656 3.64 49.754V46.478H5.096V45.064H3.64V44.042H4.69V42.754C4.746 42.838 4.816 42.908 4.886 42.978L5.068 42.572V43.594H9.8C9.87 45.974 10.01 47.92 10.29 49.348C10.052 49.712 9.786 50.048 9.52 50.356L9.506 49.964ZM2.072 42.656C2.408 42.236 2.716 41.788 3.01 41.312C3.584 41.732 4.144 42.222 4.592 42.656H2.072ZM12.096 44.714C11.942 45.526 11.718 46.296 11.452 47.024C11.368 46.058 11.312 44.924 11.298 43.594H13.552V42.278H11.284C11.27 41.312 11.284 40.276 11.312 39.142H9.744C9.744 40.248 9.758 41.298 9.772 42.278H8.26V41.494H9.436V40.22H8.26V39.142H6.79V40.22H5.558V41.494H6.79V42.278H5.194L5.502 41.606C5.082 41.158 4.382 40.612 3.668 40.122C3.752 39.954 3.836 39.786 3.906 39.618L2.814 39.058C2.254 40.262 1.316 41.41 0.392 42.124C0.574 42.53 0.854 43.468 0.938 43.846C1.12 43.692 1.288 43.51 1.47 43.342V44.042H2.422V45.064H0.756V46.478H2.422V49.978C1.722 50.104 1.106 50.23 0.588 50.314L0.868 51.812C2.058 51.518 3.612 51.154 5.082 50.776L5.194 51.616L8.624 51.196L8.54 51.266C8.848 51.504 9.394 52.022 9.618 52.288C10.038 51.924 10.416 51.504 10.78 51.07C11.116 51.798 11.578 52.19 12.152 52.19C13.188 52.176 13.594 51.756 13.748 49.348C13.412 49.208 12.978 48.858 12.67 48.55C12.628 50.09 12.502 50.636 12.306 50.636C12.11 50.636 11.928 50.272 11.788 49.586C12.53 48.256 13.118 46.702 13.496 44.966L12.096 44.714ZM0.854 47.276C1.036 48.032 1.218 49.026 1.26 49.698L2.226 49.376C2.156 48.732 1.974 47.738 1.764 46.982L0.854 47.276ZM22.092 47.024C22.708 46.646 23.282 46.24 23.814 45.75C24.346 46.226 24.92 46.646 25.564 47.024H22.092ZM22.47 50.286V48.424H25.102V50.286H22.47ZM20.09 45.932H18.55V44.294H19.95V43.398C20.328 43.65 20.832 44.098 21.07 44.35C21.35 44.056 21.63 43.734 21.896 43.384C22.148 43.79 22.428 44.21 22.764 44.616C21.98 45.344 21.056 45.946 20.09 46.366V45.932ZM16.576 41.088H18.424V42.866H16.576V41.088ZM24.766 41.886C24.486 42.474 24.15 43.02 23.744 43.538C23.352 43.062 23.002 42.572 22.722 42.096L22.834 41.886H24.766ZM25.76 40.416L25.466 40.472H23.506C23.632 40.164 23.744 39.842 23.856 39.534L22.274 39.142C21.812 40.668 20.972 42.152 19.95 43.132V39.66H15.12V44.294H17.08V49.558L16.38 49.698V45.274H15.022V49.978L14.392 50.09L14.686 51.686C16.268 51.322 18.396 50.832 20.356 50.342L20.202 48.872L18.55 49.25V47.388H20.09V46.982C20.286 47.248 20.496 47.556 20.608 47.78L20.93 47.64V52.19H22.47V51.714H25.102V52.148H26.698V47.57L26.726 47.584C26.95 47.15 27.426 46.492 27.762 46.184C26.642 45.834 25.676 45.274 24.864 44.63C25.718 43.594 26.376 42.334 26.81 40.864L25.76 40.416ZM9.024 65.136H10.044V63.972H11.328V63H10.044V61.992H9.024V63H7.848V63.972H9.024V65.136ZM5.316 65.136H6.336V63.972H7.512V63H6.336V61.992H5.316V63H4.068V63.972H5.316V65.136ZM9.432 69.936V71.556H6.06V69.936H9.432ZM5.04 72.912H6.06V72.492H9.432V72.912H10.5V69.012H5.04V72.912ZM6.252 67.272C6.756 66.876 7.236 66.408 7.656 65.94C8.124 66.384 8.688 66.852 9.288 67.272H6.252ZM7.5 64.596C6.696 65.784 5.328 66.84 3.984 67.488L3.864 66.816L3.036 67.14V65.292H4.032V64.26H3.036V61.944H1.956V64.26H0.624V65.292H1.956V67.572C1.428 67.776 0.96 67.956 0.552 68.088L0.852 69.192C1.188 69.048 1.572 68.892 1.956 68.724V71.604C1.956 71.772 1.896 71.82 1.752 71.82C1.62 71.82 1.164 71.82 0.696 71.808C0.84 72.108 0.984 72.6 1.008 72.888C1.764 72.9 2.256 72.852 2.592 72.66C2.916 72.492 3.036 72.18 3.036 71.604V68.28L4.044 67.836C4.2 68.064 4.368 68.352 4.44 68.508C4.92 68.244 5.412 67.92 5.892 67.56V68.196H9.576V67.488C10.092 67.836 10.62 68.172 11.112 68.424C11.196 68.148 11.388 67.656 11.556 67.38C10.428 66.912 9.036 66.036 8.22 65.244C8.28 65.172 8.34 65.1 8.388 65.016L7.5 64.596ZM19.656 65.7V67.956C19.656 68.916 19.884 69.3 20.928 69.3H22.356C22.692 69.3 23.04 69.276 23.232 69.216C23.196 68.976 23.172 68.616 23.148 68.328C22.956 68.376 22.56 68.4 22.32 68.4H21.012C20.772 68.4 20.724 68.292 20.724 67.956V67.332H22.896V66.456H20.724V65.7H19.656ZM13.068 69.828C14.148 69.516 15.552 69.108 16.884 68.7L16.764 67.896L16.296 68.028V65.7H15.288V66.456H13.176V67.332H15.288V68.292C14.352 68.544 13.464 68.76 12.804 68.916L13.068 69.828ZM18.576 65.388H23.172V64.38H18.576V63.384C19.932 63.276 21.216 63.12 22.248 62.928L21.756 61.968C19.752 62.364 16.416 62.592 13.644 62.676C13.752 62.916 13.86 63.348 13.884 63.624C15 63.612 16.212 63.564 17.412 63.48V64.38H12.828V65.388H17.412V68.232C16.404 69.78 14.508 71.124 12.432 71.688C12.672 71.916 12.996 72.348 13.164 72.624C14.808 72.084 16.308 71.04 17.412 69.732V72.948H18.576V69.684C19.68 71.004 21.168 72.06 22.824 72.612C22.98 72.324 23.304 71.892 23.544 71.676C21.48 71.112 19.584 69.768 18.576 68.232V65.388ZM33.78 64.308C33.432 65.376 32.808 66.804 32.292 67.692L33.252 68.1C33.792 67.26 34.464 65.916 34.992 64.776L33.78 64.308ZM27.54 67.656C27.312 66.78 26.772 65.268 26.316 64.116L25.236 64.5C25.656 65.676 26.172 67.224 26.376 68.148L27.54 67.656ZM29.436 62.052C29.412 66.228 29.604 70.188 24.588 72.024C24.888 72.252 25.212 72.672 25.368 72.96C27.96 71.964 29.268 70.38 29.952 68.52C30.852 70.704 32.28 72.156 34.716 72.864C34.884 72.552 35.208 72.072 35.46 71.832C32.64 71.148 31.116 69.336 30.408 66.672C30.66 65.208 30.672 63.624 30.684 62.052H29.436ZM38.952 68.52V67.5H41.388V68.52H38.952ZM38.952 65.652H41.388V66.648H38.952V65.652ZM45.024 65.652V66.648H42.54V65.652H45.024ZM45.024 68.52H42.54V67.5H45.024V68.52ZM47.4 70.26H42.54V69.432H46.14V64.728H42.54V63.984H47.004V62.964H42.54V61.932H41.388V62.964H36.996V63.984H41.388V64.728H37.872V69.432H41.388V70.26H36.648V71.268H41.388V72.972H42.54V71.268H47.4V70.26ZM50.412 69.54C50.436 69.192 50.448 68.844 50.448 68.544V68.52H52.788V69.54H50.412ZM52.788 66.636V67.668H50.448V66.636H52.788ZM53.856 65.736H49.44V68.532C49.44 69.708 49.356 71.244 48.576 72.336C48.816 72.456 49.248 72.792 49.428 72.972C49.944 72.264 50.196 71.328 50.328 70.392H52.788V71.748C52.788 71.904 52.74 71.952 52.572 71.964C52.428 71.976 51.9 71.976 51.372 71.952C51.516 72.204 51.672 72.636 51.744 72.912C52.5 72.912 53.04 72.9 53.4 72.72C53.748 72.564 53.856 72.288 53.856 71.772V65.736ZM57.516 71.64C57.516 71.808 57.456 71.856 57.264 71.868C57.084 71.88 56.436 71.88 55.764 71.856C55.92 72.132 56.112 72.612 56.16 72.912C57.06 72.924 57.684 72.888 58.08 72.708C58.488 72.54 58.62 72.24 58.62 71.652V65.508H57.516V71.64ZM56.16 65.844H55.128V70.728H56.16V65.844ZM56.724 63.756C57.06 63.3 57.396 62.772 57.72 62.256L56.508 61.884C56.268 62.448 55.848 63.192 55.452 63.756H51.996L52.608 63.528C52.404 63.072 51.9 62.4 51.456 61.92L50.412 62.28C50.784 62.724 51.204 63.324 51.408 63.756H48.66V64.776H59.352V63.756H56.724ZM62.916 61.968C62.436 62.784 61.44 63.768 60.552 64.368C60.72 64.584 61.008 65.028 61.128 65.292C62.172 64.572 63.276 63.432 63.984 62.376L62.916 61.968ZM63.192 64.584C62.52 65.784 61.416 66.984 60.396 67.752C60.588 68.016 60.864 68.628 60.96 68.88C61.32 68.58 61.704 68.232 62.064 67.848V72.96H63.204V66.48C63.564 65.988 63.9 65.484 64.176 64.992L63.192 64.584ZM68.34 71.52V68.736H70.788V67.668H68.34V65.244H71.16V64.188H67.524L68.58 63.792C68.4 63.276 67.968 62.484 67.584 61.884L66.564 62.244C66.936 62.856 67.332 63.672 67.488 64.188H64.26V65.244H67.176V67.668H64.668V68.736H67.176V71.52H63.912V72.588H71.472V71.52H68.34ZM75.504 65.196C74.82 66.66 73.644 68.088 72.408 68.976C72.672 69.168 73.116 69.552 73.332 69.768C73.74 69.42 74.172 69.012 74.568 68.556V72.948H75.672V67.128C76.02 66.624 76.344 66.084 76.62 65.532L75.504 65.196ZM76.608 61.944H75.516V63.072H72.732V64.128H75.516V65.196H76.608V64.128H77.784V63.072H76.608V61.944ZM79.428 65.244H80.544V64.116H83.244V63.072H80.544V61.944H79.428V63.072H78.204V64.116H79.428V65.244ZM79.98 71.76C79.416 71.76 79.32 71.664 79.32 71.16V68.292H83.232V67.236H79.32V65.364H78.216V71.16C78.216 72.444 78.564 72.792 79.848 72.792H81.9C83.064 72.792 83.364 72.24 83.496 70.404C83.196 70.32 82.74 70.14 82.488 69.948C82.416 71.448 82.332 71.76 81.804 71.76H79.98ZM93.648 66.744V67.392H92.016V66.744H93.648ZM93.648 68.736H92.016V68.064H93.648V68.736ZM89.412 68.736V68.064H91.02V68.736H89.412ZM89.412 66.744H91.02V67.392H89.412V66.744ZM91.92 64.104H91.02V64.716H88.008V65.508H91.02V66.048H88.488V69.432H91.02V69.984H87.9V70.812H91.02V71.58H92.016V70.812H95.22V69.984H92.016V69.432H94.632V66.048H92.016V65.508H95.028V64.716H92.016V64.128H93.024V63.504H95.292V62.628H93.024V61.92H91.92V62.628H90.228V63.504H91.92V64.104ZM87.036 64.272H88.128V63.504H89.736V62.628H88.128V61.92H87.036V62.628H84.744V63.504H87.036V64.272ZM85.272 64.392C85.668 64.824 86.16 65.436 86.4 65.82L87.336 65.364C87.096 65.016 86.616 64.452 86.184 64.02L85.272 64.392ZM87.372 68.4L87.192 68.436H86.256C86.868 67.764 87.6 66.852 88.032 66.3L87.324 65.94L87.132 66.024H84.804V66.924H86.4C85.98 67.452 85.512 68.028 85.296 68.22C85.068 68.424 84.876 68.508 84.708 68.556C84.816 68.748 85.02 69.24 85.08 69.492C85.176 69.396 85.512 69.312 85.8 69.312H86.664C86.196 70.584 85.368 71.568 84.348 72.132C84.54 72.288 84.864 72.72 84.972 72.96C85.632 72.576 86.232 72.012 86.736 71.292C87.648 72.612 89.052 72.852 91.344 72.852C92.628 72.852 94.092 72.816 95.22 72.756C95.28 72.456 95.412 71.964 95.568 71.736C94.344 71.856 92.568 71.916 91.356 71.916C89.328 71.904 87.936 71.736 87.204 70.512C87.48 69.972 87.72 69.36 87.876 68.676L87.372 68.4ZM105.78 64.308C105.432 65.376 104.808 66.804 104.292 67.692L105.252 68.1C105.792 67.26 106.464 65.916 106.992 64.776L105.78 64.308ZM99.54 67.656C99.312 66.78 98.772 65.268 98.316 64.116L97.236 64.5C97.656 65.676 98.172 67.224 98.376 68.148L99.54 67.656ZM101.436 62.052C101.412 66.228 101.604 70.188 96.588 72.024C96.888 72.252 97.212 72.672 97.368 72.96C99.96 71.964 101.268 70.38 101.952 68.52C102.852 70.704 104.28 72.156 106.716 72.864C106.884 72.552 107.208 72.072 107.46 71.832C104.64 71.148 103.116 69.336 102.408 66.672C102.66 65.208 102.672 63.624 102.684 62.052H101.436ZM110.952 68.52V67.5H113.388V68.52H110.952ZM110.952 65.652H113.388V66.648H110.952V65.652ZM117.024 65.652V66.648H114.54V65.652H117.024ZM117.024 68.52H114.54V67.5H117.024V68.52ZM119.4 70.26H114.54V69.432H118.14V64.728H114.54V63.984H119.004V62.964H114.54V61.932H113.388V62.964H108.996V63.984H113.388V64.728H109.872V69.432H113.388V70.26H108.648V71.268H113.388V72.972H114.54V71.268H119.4V70.26ZM123.852 63.744C123.708 63.264 123.372 62.544 123.036 62.004L122.076 62.28C122.376 62.844 122.712 63.6 122.844 64.08L123.852 63.744ZM124.056 69.936C124.356 68.748 124.668 67.056 124.896 65.688L123.852 65.508C123.72 66.924 123.42 68.928 123.12 70.152C122.172 70.38 121.284 70.56 120.6 70.704L120.84 71.808C122.088 71.508 123.756 71.088 125.304 70.704L125.196 69.672L124.056 69.936ZM121.152 65.796C121.404 67.104 121.632 68.796 121.68 69.924L122.604 69.744C122.532 68.604 122.304 66.948 122.028 65.628L121.152 65.796ZM120.72 65.136H125.388V64.104H120.72V65.136ZM129.9 71.328H126.648V68.616H129.9V71.328ZM131.496 65.34V64.272H128.592V61.92H127.452V67.572H125.568V72.924H126.648V72.372H129.9V72.876H131.028V67.572H128.592V65.34H131.496ZM3.504 86.196C2.82 87.66 1.644 89.088 0.408 89.976C0.672 90.168 1.116 90.552 1.332 90.768C1.74 90.42 2.172 90.012 2.568 89.556V93.948H3.672V88.128C4.02 87.624 4.344 87.084 4.62 86.532L3.504 86.196ZM4.608 82.944H3.516V84.072H0.732V85.128H3.516V86.196H4.608V85.128H5.784V84.072H4.608V82.944ZM7.428 86.244H8.544V85.116H11.244V84.072H8.544V82.944H7.428V84.072H6.204V85.116H7.428V86.244ZM7.98 92.76C7.416 92.76 7.32 92.664 7.32 92.16V89.292H11.232V88.236H7.32V86.364H6.216V92.16C6.216 93.444 6.564 93.792 7.848 93.792H9.9C11.064 93.792 11.364 93.24 11.496 91.404C11.196 91.32 10.74 91.14 10.488 90.948C10.416 92.448 10.332 92.76 9.804 92.76H7.98ZM21.648 87.744V88.392H20.016V87.744H21.648ZM21.648 89.736H20.016V89.064H21.648V89.736ZM17.412 89.736V89.064H19.02V89.736H17.412ZM17.412 87.744H19.02V88.392H17.412V87.744ZM19.92 85.104H19.02V85.716H16.008V86.508H19.02V87.048H16.488V90.432H19.02V90.984H15.9V91.812H19.02V92.58H20.016V91.812H23.22V90.984H20.016V90.432H22.632V87.048H20.016V86.508H23.028V85.716H20.016V85.128H21.024V84.504H23.292V83.628H21.024V82.92H19.92V83.628H18.228V84.504H19.92V85.104ZM15.036 85.272H16.128V84.504H17.736V83.628H16.128V82.92H15.036V83.628H12.744V84.504H15.036V85.272ZM13.272 85.392C13.668 85.824 14.16 86.436 14.4 86.82L15.336 86.364C15.096 86.016 14.616 85.452 14.184 85.02L13.272 85.392ZM15.372 89.4L15.192 89.436H14.256C14.868 88.764 15.6 87.852 16.032 87.3L15.324 86.94L15.132 87.024H12.804V87.924H14.4C13.98 88.452 13.512 89.028 13.296 89.22C13.068 89.424 12.876 89.508 12.708 89.556C12.816 89.748 13.02 90.24 13.08 90.492C13.176 90.396 13.512 90.312 13.8 90.312H14.664C14.196 91.584 13.368 92.568 12.348 93.132C12.54 93.288 12.864 93.72 12.972 93.96C13.632 93.576 14.232 93.012 14.736 92.292C15.648 93.612 17.052 93.852 19.344 93.852C20.628 93.852 22.092 93.816 23.22 93.756C23.28 93.456 23.412 92.964 23.568 92.736C22.344 92.856 20.568 92.916 19.356 92.916C17.328 92.904 15.936 92.736 15.204 91.512C15.48 90.972 15.72 90.36 15.876 89.676L15.372 89.4ZM26.952 89.52V88.5H29.388V89.52H26.952ZM26.952 86.652H29.388V87.648H26.952V86.652ZM33.024 86.652V87.648H30.54V86.652H33.024ZM33.024 89.52H30.54V88.5H33.024V89.52ZM35.4 91.26H30.54V90.432H34.14V85.728H30.54V84.984H35.004V83.964H30.54V82.932H29.388V83.964H24.996V84.984H29.388V85.728H25.872V90.432H29.388V91.26H24.648V92.268H29.388V93.972H30.54V92.268H35.4V91.26ZM39.852 84.744C39.708 84.264 39.372 83.544 39.036 83.004L38.076 83.28C38.376 83.844 38.712 84.6 38.844 85.08L39.852 84.744ZM40.056 90.936C40.356 89.748 40.668 88.056 40.896 86.688L39.852 86.508C39.72 87.924 39.42 89.928 39.12 91.152C38.172 91.38 37.284 91.56 36.6 91.704L36.84 92.808C38.088 92.508 39.756 92.088 41.304 91.704L41.196 90.672L40.056 90.936ZM37.152 86.796C37.404 88.104 37.632 89.796 37.68 90.924L38.604 90.744C38.532 89.604 38.304 87.948 38.028 86.628L37.152 86.796ZM36.72 86.136H41.388V85.104H36.72V86.136ZM45.9 92.328H42.648V89.616H45.9V92.328ZM47.496 86.34V85.272H44.592V82.92H43.452V88.572H41.568V93.924H42.648V93.372H45.9V93.876H47.028V88.572H44.592V86.34H47.496ZM57.024 86.136H58.044V84.972H59.328V84H58.044V82.992H57.024V84H55.848V84.972H57.024V86.136ZM53.316 86.136H54.336V84.972H55.512V84H54.336V82.992H53.316V84H52.068V84.972H53.316V86.136ZM57.432 90.936V92.556H54.06V90.936H57.432ZM53.04 93.912H54.06V93.492H57.432V93.912H58.5V90.012H53.04V93.912ZM54.252 88.272C54.756 87.876 55.236 87.408 55.656 86.94C56.124 87.384 56.688 87.852 57.288 88.272H54.252ZM55.5 85.596C54.696 86.784 53.328 87.84 51.984 88.488L51.864 87.816L51.036 88.14V86.292H52.032V85.26H51.036V82.944H49.956V85.26H48.624V86.292H49.956V88.572C49.428 88.776 48.96 88.956 48.552 89.088L48.852 90.192C49.188 90.048 49.572 89.892 49.956 89.724V92.604C49.956 92.772 49.896 92.82 49.752 92.82C49.62 92.82 49.164 92.82 48.696 92.808C48.84 93.108 48.984 93.6 49.008 93.888C49.764 93.9 50.256 93.852 50.592 93.66C50.916 93.492 51.036 93.18 51.036 92.604V89.28L52.044 88.836C52.2 89.064 52.368 89.352 52.44 89.508C52.92 89.244 53.412 88.92 53.892 88.56V89.196H57.576V88.488C58.092 88.836 58.62 89.172 59.112 89.424C59.196 89.148 59.388 88.656 59.556 88.38C58.428 87.912 57.036 87.036 56.22 86.244C56.28 86.172 56.34 86.1 56.388 86.016L55.5 85.596ZM67.656 86.7V88.956C67.656 89.916 67.884 90.3 68.928 90.3H70.356C70.692 90.3 71.04 90.276 71.232 90.216C71.196 89.976 71.172 89.616 71.148 89.328C70.956 89.376 70.56 89.4 70.32 89.4H69.012C68.772 89.4 68.724 89.292 68.724 88.956V88.332H70.896V87.456H68.724V86.7H67.656ZM61.068 90.828C62.148 90.516 63.552 90.108 64.884 89.7L64.764 88.896L64.296 89.028V86.7H63.288V87.456H61.176V88.332H63.288V89.292C62.352 89.544 61.464 89.76 60.804 89.916L61.068 90.828ZM66.576 86.388H71.172V85.38H66.576V84.384C67.932 84.276 69.216 84.12 70.248 83.928L69.756 82.968C67.752 83.364 64.416 83.592 61.644 83.676C61.752 83.916 61.86 84.348 61.884 84.624C63 84.612 64.212 84.564 65.412 84.48V85.38H60.828V86.388H65.412V89.232C64.404 90.78 62.508 92.124 60.432 92.688C60.672 92.916 60.996 93.348 61.164 93.624C62.808 93.084 64.308 92.04 65.412 90.732V93.948H66.576V90.684C67.68 92.004 69.168 93.06 70.824 93.612C70.98 93.324 71.304 92.892 71.544 92.676C69.48 92.112 67.584 90.768 66.576 89.232V86.388ZM77.748 84.936H75.048L75.924 84.444C75.732 84.012 75.36 83.376 75.024 82.872L74.148 83.316C74.472 83.808 74.832 84.492 75.024 84.936H72.792V85.824H77.748V84.936ZM77.22 88.116H73.308V88.98H77.22V88.116ZM76.284 90.636V92.352H74.34V90.636H76.284ZM77.244 89.736H73.38V93.792H74.34V93.252H77.244V89.736ZM73.308 87.408H77.244V86.532H73.308V87.408ZM83.448 86.988H81.096V83.16H79.944V86.988H77.724V88.08H79.944V93.948H81.096V88.08H83.448V86.988ZM93.768 86.46H90.456V84.444H93.768V86.46ZM94.848 83.496H89.424V87.408H94.848V83.496ZM89.112 89.496C88.896 89.22 87.876 88.176 87.528 87.876V87.324H88.932V86.268H87.528V84.408C88.08 84.276 88.608 84.12 89.064 83.94L88.296 83.088C87.384 83.484 85.848 83.832 84.504 84.048C84.624 84.288 84.78 84.672 84.828 84.912C85.344 84.84 85.896 84.756 86.448 84.648V86.268H84.6V87.324H86.304C85.848 88.596 85.08 90.024 84.372 90.84C84.54 91.104 84.804 91.56 84.912 91.872C85.452 91.2 86.004 90.168 86.448 89.076V93.924H87.528V88.98C87.888 89.472 88.284 90.036 88.464 90.372L89.112 89.496ZM92.652 92.676V91.296H94.944V90.336H92.652V88.992C93.54 88.884 94.392 88.74 95.076 88.56L94.392 87.732C93.12 88.068 90.9 88.296 89.04 88.416C89.148 88.644 89.28 89.028 89.304 89.256C90.012 89.232 90.78 89.184 91.548 89.112V90.336H89.316V91.296H91.548V92.676H88.68V93.672H95.436V92.676H92.652ZM98.952 89.52V88.5H101.388V89.52H98.952ZM98.952 86.652H101.388V87.648H98.952V86.652ZM105.024 86.652V87.648H102.54V86.652H105.024ZM105.024 89.52H102.54V88.5H105.024V89.52ZM107.4 91.26H102.54V90.432H106.14V85.728H102.54V84.984H107.004V83.964H102.54V82.932H101.388V83.964H96.996V84.984H101.388V85.728H97.872V90.432H101.388V91.26H96.648V92.268H101.388V93.972H102.54V92.268H107.4V91.26ZM113.616 89.856C113.496 89.22 113.148 88.176 112.824 87.372L111.924 87.6C112.044 87.912 112.176 88.272 112.284 88.62L110.436 88.872C111.42 87.852 112.404 86.604 113.232 85.368L112.284 84.756C111.996 85.26 111.672 85.764 111.336 86.232L110.052 86.34C110.76 85.476 111.468 84.396 112.032 83.352L111.012 82.908C110.46 84.192 109.548 85.512 109.248 85.86C108.972 86.208 108.744 86.448 108.504 86.484C108.636 86.772 108.804 87.276 108.864 87.492C109.032 87.396 109.332 87.336 110.628 87.18C110.172 87.768 109.752 88.224 109.56 88.416C109.14 88.848 108.852 89.112 108.552 89.172C108.684 89.472 108.852 90 108.912 90.204C109.176 90.072 109.608 89.964 112.536 89.496C112.596 89.736 112.644 89.952 112.68 90.132L113.616 89.856ZM109.26 90.66C109.092 91.608 108.828 92.676 108.492 93.396C108.768 93.468 109.224 93.612 109.452 93.72C109.74 93.012 110.064 91.884 110.244 90.852L109.26 90.66ZM110.724 90.792C110.868 91.632 111.024 92.724 111.06 93.456L111.996 93.204C111.948 92.484 111.768 91.416 111.6 90.576L110.724 90.792ZM112.164 90.576C112.44 91.308 112.752 92.256 112.884 92.856L113.748 92.532C113.604 91.92 113.28 91.008 112.98 90.3L112.164 90.576ZM117.12 90.156C116.736 89.436 115.812 88.368 115.008 87.636L114.228 88.2C115.044 88.968 115.92 90.084 116.292 90.804L117.12 90.156ZM115.272 85.104C115.488 84.48 115.692 83.82 115.86 83.16L114.756 82.944C114.396 84.552 113.76 86.172 112.92 87.192C113.196 87.348 113.676 87.672 113.892 87.828C114.216 87.372 114.54 86.796 114.828 86.16H117.996C117.876 90.516 117.708 92.256 117.372 92.628C117.252 92.784 117.108 92.82 116.892 92.82C116.592 92.82 115.92 92.82 115.188 92.76C115.38 93.072 115.524 93.564 115.548 93.864C116.232 93.9 116.94 93.924 117.36 93.864C117.804 93.804 118.104 93.684 118.392 93.288C118.848 92.712 118.992 90.9 119.136 85.668C119.136 85.512 119.148 85.104 119.148 85.104H115.272ZM123.216 93.156C124.836 93.156 126.168 92.22 126.168 90.624C126.168 89.436 125.364 88.668 124.344 88.416V88.356C125.28 88.008 125.868 87.3 125.868 86.28C125.868 84.828 124.752 84 123.168 84C122.148 84 121.332 84.444 120.636 85.068L121.356 85.932C121.86 85.44 122.436 85.116 123.12 85.104C123.96 85.116 124.476 85.596 124.476 86.376C124.476 87.264 123.9 87.924 122.16 87.924V88.944C124.152 88.944 124.776 89.58 124.776 90.552C124.776 91.476 124.092 92.028 123.096 92.028C122.184 92.028 121.524 91.584 121.008 91.056L120.336 91.944C120.924 92.604 121.824 93.156 123.216 93.156ZM130.264 93.156C131.992 93.156 133.12 91.62 133.12 88.548C133.12 85.5 131.992 84 130.264 84C128.536 84 127.408 85.488 127.408 88.548C127.408 91.62 128.536 93.156 130.264 93.156ZM130.264 92.064C129.364 92.064 128.728 91.104 128.728 88.548C128.728 86.016 129.364 85.092 130.264 85.092C131.164 85.092 131.8 86.016 131.8 88.548C131.8 91.104 131.164 92.064 130.264 92.064ZM139.088 83.136V84.168H141.104C141.56 85.332 142.268 86.448 143.144 87.372H136.232C137.096 86.34 137.804 85.044 138.284 83.616L137.12 83.34C136.544 85.152 135.464 86.76 134.083 87.744C134.36 87.924 134.828 88.344 135.032 88.56C135.368 88.296 135.704 87.972 136.016 87.624V88.452H138.272C138.008 90.36 137.372 92.1 134.6 93.024C134.864 93.252 135.188 93.72 135.32 94.02C138.392 92.892 139.172 90.78 139.484 88.452H142.244C142.124 91.248 141.968 92.376 141.692 92.664C141.56 92.796 141.416 92.832 141.188 92.832C140.9 92.832 140.216 92.82 139.496 92.748C139.688 93.072 139.844 93.54 139.855 93.876C140.588 93.912 141.32 93.924 141.716 93.876C142.148 93.816 142.436 93.72 142.7 93.384C143.12 92.916 143.276 91.524 143.432 87.876C143.432 87.828 143.444 87.744 143.444 87.672C143.78 87.996 144.152 88.284 144.536 88.536C144.716 88.212 145.088 87.744 145.34 87.516C143.744 86.652 142.496 84.948 141.932 83.136H139.088ZM148.844 88.968H150.284V88.02H148.844V86.88H149.936V85.944H147.392C147.74 85.512 148.1 85.032 148.412 84.516C149.096 85.02 149.768 85.62 150.2 86.088L150.644 85.164C150.224 84.744 149.564 84.18 148.868 83.724C148.952 83.556 149.036 83.4 149.108 83.244L148.316 82.86C147.8 83.988 146.936 85.056 146.083 85.74C146.216 86.016 146.432 86.628 146.492 86.868C146.66 86.712 146.84 86.544 147.02 86.352V86.88H147.992V88.02H146.408V88.968H147.992V92.208C147.332 92.352 146.732 92.472 146.264 92.568L146.479 93.564C147.536 93.312 148.976 92.964 150.32 92.628L150.272 91.728C149.792 91.836 149.312 91.944 148.844 92.04V88.968ZM146.564 89.7C146.732 90.396 146.912 91.272 146.948 91.86L147.656 91.644C147.596 91.068 147.416 90.192 147.224 89.508L146.564 89.7ZM149.66 91.716C149.84 91.176 150.056 90.348 150.26 89.628L149.492 89.388C149.408 90.012 149.204 90.924 149.048 91.5L149.66 91.716ZM152.084 89.376H153.392V90.06H152.084V89.376ZM152.084 88.044H153.392V88.704H152.084V88.044ZM155.696 88.704H154.328V88.044H155.696V88.704ZM155.696 90.06H154.328V89.376H155.696V90.06ZM154.388 92.136H156.824V91.332H154.388V90.768H156.68V87.348H151.124V90.768H153.332V91.332H150.98V92.136H153.332V92.832H150.488V93.66H157.232V92.832H154.388V92.136ZM154.988 84.864C154.892 85.188 154.712 85.62 154.568 85.98H153.092L153.14 85.968C153.068 85.68 152.912 85.2 152.72 84.864H154.988ZM155.576 85.98C155.744 85.692 155.924 85.344 156.08 85.02L155.264 84.864H156.98V83.988H154.556C154.46 83.652 154.244 83.196 154.016 82.872L152.996 83.124C153.14 83.376 153.296 83.688 153.392 83.988H150.824V84.864H152.516L151.784 85.02C151.916 85.308 152.048 85.68 152.12 85.98H150.512V86.856H157.268V85.98H155.576ZM163.388 87.504V89.904H160.628V87.504H163.388ZM164.492 90.96V86.448H159.548V91.896H160.628V90.96H164.492ZM169.028 83.76H158.372V84.876H166.436V92.436C166.436 92.688 166.352 92.76 166.088 92.772C165.8 92.772 164.804 92.784 163.892 92.736C164.072 93.06 164.299 93.612 164.36 93.936C165.56 93.936 166.4 93.924 166.916 93.72C167.42 93.552 167.6 93.18 167.6 92.46V84.876H169.028V83.76ZM173.804 88.056L172.712 88.392V86.304H173.912V85.272H172.712V82.956H171.692V85.272H170.3V86.304H171.692V88.692C171.104 88.86 170.564 89.016 170.132 89.112L170.396 90.204L171.692 89.796V92.604C171.692 92.772 171.632 92.82 171.488 92.82C171.356 92.82 170.9 92.82 170.432 92.808C170.564 93.096 170.696 93.576 170.732 93.84C171.488 93.84 171.968 93.804 172.292 93.624C172.604 93.456 172.712 93.156 172.712 92.604V89.484C173.12 89.352 173.54 89.208 173.948 89.088L173.804 88.056ZM175.472 93.66H178.484V92.748H175.472V93.66ZM175.652 87.048V84.996C176.276 84.912 176.924 84.792 177.548 84.66C177.584 85.5 177.632 86.292 177.692 87.048H175.652ZM181.052 88.08V87.048H178.7C178.628 86.22 178.58 85.344 178.556 84.432C179.312 84.252 180.02 84.048 180.62 83.82L179.756 82.992C178.544 83.484 176.467 83.94 174.62 84.24L174.632 84.264L174.608 84.252V91.164C174.608 91.632 174.296 91.86 174.068 91.968C174.224 92.184 174.416 92.616 174.476 92.856C174.692 92.688 175.064 92.508 177.404 91.62C177.368 91.416 177.308 91.02 177.308 90.756L175.652 91.32V88.08H177.788C178.124 91.452 178.808 93.768 180.08 93.78C180.536 93.792 180.992 93.3 181.244 91.476C181.064 91.392 180.656 91.128 180.476 90.924C180.404 91.968 180.26 92.532 180.068 92.532C179.528 92.52 179.06 90.672 178.796 88.08H181.052ZM190.448 87.372H187.712L188.288 87.228C188.228 86.94 188.036 86.496 187.808 86.16H190.448C190.316 86.496 190.112 86.928 189.968 87.228L190.448 87.372ZM186.788 86.28C186.992 86.604 187.172 87.048 187.244 87.372H185.732V88.2H188.636V88.884H186.128V89.688H188.636V90.432H185.636V91.26H188.636V92.448H189.74V91.26H192.86V90.432H189.74V89.688H192.32V88.884H189.74V88.2H192.788V87.372H190.94C191.132 87.072 191.348 86.676 191.588 86.292L191.084 86.16H192.932V85.32H189.74V84.564H192.224V83.748H189.74V82.932H188.636V83.748H186.164V84.564H188.636V85.32H185.468V86.16H187.292L186.788 86.28ZM184.928 84.756C184.616 84.276 184.004 83.508 183.488 82.932L182.636 83.436C183.128 84.024 183.752 84.852 184.052 85.356L184.928 84.756ZM184.771 88.596L184.58 88.62H183.584C184.184 87.804 184.94 86.604 185.372 85.92L184.664 85.644L184.544 85.692H182.276V86.592H183.884C183.44 87.3 182.888 88.128 182.66 88.38C182.468 88.596 182.276 88.68 182.096 88.728C182.204 88.932 182.42 89.424 182.468 89.676C182.564 89.58 182.9 89.496 183.176 89.496H184.148C183.788 91.224 183.08 92.496 182.083 93.216C182.312 93.372 182.672 93.744 182.828 93.972C183.38 93.54 183.86 92.964 184.244 92.196C185.18 93.516 186.632 93.756 188.96 93.756C190.304 93.756 191.804 93.72 192.968 93.648C193.028 93.36 193.172 92.856 193.34 92.616C192.068 92.736 190.232 92.796 188.972 92.796C186.836 92.796 185.396 92.604 184.652 91.272C184.916 90.552 185.12 89.724 185.252 88.788L184.771 88.596ZM198.692 90.888C200.06 90.444 200.9 89.412 200.9 88.08C200.9 87.168 200.504 86.58 199.747 86.58C199.196 86.58 198.728 86.928 198.728 87.54C198.728 88.164 199.196 88.5 199.736 88.5C199.796 88.5 199.855 88.5 199.904 88.488C199.844 89.208 199.304 89.76 198.38 90.108L198.692 90.888ZM208.64 89.52V88.5H211.076V89.52H208.64ZM208.64 86.652H211.076V87.648H208.64V86.652ZM214.712 86.652V87.648H212.228V86.652H214.712ZM214.712 89.52H212.228V88.5H214.712V89.52ZM217.088 91.26H212.228V90.432H215.828V85.728H212.228V84.984H216.692V83.964H212.228V82.932H211.076V83.964H206.684V84.984H211.076V85.728H207.56V90.432H211.076V91.26H206.336V92.268H211.076V93.972H212.228V92.268H217.088V91.26ZM221.492 83.592H218.552V84.432H221.492V83.592ZM225.68 84.54H227.348C227.18 84.84 227 85.152 226.844 85.368L227.72 85.68C228.056 85.236 228.464 84.54 228.764 83.904L227.996 83.652L227.84 83.7H224.096C224.18 83.496 224.252 83.304 224.324 83.1L223.328 82.884C223.064 83.724 222.572 84.552 221.948 85.092C222.2 85.212 222.608 85.5 222.788 85.656C223.1 85.356 223.4 84.972 223.664 84.54H224.66V84.696C224.66 85.212 224.384 85.884 221.78 86.22V85.428H218.3V86.304H221.348C221.552 86.508 221.804 86.88 221.912 87.132C223.976 86.844 224.924 86.328 225.356 85.776C226.112 86.472 227.204 86.904 228.572 87.096C228.68 86.808 228.956 86.412 229.172 86.184C227.588 86.088 226.304 85.68 225.656 85.02C225.68 84.912 225.68 84.816 225.68 84.732V84.54ZM220.94 90.6H226.568V91.296H220.94V90.6ZM220.94 89.244H226.568V89.916H220.94V89.244ZM220.94 87.888H226.568V88.572H220.94V87.888ZM227.684 92.004V87.18H219.86V92.004H221.792C220.964 92.472 219.56 92.88 218.336 93.12C218.576 93.324 218.972 93.732 219.164 93.96C220.364 93.624 221.864 93.048 222.836 92.46L221.84 92.004H225.428L224.732 92.568C225.968 92.988 227.228 93.528 227.96 93.924L228.968 93.312C228.152 92.916 226.82 92.412 225.584 92.004H227.684ZM235.304 89.856C235.184 89.22 234.836 88.176 234.512 87.372L233.612 87.6C233.732 87.912 233.864 88.272 233.972 88.62L232.124 88.872C233.108 87.852 234.092 86.604 234.92 85.368L233.972 84.756C233.684 85.26 233.36 85.764 233.024 86.232L231.74 86.34C232.448 85.476 233.156 84.396 233.72 83.352L232.7 82.908C232.148 84.192 231.236 85.512 230.936 85.86C230.66 86.208 230.432 86.448 230.192 86.484C230.324 86.772 230.492 87.276 230.552 87.492C230.72 87.396 231.02 87.336 232.316 87.18C231.86 87.768 231.44 88.224 231.248 88.416C230.828 88.848 230.54 89.112 230.24 89.172C230.372 89.472 230.54 90 230.6 90.204C230.864 90.072 231.296 89.964 234.224 89.496C234.284 89.736 234.332 89.952 234.368 90.132L235.304 89.856ZM230.948 90.66C230.78 91.608 230.516 92.676 230.18 93.396C230.456 93.468 230.912 93.612 231.14 93.72C231.428 93.012 231.752 91.884 231.932 90.852L230.948 90.66ZM232.412 90.792C232.556 91.632 232.712 92.724 232.748 93.456L233.684 93.204C233.636 92.484 233.456 91.416 233.288 90.576L232.412 90.792ZM233.852 90.576C234.128 91.308 234.44 92.256 234.572 92.856L235.436 92.532C235.292 91.92 234.968 91.008 234.668 90.3L233.852 90.576ZM238.808 90.156C238.424 89.436 237.5 88.368 236.696 87.636L235.916 88.2C236.732 88.968 237.608 90.084 237.98 90.804L238.808 90.156ZM236.96 85.104C237.176 84.48 237.38 83.82 237.548 83.16L236.444 82.944C236.084 84.552 235.448 86.172 234.608 87.192C234.884 87.348 235.364 87.672 235.58 87.828C235.904 87.372 236.228 86.796 236.516 86.16H239.684C239.564 90.516 239.396 92.256 239.06 92.628C238.94 92.784 238.796 92.82 238.58 92.82C238.28 92.82 237.608 92.82 236.876 92.76C237.068 93.072 237.212 93.564 237.236 93.864C237.92 93.9 238.628 93.924 239.048 93.864C239.492 93.804 239.792 93.684 240.08 93.288C240.536 92.712 240.68 90.9 240.824 85.668C240.824 85.512 240.836 85.104 240.836 85.104H236.96ZM242.852 93H244.172V88.836C244.172 87.876 244.064 86.856 243.992 85.944H244.052L244.976 87.792L247.904 93H249.332V84.156H248.012V88.284C248.012 89.244 248.12 90.312 248.192 91.224H248.132L247.208 89.352L244.28 84.156H242.852V93ZM253.464 93H254.856V85.332H257.46V84.156H250.872V85.332H253.464V93ZM260.8 94.476H261.76V93.108C263.08 92.88 263.848 91.968 263.848 90.684C263.848 87.888 260.14 88.296 260.14 86.544C260.14 85.812 260.62 85.38 261.388 85.38C262.072 85.38 262.48 85.644 262.984 86.112L263.692 85.308C263.2 84.78 262.624 84.372 261.76 84.264V82.92H260.8V84.276C259.588 84.48 258.808 85.356 258.808 86.604C258.808 89.172 262.516 88.836 262.516 90.78C262.516 91.56 262.06 92.028 261.124 92.028C260.368 92.028 259.708 91.668 259.096 91.164L258.472 92.112C259.072 92.652 259.96 93.06 260.8 93.144V94.476ZM267.884 93.156C269.432 93.156 270.86 92.052 270.86 90.096C270.86 88.164 269.648 87.288 268.172 87.288C267.692 87.288 267.344 87.408 266.96 87.6L267.164 85.332H270.44V84.156H265.964L265.7 88.356L266.372 88.8C266.888 88.464 267.224 88.296 267.788 88.296C268.796 88.296 269.468 88.968 269.468 90.144C269.468 91.32 268.712 92.028 267.716 92.028C266.792 92.028 266.156 91.584 265.652 91.08L264.992 91.98C265.616 92.592 266.492 93.156 267.884 93.156ZM274.932 93.156C276.66 93.156 277.788 91.62 277.788 88.548C277.788 85.5 276.66 84 274.932 84C273.204 84 272.076 85.488 272.076 88.548C272.076 91.62 273.204 93.156 274.932 93.156ZM274.932 92.064C274.032 92.064 273.396 91.104 273.396 88.548C273.396 86.016 274.032 85.092 274.932 85.092C275.832 85.092 276.468 86.016 276.468 88.548C276.468 91.104 275.832 92.064 274.932 92.064ZM281.775 93.156C283.503 93.156 284.631 91.62 284.631 88.548C284.631 85.5 283.503 84 281.775 84C280.047 84 278.919 85.488 278.919 88.548C278.919 91.62 280.047 93.156 281.775 93.156ZM281.775 92.064C280.875 92.064 280.239 91.104 280.239 88.548C280.239 86.016 280.875 85.092 281.775 85.092C282.675 85.092 283.311 86.016 283.311 88.548C283.311 91.104 282.675 92.064 281.775 92.064ZM5.4 105.852H1.836V106.56H10.176V105.852H6.528V105.324H11.136V104.592H6.528V103.92H5.4V104.592H0.912V105.324H5.4V105.852ZM10.86 109.032C11.028 108.54 11.232 107.796 11.388 107.136L10.62 106.992L10.44 107.028H0.78V107.82H10.164C10.08 108.204 9.984 108.588 9.912 108.864L10.86 109.032ZM1.584 109.392V110.028H10.392V109.392H6.504V108.888H9.36V108.264H2.496V108.888H5.412V109.392H1.584ZM4.14 112.512V113.58H2.4V112.512H4.14ZM5.136 111.78H1.44V114.72H2.4V114.324H5.136V111.78ZM11.496 111.3V110.472H0.504V111.3H8.964V111.912H5.544V112.692H6.588L5.94 113.16C6.336 113.508 6.804 114.012 6.996 114.36L7.752 113.784C7.536 113.46 7.104 113.016 6.708 112.692H8.964V113.988C8.964 114.108 8.928 114.132 8.808 114.132C8.688 114.132 8.292 114.132 7.896 114.12C8.016 114.372 8.124 114.684 8.184 114.948C8.82 114.948 9.276 114.948 9.588 114.816C9.912 114.684 9.996 114.48 9.996 114.012V112.692H11.088V111.912H9.996V111.3H11.496ZM22.632 104.232H21.636V107.88H20.4V107.352H21.348V106.788H20.4V106.32H21.216V105.756H20.4V105.288H21.288V104.724H20.4V104.112H19.704V104.724H18.816V105.288H19.704V105.756H18.888V106.32H19.704V106.788H18.768V107.352H19.704V107.88H18.468V103.92H17.496V107.88H16.248V107.352H17.196V106.788H16.248V106.32H17.076V105.756H16.248V105.288H17.136V104.724H16.248V104.112H15.552V104.724H14.688V105.288H15.552V105.756H14.76V106.32H15.552V106.788H14.64V107.352H15.552V107.88H14.34V104.232H13.38V108.66H22.632V104.232ZM23.136 109.164H12.912V109.956H23.136V109.164ZM19.8 112.716C19.632 113.088 19.38 113.52 19.188 113.82L19.308 113.856H16.692L16.884 113.796C16.788 113.496 16.596 113.076 16.368 112.716H19.8ZM15.252 111.144H20.856V112.02H15.252V111.144ZM20.256 113.856C20.472 113.544 20.7 113.16 20.928 112.776L20.724 112.716H21.96V110.448H14.208V112.716H15.468L15.252 112.776C15.456 113.088 15.66 113.508 15.792 113.856H12.732V114.696H23.268V113.856H20.256ZM26.952 110.52V109.5H29.388V110.52H26.952ZM26.952 107.652H29.388V108.648H26.952V107.652ZM33.024 107.652V108.648H30.54V107.652H33.024ZM33.024 110.52H30.54V109.5H33.024V110.52ZM35.4 112.26H30.54V111.432H34.14V106.728H30.54V105.984H35.004V104.964H30.54V103.932H29.388V104.964H24.996V105.984H29.388V106.728H25.872V111.432H29.388V112.26H24.648V113.268H29.388V114.972H30.54V113.268H35.4V112.26ZM39.852 105.744C39.708 105.264 39.372 104.544 39.036 104.004L38.076 104.28C38.376 104.844 38.712 105.6 38.844 106.08L39.852 105.744ZM40.056 111.936C40.356 110.748 40.668 109.056 40.896 107.688L39.852 107.508C39.72 108.924 39.42 110.928 39.12 112.152C38.172 112.38 37.284 112.56 36.6 112.704L36.84 113.808C38.088 113.508 39.756 113.088 41.304 112.704L41.196 111.672L40.056 111.936ZM37.152 107.796C37.404 109.104 37.632 110.796 37.68 111.924L38.604 111.744C38.532 110.604 38.304 108.948 38.028 107.628L37.152 107.796ZM36.72 107.136H41.388V106.104H36.72V107.136ZM45.9 113.328H42.648V110.616H45.9V113.328ZM47.496 107.34V106.272H44.592V103.92H43.452V109.572H41.568V114.924H42.648V114.372H45.9V114.876H47.028V109.572H44.592V107.34H47.496ZM57.024 107.136H58.044V105.972H59.328V105H58.044V103.992H57.024V105H55.848V105.972H57.024V107.136ZM53.316 107.136H54.336V105.972H55.512V105H54.336V103.992H53.316V105H52.068V105.972H53.316V107.136ZM57.432 111.936V113.556H54.06V111.936H57.432ZM53.04 114.912H54.06V114.492H57.432V114.912H58.5V111.012H53.04V114.912ZM54.252 109.272C54.756 108.876 55.236 108.408 55.656 107.94C56.124 108.384 56.688 108.852 57.288 109.272H54.252ZM55.5 106.596C54.696 107.784 53.328 108.84 51.984 109.488L51.864 108.816L51.036 109.14V107.292H52.032V106.26H51.036V103.944H49.956V106.26H48.624V107.292H49.956V109.572C49.428 109.776 48.96 109.956 48.552 110.088L48.852 111.192C49.188 111.048 49.572 110.892 49.956 110.724V113.604C49.956 113.772 49.896 113.82 49.752 113.82C49.62 113.82 49.164 113.82 48.696 113.808C48.84 114.108 48.984 114.6 49.008 114.888C49.764 114.9 50.256 114.852 50.592 114.66C50.916 114.492 51.036 114.18 51.036 113.604V110.28L52.044 109.836C52.2 110.064 52.368 110.352 52.44 110.508C52.92 110.244 53.412 109.92 53.892 109.56V110.196H57.576V109.488C58.092 109.836 58.62 110.172 59.112 110.424C59.196 110.148 59.388 109.656 59.556 109.38C58.428 108.912 57.036 108.036 56.22 107.244C56.28 107.172 56.34 107.1 56.388 107.016L55.5 106.596ZM67.656 107.7V109.956C67.656 110.916 67.884 111.3 68.928 111.3H70.356C70.692 111.3 71.04 111.276 71.232 111.216C71.196 110.976 71.172 110.616 71.148 110.328C70.956 110.376 70.56 110.4 70.32 110.4H69.012C68.772 110.4 68.724 110.292 68.724 109.956V109.332H70.896V108.456H68.724V107.7H67.656ZM61.068 111.828C62.148 111.516 63.552 111.108 64.884 110.7L64.764 109.896L64.296 110.028V107.7H63.288V108.456H61.176V109.332H63.288V110.292C62.352 110.544 61.464 110.76 60.804 110.916L61.068 111.828ZM66.576 107.388H71.172V106.38H66.576V105.384C67.932 105.276 69.216 105.12 70.248 104.928L69.756 103.968C67.752 104.364 64.416 104.592 61.644 104.676C61.752 104.916 61.86 105.348 61.884 105.624C63 105.612 64.212 105.564 65.412 105.48V106.38H60.828V107.388H65.412V110.232C64.404 111.78 62.508 113.124 60.432 113.688C60.672 113.916 60.996 114.348 61.164 114.624C62.808 114.084 64.308 113.04 65.412 111.732V114.948H66.576V111.684C67.68 113.004 69.168 114.06 70.824 114.612C70.98 114.324 71.304 113.892 71.544 113.676C69.48 113.112 67.584 111.768 66.576 110.232V107.388ZM77.748 105.936H75.048L75.924 105.444C75.732 105.012 75.36 104.376 75.024 103.872L74.148 104.316C74.472 104.808 74.832 105.492 75.024 105.936H72.792V106.824H77.748V105.936ZM77.22 109.116H73.308V109.98H77.22V109.116ZM76.284 111.636V113.352H74.34V111.636H76.284ZM77.244 110.736H73.38V114.792H74.34V114.252H77.244V110.736ZM73.308 108.408H77.244V107.532H73.308V108.408ZM83.448 107.988H81.096V104.16H79.944V107.988H77.724V109.08H79.944V114.948H81.096V109.08H83.448V107.988ZM93.768 107.46H90.456V105.444H93.768V107.46ZM94.848 104.496H89.424V108.408H94.848V104.496ZM89.112 110.496C88.896 110.22 87.876 109.176 87.528 108.876V108.324H88.932V107.268H87.528V105.408C88.08 105.276 88.608 105.12 89.064 104.94L88.296 104.088C87.384 104.484 85.848 104.832 84.504 105.048C84.624 105.288 84.78 105.672 84.828 105.912C85.344 105.84 85.896 105.756 86.448 105.648V107.268H84.6V108.324H86.304C85.848 109.596 85.08 111.024 84.372 111.84C84.54 112.104 84.804 112.56 84.912 112.872C85.452 112.2 86.004 111.168 86.448 110.076V114.924H87.528V109.98C87.888 110.472 88.284 111.036 88.464 111.372L89.112 110.496ZM92.652 113.676V112.296H94.944V111.336H92.652V109.992C93.54 109.884 94.392 109.74 95.076 109.56L94.392 108.732C93.12 109.068 90.9 109.296 89.04 109.416C89.148 109.644 89.28 110.028 89.304 110.256C90.012 110.232 90.78 110.184 91.548 110.112V111.336H89.316V112.296H91.548V113.676H88.68V114.672H95.436V113.676H92.652ZM98.952 110.52V109.5H101.388V110.52H98.952ZM98.952 107.652H101.388V108.648H98.952V107.652ZM105.024 107.652V108.648H102.54V107.652H105.024ZM105.024 110.52H102.54V109.5H105.024V110.52ZM107.4 112.26H102.54V111.432H106.14V106.728H102.54V105.984H107.004V104.964H102.54V103.932H101.388V104.964H96.996V105.984H101.388V106.728H97.872V111.432H101.388V112.26H96.648V113.268H101.388V114.972H102.54V113.268H107.4V112.26ZM113.616 110.856C113.496 110.22 113.148 109.176 112.824 108.372L111.924 108.6C112.044 108.912 112.176 109.272 112.284 109.62L110.436 109.872C111.42 108.852 112.404 107.604 113.232 106.368L112.284 105.756C111.996 106.26 111.672 106.764 111.336 107.232L110.052 107.34C110.76 106.476 111.468 105.396 112.032 104.352L111.012 103.908C110.46 105.192 109.548 106.512 109.248 106.86C108.972 107.208 108.744 107.448 108.504 107.484C108.636 107.772 108.804 108.276 108.864 108.492C109.032 108.396 109.332 108.336 110.628 108.18C110.172 108.768 109.752 109.224 109.56 109.416C109.14 109.848 108.852 110.112 108.552 110.172C108.684 110.472 108.852 111 108.912 111.204C109.176 111.072 109.608 110.964 112.536 110.496C112.596 110.736 112.644 110.952 112.68 111.132L113.616 110.856ZM109.26 111.66C109.092 112.608 108.828 113.676 108.492 114.396C108.768 114.468 109.224 114.612 109.452 114.72C109.74 114.012 110.064 112.884 110.244 111.852L109.26 111.66ZM110.724 111.792C110.868 112.632 111.024 113.724 111.06 114.456L111.996 114.204C111.948 113.484 111.768 112.416 111.6 111.576L110.724 111.792ZM112.164 111.576C112.44 112.308 112.752 113.256 112.884 113.856L113.748 113.532C113.604 112.92 113.28 112.008 112.98 111.3L112.164 111.576ZM117.12 111.156C116.736 110.436 115.812 109.368 115.008 108.636L114.228 109.2C115.044 109.968 115.92 111.084 116.292 111.804L117.12 111.156ZM115.272 106.104C115.488 105.48 115.692 104.82 115.86 104.16L114.756 103.944C114.396 105.552 113.76 107.172 112.92 108.192C113.196 108.348 113.676 108.672 113.892 108.828C114.216 108.372 114.54 107.796 114.828 107.16H117.996C117.876 111.516 117.708 113.256 117.372 113.628C117.252 113.784 117.108 113.82 116.892 113.82C116.592 113.82 115.92 113.82 115.188 113.76C115.38 114.072 115.524 114.564 115.548 114.864C116.232 114.9 116.94 114.924 117.36 114.864C117.804 114.804 118.104 114.684 118.392 114.288C118.848 113.712 118.992 111.9 119.136 106.668C119.136 106.512 119.148 106.104 119.148 106.104H115.272ZM123.216 114.156C124.764 114.156 126.192 113.052 126.192 111.096C126.192 109.164 124.98 108.288 123.504 108.288C123.024 108.288 122.676 108.408 122.292 108.6L122.496 106.332H125.772V105.156H121.296L121.032 109.356L121.704 109.8C122.22 109.464 122.556 109.296 123.12 109.296C124.128 109.296 124.8 109.968 124.8 111.144C124.8 112.32 124.044 113.028 123.048 113.028C122.124 113.028 121.488 112.584 120.984 112.08L120.324 112.98C120.948 113.592 121.824 114.156 123.216 114.156ZM132.244 104.136V105.168H134.26C134.716 106.332 135.424 107.448 136.3 108.372H129.388C130.252 107.34 130.96 106.044 131.44 104.616L130.276 104.34C129.7 106.152 128.62 107.76 127.24 108.744C127.516 108.924 127.984 109.344 128.188 109.56C128.524 109.296 128.86 108.972 129.172 108.624V109.452H131.428C131.164 111.36 130.528 113.1 127.756 114.024C128.02 114.252 128.344 114.72 128.476 115.02C131.548 113.892 132.328 111.78 132.64 109.452H135.4C135.28 112.248 135.124 113.376 134.848 113.664C134.716 113.796 134.572 113.832 134.344 113.832C134.056 113.832 133.372 113.82 132.652 113.748C132.844 114.072 133 114.54 133.012 114.876C133.744 114.912 134.476 114.924 134.872 114.876C135.304 114.816 135.592 114.72 135.856 114.384C136.276 113.916 136.432 112.524 136.588 108.876C136.588 108.828 136.6 108.744 136.6 108.672C136.936 108.996 137.308 109.284 137.692 109.536C137.872 109.212 138.244 108.744 138.496 108.516C136.9 107.652 135.652 105.948 135.088 104.136H132.244ZM142 109.968H143.44V109.02H142V107.88H143.092V106.944H140.548C140.896 106.512 141.256 106.032 141.568 105.516C142.252 106.02 142.924 106.62 143.356 107.088L143.8 106.164C143.38 105.744 142.72 105.18 142.024 104.724C142.108 104.556 142.192 104.4 142.264 104.244L141.472 103.86C140.956 104.988 140.092 106.056 139.24 106.74C139.372 107.016 139.588 107.628 139.648 107.868C139.816 107.712 139.996 107.544 140.176 107.352V107.88H141.148V109.02H139.564V109.968H141.148V113.208C140.488 113.352 139.888 113.472 139.42 113.568L139.636 114.564C140.692 114.312 142.132 113.964 143.476 113.628L143.428 112.728C142.948 112.836 142.468 112.944 142 113.04V109.968ZM139.72 110.7C139.888 111.396 140.068 112.272 140.104 112.86L140.812 112.644C140.752 112.068 140.572 111.192 140.38 110.508L139.72 110.7ZM142.816 112.716C142.996 112.176 143.212 111.348 143.416 110.628L142.648 110.388C142.564 111.012 142.36 111.924 142.204 112.5L142.816 112.716ZM145.24 110.376H146.548V111.06H145.24V110.376ZM145.24 109.044H146.548V109.704H145.24V109.044ZM148.852 109.704H147.484V109.044H148.852V109.704ZM148.852 111.06H147.484V110.376H148.852V111.06ZM147.544 113.136H149.98V112.332H147.544V111.768H149.836V108.348H144.28V111.768H146.488V112.332H144.136V113.136H146.488V113.832H143.644V114.66H150.388V113.832H147.544V113.136ZM148.144 105.864C148.048 106.188 147.868 106.62 147.724 106.98H146.248L146.296 106.968C146.224 106.68 146.068 106.2 145.876 105.864H148.144ZM148.732 106.98C148.9 106.692 149.08 106.344 149.236 106.02L148.42 105.864H150.136V104.988H147.712C147.616 104.652 147.4 104.196 147.172 103.872L146.152 104.124C146.296 104.376 146.452 104.688 146.548 104.988H143.98V105.864H145.672L144.94 106.02C145.072 106.308 145.204 106.68 145.276 106.98H143.668V107.856H150.424V106.98H148.732ZM156.544 108.504V110.904H153.784V108.504H156.544ZM157.648 111.96V107.448H152.704V112.896H153.784V111.96H157.648ZM162.184 104.76H151.528V105.876H159.592V113.436C159.592 113.688 159.508 113.76 159.244 113.772C158.956 113.772 157.96 113.784 157.048 113.736C157.228 114.06 157.456 114.612 157.516 114.936C158.716 114.936 159.556 114.924 160.072 114.72C160.576 114.552 160.756 114.18 160.756 113.46V105.876H162.184V104.76ZM166.96 109.056L165.868 109.392V107.304H167.068V106.272H165.868V103.956H164.848V106.272H163.456V107.304H164.848V109.692C164.26 109.86 163.72 110.016 163.288 110.112L163.552 111.204L164.848 110.796V113.604C164.848 113.772 164.788 113.82 164.644 113.82C164.512 113.82 164.056 113.82 163.588 113.808C163.72 114.096 163.852 114.576 163.888 114.84C164.644 114.84 165.124 114.804 165.448 114.624C165.76 114.456 165.868 114.156 165.868 113.604V110.484C166.276 110.352 166.696 110.208 167.104 110.088L166.96 109.056ZM168.628 114.66H171.64V113.748H168.628V114.66ZM168.808 108.048V105.996C169.432 105.912 170.08 105.792 170.704 105.66C170.74 106.5 170.788 107.292 170.848 108.048H168.808ZM174.208 109.08V108.048H171.856C171.784 107.22 171.736 106.344 171.712 105.432C172.468 105.252 173.176 105.048 173.776 104.82L172.912 103.992C171.7 104.484 169.624 104.94 167.776 105.24L167.788 105.264L167.764 105.252V112.164C167.764 112.632 167.452 112.86 167.224 112.968C167.38 113.184 167.572 113.616 167.632 113.856C167.848 113.688 168.22 113.508 170.56 112.62C170.524 112.416 170.464 112.02 170.464 111.756L168.808 112.32V109.08H170.944C171.28 112.452 171.964 114.768 173.236 114.78C173.692 114.792 174.148 114.3 174.4 112.476C174.22 112.392 173.812 112.128 173.632 111.924C173.56 112.968 173.416 113.532 173.224 113.532C172.684 113.52 172.216 111.672 171.952 109.08H174.208ZM183.604 108.372H180.868L181.444 108.228C181.384 107.94 181.192 107.496 180.964 107.16H183.604C183.472 107.496 183.268 107.928 183.124 108.228L183.604 108.372ZM179.944 107.28C180.148 107.604 180.328 108.048 180.4 108.372H178.888V109.2H181.792V109.884H179.284V110.688H181.792V111.432H178.792V112.26H181.792V113.448H182.896V112.26H186.016V111.432H182.896V110.688H185.476V109.884H182.896V109.2H185.944V108.372H184.096C184.288 108.072 184.504 107.676 184.744 107.292L184.24 107.16H186.088V106.32H182.896V105.564H185.38V104.748H182.896V103.932H181.792V104.748H179.32V105.564H181.792V106.32H178.624V107.16H180.448L179.944 107.28ZM178.084 105.756C177.772 105.276 177.16 104.508 176.644 103.932L175.792 104.436C176.284 105.024 176.908 105.852 177.208 106.356L178.084 105.756ZM177.928 109.596L177.736 109.62H176.74C177.34 108.804 178.096 107.604 178.528 106.92L177.82 106.644L177.7 106.692H175.432V107.592H177.04C176.596 108.3 176.044 109.128 175.816 109.38C175.624 109.596 175.432 109.68 175.252 109.728C175.36 109.932 175.576 110.424 175.624 110.676C175.72 110.58 176.056 110.496 176.332 110.496H177.304C176.944 112.224 176.236 113.496 175.24 114.216C175.468 114.372 175.828 114.744 175.984 114.972C176.536 114.54 177.016 113.964 177.4 113.196C178.336 114.516 179.788 114.756 182.116 114.756C183.46 114.756 184.96 114.72 186.124 114.648C186.184 114.36 186.328 113.856 186.496 113.616C185.224 113.736 183.388 113.796 182.128 113.796C179.992 113.796 178.552 113.604 177.808 112.272C178.072 111.552 178.276 110.724 178.408 109.788L177.928 109.596ZM191.848 111.888C193.216 111.444 194.056 110.412 194.056 109.08C194.056 108.168 193.66 107.58 192.904 107.58C192.352 107.58 191.884 107.928 191.884 108.54C191.884 109.164 192.352 109.5 192.892 109.5C192.952 109.5 193.012 109.5 193.06 109.488C193 110.208 192.46 110.76 191.536 111.108L191.848 111.888ZM201.796 110.52V109.5H204.232V110.52H201.796ZM201.796 107.652H204.232V108.648H201.796V107.652ZM207.868 107.652V108.648H205.384V107.652H207.868ZM207.868 110.52H205.384V109.5H207.868V110.52ZM210.244 112.26H205.384V111.432H208.984V106.728H205.384V105.984H209.848V104.964H205.384V103.932H204.232V104.964H199.84V105.984H204.232V106.728H200.716V111.432H204.232V112.26H199.492V113.268H204.232V114.972H205.384V113.268H210.244V112.26ZM214.648 104.592H211.708V105.432H214.648V104.592ZM218.836 105.54H220.504C220.336 105.84 220.156 106.152 220 106.368L220.876 106.68C221.212 106.236 221.62 105.54 221.92 104.904L221.152 104.652L220.996 104.7H217.252C217.336 104.496 217.408 104.304 217.48 104.1L216.484 103.884C216.22 104.724 215.728 105.552 215.104 106.092C215.356 106.212 215.764 106.5 215.944 106.656C216.256 106.356 216.556 105.972 216.82 105.54H217.816V105.696C217.816 106.212 217.54 106.884 214.936 107.22V106.428H211.456V107.304H214.504C214.708 107.508 214.96 107.88 215.068 108.132C217.132 107.844 218.08 107.328 218.512 106.776C219.268 107.472 220.36 107.904 221.728 108.096C221.836 107.808 222.112 107.412 222.328 107.184C220.744 107.088 219.46 106.68 218.812 106.02C218.836 105.912 218.836 105.816 218.836 105.732V105.54ZM214.096 111.6H219.724V112.296H214.096V111.6ZM214.096 110.244H219.724V110.916H214.096V110.244ZM214.096 108.888H219.724V109.572H214.096V108.888ZM220.84 113.004V108.18H213.016V113.004H214.948C214.12 113.472 212.716 113.88 211.492 114.12C211.732 114.324 212.128 114.732 212.32 114.96C213.52 114.624 215.02 114.048 215.992 113.46L214.996 113.004H218.584L217.888 113.568C219.124 113.988 220.384 114.528 221.116 114.924L222.124 114.312C221.308 113.916 219.976 113.412 218.74 113.004H220.84ZM228.46 110.856C228.34 110.22 227.992 109.176 227.668 108.372L226.768 108.6C226.888 108.912 227.02 109.272 227.128 109.62L225.28 109.872C226.264 108.852 227.248 107.604 228.076 106.368L227.128 105.756C226.84 106.26 226.516 106.764 226.18 107.232L224.896 107.34C225.604 106.476 226.312 105.396 226.876 104.352L225.856 103.908C225.304 105.192 224.392 106.512 224.092 106.86C223.816 107.208 223.588 107.448 223.348 107.484C223.48 107.772 223.648 108.276 223.708 108.492C223.876 108.396 224.176 108.336 225.472 108.18C225.016 108.768 224.596 109.224 224.404 109.416C223.984 109.848 223.696 110.112 223.396 110.172C223.528 110.472 223.696 111 223.756 111.204C224.02 111.072 224.452 110.964 227.38 110.496C227.44 110.736 227.488 110.952 227.524 111.132L228.46 110.856ZM224.104 111.66C223.936 112.608 223.672 113.676 223.336 114.396C223.612 114.468 224.068 114.612 224.296 114.72C224.584 114.012 224.908 112.884 225.088 111.852L224.104 111.66ZM225.568 111.792C225.712 112.632 225.868 113.724 225.904 114.456L226.84 114.204C226.792 113.484 226.612 112.416 226.444 111.576L225.568 111.792ZM227.008 111.576C227.284 112.308 227.596 113.256 227.728 113.856L228.592 113.532C228.448 112.92 228.124 112.008 227.824 111.3L227.008 111.576ZM231.964 111.156C231.58 110.436 230.656 109.368 229.852 108.636L229.072 109.2C229.888 109.968 230.764 111.084 231.136 111.804L231.964 111.156ZM230.116 106.104C230.332 105.48 230.536 104.82 230.704 104.16L229.6 103.944C229.24 105.552 228.604 107.172 227.764 108.192C228.04 108.348 228.52 108.672 228.736 108.828C229.06 108.372 229.384 107.796 229.672 107.16H232.84C232.72 111.516 232.552 113.256 232.216 113.628C232.096 113.784 231.952 113.82 231.736 113.82C231.436 113.82 230.764 113.82 230.032 113.76C230.224 114.072 230.368 114.564 230.392 114.864C231.076 114.9 231.784 114.924 232.204 114.864C232.648 114.804 232.948 114.684 233.236 114.288C233.692 113.712 233.836 111.9 233.98 106.668C233.98 106.512 233.992 106.104 233.992 106.104H230.116ZM236.008 114H237.328V109.836C237.328 108.876 237.22 107.856 237.148 106.944H237.208L238.132 108.792L241.06 114H242.488V105.156H241.168V109.284C241.168 110.244 241.276 111.312 241.348 112.224H241.288L240.364 110.352L237.436 105.156H236.008V114ZM246.62 114H248.012V106.332H250.616V105.156H244.028V106.332H246.62V114ZM253.956 115.476H254.916V114.108C256.236 113.88 257.004 112.968 257.004 111.684C257.004 108.888 253.296 109.296 253.296 107.544C253.296 106.812 253.776 106.38 254.544 106.38C255.228 106.38 255.636 106.644 256.14 107.112L256.848 106.308C256.356 105.78 255.78 105.372 254.916 105.264V103.92H253.956V105.276C252.744 105.48 251.964 106.356 251.964 107.604C251.964 110.172 255.672 109.836 255.672 111.78C255.672 112.56 255.216 113.028 254.28 113.028C253.524 113.028 252.864 112.668 252.252 112.164L251.628 113.112C252.228 113.652 253.116 114.06 253.956 114.144V115.476ZM258.856 114H263.896V112.86H262.168V105.156H261.124C260.62 105.48 260.032 105.684 259.204 105.84V106.716H260.788V112.86H258.856V114ZM266.3 110.556L268.04 107.892C268.292 107.436 268.532 106.98 268.748 106.524H268.796C268.772 107.016 268.736 107.76 268.736 108.24V110.556H266.3ZM268.736 114H270.032V111.624H271.148V110.556H270.032V105.156H268.424L264.908 110.7V111.624H268.736V114ZM274.932 114.156C276.66 114.156 277.788 112.62 277.788 109.548C277.788 106.5 276.66 105 274.932 105C273.204 105 272.076 106.488 272.076 109.548C272.076 112.62 273.204 114.156 274.932 114.156ZM274.932 113.064C274.032 113.064 273.396 112.104 273.396 109.548C273.396 107.016 274.032 106.092 274.932 106.092C275.832 106.092 276.468 107.016 276.468 109.548C276.468 112.104 275.832 113.064 274.932 113.064Z" fill="#FFA0B2"/>
<path d="M18.76 8.58H11.68L11.74 8.56C11.48 7.8 10.82 6.66 10.28 5.8L8 6.6C8.36 7.2 8.74 7.92 9.02 8.58H1.22V10.9H18.76V8.58ZM11.9 12.3C13.68 13.6 15.9 15.48 16.88 16.72L18.92 15.18C17.82 13.9 15.5 12.14 13.78 10.96L11.9 12.3ZM5.96 11.08C4.8 12.52 2.86 13.98 1.08 14.88C1.62 15.28 2.52 16.14 2.96 16.62C4.74 15.54 6.9 13.72 8.26 11.96L5.96 11.08ZM12.62 14.52C12.04 16.08 11.16 17.38 10.02 18.46C8.92 17.38 8.06 16.08 7.46 14.62L5.32 15.28C6.08 17.06 7.06 18.6 8.24 19.88C6.28 21.18 3.82 22.04 0.92 22.6C1.38 23.12 2.08 24.18 2.36 24.72C5.3 24 7.88 22.98 10 21.48C12.02 23 14.52 24.02 17.68 24.62C17.98 23.98 18.6 23 19.12 22.48C16.18 22.04 13.78 21.18 11.86 19.92C13.16 18.64 14.22 17.08 15.02 15.22L12.62 14.52ZM31.72 12.78V13.86H29.28V12.78H31.72ZM36.34 13.86H33.76V12.78H36.34V13.86ZM33.76 16.64V15.52H36.34V16.64H33.76ZM29.28 16.64V15.52H31.72V16.64H29.28ZM29.28 18.36H31.72V21.28H33.76V18.36H36.34V19.34C36.34 19.56 36.28 19.64 36.04 19.64C35.82 19.64 35.14 19.64 34.5 19.62C34.74 20.1 35 20.84 35.06 21.38C36.24 21.38 37.1 21.36 37.68 21.08C38.3 20.76 38.46 20.3 38.46 19.36V11.06H36.1C35.76 10.86 35.34 10.66 34.9 10.44C36.2 9.64 37.46 8.68 38.46 7.72L37.06 6.6L36.58 6.72H27.4V8.48H34.56C34.04 8.86 33.48 9.24 32.92 9.56C32.1 9.22 31.26 8.9 30.54 8.64L29.02 9.9C29.86 10.22 30.78 10.64 31.7 11.06H27.18V21.34H29.28V18.36ZM25.82 9.04C25.22 8.24 24.12 7 23.16 6.04L21.4 7.14C22.3 8.12 23.46 9.52 24.02 10.36L25.82 9.04ZM25.4 15.48L25.02 15.54H23.56C24.62 14.2 25.9 12.36 26.64 11.26L25.2 10.6L24.96 10.7H20.9V12.6H23.48C22.72 13.66 21.92 14.76 21.54 15.12C21.16 15.52 20.82 15.68 20.5 15.76C20.7 16.18 21.14 17.2 21.26 17.68C21.44 17.52 22.02 17.38 22.48 17.38H24.18C23.52 20.1 22.22 22.06 20.38 23.16C20.84 23.46 21.62 24.3 21.92 24.76C22.88 24.1 23.76 23.22 24.46 22.06C26 24.02 28.28 24.4 31.9 24.4C34.24 24.4 36.76 24.36 38.82 24.22C38.94 23.58 39.26 22.5 39.6 22.02C37.34 22.24 34.08 22.36 31.94 22.36C28.78 22.34 26.6 22.1 25.38 20.24C25.9 19 26.28 17.56 26.52 15.9L25.4 15.48Z" fill="#FFA0B2"/>
<line y1="30.75" x2="477" y2="30.75" stroke="#FFA0B2" stroke-width="0.5"/>
</svg>
