<svg width="199" height="46" viewBox="0 0 199 46" fill="none" xmlns="http://www.w3.org/2000/svg">
<path d="M2.408 31.88C2.12 35.768 1.544 40.136 0.44 42.92C1.592 43.256 3.8 43.928 4.76 44.456C5.768 41.528 6.536 36.92 6.92 32.6L2.408 31.88ZM7.928 32.504C8.504 35.96 9.032 40.52 9.128 43.448L13.448 42.584C13.256 39.608 12.68 35.144 12.008 31.736L7.928 32.504ZM13.064 31.544C14.024 34.52 15.176 38.504 15.56 41.048L19.544 39.704C19.112 37.112 17.96 33.32 16.856 30.296L13.064 31.544ZM12.536 19.976C12.92 21.128 13.352 22.376 13.688 23.672L8.744 24.2C12.392 20.12 15.896 15.176 18.68 10.376L14.024 7.448C13.064 9.464 11.864 11.576 10.712 13.496L7.304 13.736C9.8 10.28 12.248 6.152 14.072 2.168L9.032 0.0559978C7.208 5.144 4.088 10.472 3.032 11.864C2.024 13.304 1.256 14.216 0.296 14.456C0.872 15.848 1.688 18.248 1.976 19.304C2.648 18.968 3.752 18.68 7.544 18.248C6.2 20.168 5 21.608 4.376 22.28C2.84 24.008 1.832 25.064 0.584 25.352C1.208 26.792 2.024 29.288 2.312 30.344C3.416 29.816 5.144 29.384 14.84 27.992C15.032 28.808 15.176 29.576 15.272 30.248L19.64 28.712C19.16 26.168 17.816 21.944 16.568 18.728L12.536 19.976ZM36.968 31.016V37.976H26.6V31.016H36.968ZM21.272 45.176H26.6V43.112H36.968V44.984H42.536V25.88H21.272V45.176ZM44.84 11.48V6.2H34.616V0.295998H28.76V6.2H19.016V11.48H28.76V16.952H20.36V22.184H43.688V16.952H34.616V11.48H44.84ZM60.2 15.128C60.152 18.824 59.816 23.192 58.328 27.608C57.272 26.696 56.168 25.736 55.16 24.824C55.832 21.992 56.504 18.68 57.08 15.32L60.2 15.128ZM67.4 14.6V9.848L65.384 9.944V7.112H60.2V10.184L57.944 10.328C58.424 7.112 58.856 3.848 59.144 0.919998L53.768 0.631999C53.576 3.704 53.144 7.16 52.664 10.568L48.44 10.76L48.968 15.848L51.8 15.656C51.128 19.688 50.264 23.432 49.448 26.408C51.464 28.232 53.864 30.488 56.168 32.648C54.392 35.768 51.848 38.696 48.296 41.288C49.496 42.104 51.368 44.024 52.136 45.224C55.64 42.632 58.184 39.704 60.104 36.632C61.352 37.88 62.456 39.128 63.224 40.184L66.776 35.768C65.72 34.52 64.28 33.08 62.648 31.496C64.904 25.64 65.336 19.688 65.384 14.744L67.4 14.6ZM84.92 29.912V32.456H74.072V29.912H84.92ZM74.072 39.032V36.44H84.92V39.032H74.072ZM68.84 45.224H74.072V43.592H84.92V45.08H90.44V25.352H68.84V45.224ZM73.784 9.896V6.872C75.368 6.776 76.952 6.632 78.536 6.488C78.68 7.592 78.872 8.792 79.112 9.896H73.784ZM92.792 14.36V9.896H84.248C83.96 8.6 83.768 7.256 83.576 5.816C86.312 5.432 88.808 4.904 91.064 4.328L87.512 0.391999C82.856 1.688 75.176 2.6 68.456 2.984V17.576C68.456 19.496 67.112 20.168 66.104 20.504C66.776 21.464 67.544 23.528 67.736 24.728C68.888 24.104 70.664 23.624 80.6 21.848C80.36 20.696 80.168 18.632 80.168 17.192L73.784 18.2V14.36H80.168C81.992 20.6 85.016 24.92 89.384 24.968C91.208 25.016 92.888 23.528 93.896 18.728C92.936 18.248 91.256 16.952 90.392 15.944C90.152 18.2 89.768 19.352 89.192 19.352C87.848 19.304 86.552 17.432 85.448 14.36H92.792ZM151.475 21.848H132.851V11.912H147.731V6.296H121.523C122.147 4.712 122.723 3.176 123.251 1.592L117.155 0.103997C115.235 6.584 111.779 13.016 107.747 16.856C109.283 17.672 111.923 19.352 113.171 20.36C115.139 18.152 117.107 15.176 118.883 11.912H126.899V21.848H108.323V27.656H126.899V45.176H132.851V27.656H151.475V21.848ZM162.515 8.6H193.043V13.784H198.755V3.944H181.235C180.803 2.744 180.083 1.4 179.411 0.295998L173.651 1.352C174.083 2.072 174.563 3.032 174.899 3.944H157.043V13.784H162.515V8.6ZM182.003 33.656C180.851 34.712 179.507 35.672 177.971 36.392C175.667 35.96 173.219 35.48 170.867 35.048C171.251 34.616 171.683 34.136 172.019 33.656H182.003ZM169.811 19.64H185.459V21.752H169.811V19.64ZM169.811 14.168H185.459V16.28H169.811V14.168ZM198.995 33.656V29.288H191.555L191.939 28.376L186.611 26.936C186.275 27.752 185.891 28.568 185.507 29.288H175.475C176.147 28.328 176.819 27.32 177.395 26.36L173.555 25.304H191.123V10.616H164.435V25.304H171.779C171.011 26.6 170.099 27.944 169.091 29.288H156.371V33.656H165.587C164.387 35 163.187 36.248 162.083 37.304C165.059 37.832 167.891 38.36 170.723 38.888C166.787 39.8 162.131 40.328 156.755 40.616C157.667 41.864 158.483 43.688 158.915 45.176C167.555 44.456 174.419 43.256 179.651 40.904C185.555 42.344 190.643 43.784 194.387 45.176L198.947 41.72C195.155 40.52 190.211 39.176 184.787 37.928C186.371 36.68 187.763 35.336 188.963 33.656H198.995Z" fill="#FFA0B2"/>
</svg>
